%TF.GenerationSoftware,KiCad,Pcbnew,9.0.5*%
%TF.CreationDate,2025-11-18T06:46:22-05:00*%
%TF.ProjectId,switchboard,73776974-6368-4626-9f61-72642e6b6963,rev?*%
%TF.SameCoordinates,Original*%
%TF.FileFunction,Legend,Bot*%
%TF.FilePolarity,Positive*%
%FSLAX46Y46*%
G04 Gerber Fmt 4.6, Leading zero omitted, Abs format (unit mm)*
G04 Created by KiCad (PCBNEW 9.0.5) date 2025-11-18 06:46:22*
%MOMM*%
%LPD*%
G01*
G04 APERTURE LIST*
%ADD10C,0.100000*%
%ADD11C,0.150000*%
%ADD12C,0.152400*%
%ADD13C,0.508000*%
%ADD14C,0.120000*%
G04 APERTURE END LIST*
D10*
X243116904Y-141913419D02*
X243116904Y-142722942D01*
X243116904Y-142722942D02*
X243069285Y-142818180D01*
X243069285Y-142818180D02*
X243021666Y-142865800D01*
X243021666Y-142865800D02*
X242926428Y-142913419D01*
X242926428Y-142913419D02*
X242735952Y-142913419D01*
X242735952Y-142913419D02*
X242640714Y-142865800D01*
X242640714Y-142865800D02*
X242593095Y-142818180D01*
X242593095Y-142818180D02*
X242545476Y-142722942D01*
X242545476Y-142722942D02*
X242545476Y-141913419D01*
X242164523Y-141913419D02*
X241545476Y-141913419D01*
X241545476Y-141913419D02*
X241878809Y-142294371D01*
X241878809Y-142294371D02*
X241735952Y-142294371D01*
X241735952Y-142294371D02*
X241640714Y-142341990D01*
X241640714Y-142341990D02*
X241593095Y-142389609D01*
X241593095Y-142389609D02*
X241545476Y-142484847D01*
X241545476Y-142484847D02*
X241545476Y-142722942D01*
X241545476Y-142722942D02*
X241593095Y-142818180D01*
X241593095Y-142818180D02*
X241640714Y-142865800D01*
X241640714Y-142865800D02*
X241735952Y-142913419D01*
X241735952Y-142913419D02*
X242021666Y-142913419D01*
X242021666Y-142913419D02*
X242116904Y-142865800D01*
X242116904Y-142865800D02*
X242164523Y-142818180D01*
D11*
X148044819Y-137668095D02*
X148854342Y-137668095D01*
X148854342Y-137668095D02*
X148949580Y-137715714D01*
X148949580Y-137715714D02*
X148997200Y-137763333D01*
X148997200Y-137763333D02*
X149044819Y-137858571D01*
X149044819Y-137858571D02*
X149044819Y-138049047D01*
X149044819Y-138049047D02*
X148997200Y-138144285D01*
X148997200Y-138144285D02*
X148949580Y-138191904D01*
X148949580Y-138191904D02*
X148854342Y-138239523D01*
X148854342Y-138239523D02*
X148044819Y-138239523D01*
X149044819Y-139239523D02*
X149044819Y-138668095D01*
X149044819Y-138953809D02*
X148044819Y-138953809D01*
X148044819Y-138953809D02*
X148187676Y-138858571D01*
X148187676Y-138858571D02*
X148282914Y-138763333D01*
X148282914Y-138763333D02*
X148330533Y-138668095D01*
X198783714Y-135165180D02*
X199340857Y-135165180D01*
X199340857Y-135165180D02*
X199040857Y-134784228D01*
X199040857Y-134784228D02*
X199169428Y-134784228D01*
X199169428Y-134784228D02*
X199255143Y-134736609D01*
X199255143Y-134736609D02*
X199298000Y-134688990D01*
X199298000Y-134688990D02*
X199340857Y-134593752D01*
X199340857Y-134593752D02*
X199340857Y-134355657D01*
X199340857Y-134355657D02*
X199298000Y-134260419D01*
X199298000Y-134260419D02*
X199255143Y-134212800D01*
X199255143Y-134212800D02*
X199169428Y-134165180D01*
X199169428Y-134165180D02*
X198912285Y-134165180D01*
X198912285Y-134165180D02*
X198826571Y-134212800D01*
X198826571Y-134212800D02*
X198783714Y-134260419D01*
X199598000Y-135165180D02*
X199898000Y-134165180D01*
X199898000Y-134165180D02*
X200198000Y-135165180D01*
X200412286Y-135165180D02*
X200969429Y-135165180D01*
X200969429Y-135165180D02*
X200669429Y-134784228D01*
X200669429Y-134784228D02*
X200798000Y-134784228D01*
X200798000Y-134784228D02*
X200883715Y-134736609D01*
X200883715Y-134736609D02*
X200926572Y-134688990D01*
X200926572Y-134688990D02*
X200969429Y-134593752D01*
X200969429Y-134593752D02*
X200969429Y-134355657D01*
X200969429Y-134355657D02*
X200926572Y-134260419D01*
X200926572Y-134260419D02*
X200883715Y-134212800D01*
X200883715Y-134212800D02*
X200798000Y-134165180D01*
X200798000Y-134165180D02*
X200540857Y-134165180D01*
X200540857Y-134165180D02*
X200455143Y-134212800D01*
X200455143Y-134212800D02*
X200412286Y-134260419D01*
X198655143Y-136752800D02*
X198783715Y-136705180D01*
X198783715Y-136705180D02*
X198998000Y-136705180D01*
X198998000Y-136705180D02*
X199083715Y-136752800D01*
X199083715Y-136752800D02*
X199126572Y-136800419D01*
X199126572Y-136800419D02*
X199169429Y-136895657D01*
X199169429Y-136895657D02*
X199169429Y-136990895D01*
X199169429Y-136990895D02*
X199126572Y-137086133D01*
X199126572Y-137086133D02*
X199083715Y-137133752D01*
X199083715Y-137133752D02*
X198998000Y-137181371D01*
X198998000Y-137181371D02*
X198826572Y-137228990D01*
X198826572Y-137228990D02*
X198740857Y-137276609D01*
X198740857Y-137276609D02*
X198698000Y-137324228D01*
X198698000Y-137324228D02*
X198655143Y-137419466D01*
X198655143Y-137419466D02*
X198655143Y-137514704D01*
X198655143Y-137514704D02*
X198698000Y-137609942D01*
X198698000Y-137609942D02*
X198740857Y-137657561D01*
X198740857Y-137657561D02*
X198826572Y-137705180D01*
X198826572Y-137705180D02*
X199040857Y-137705180D01*
X199040857Y-137705180D02*
X199169429Y-137657561D01*
X199469429Y-137705180D02*
X199683715Y-136705180D01*
X199683715Y-136705180D02*
X199855143Y-137419466D01*
X199855143Y-137419466D02*
X200026572Y-136705180D01*
X200026572Y-136705180D02*
X200240858Y-137705180D01*
X200755143Y-137705180D02*
X200926571Y-137705180D01*
X200926571Y-137705180D02*
X201012286Y-137657561D01*
X201012286Y-137657561D02*
X201098000Y-137562323D01*
X201098000Y-137562323D02*
X201140857Y-137371847D01*
X201140857Y-137371847D02*
X201140857Y-137038514D01*
X201140857Y-137038514D02*
X201098000Y-136848038D01*
X201098000Y-136848038D02*
X201012286Y-136752800D01*
X201012286Y-136752800D02*
X200926571Y-136705180D01*
X200926571Y-136705180D02*
X200755143Y-136705180D01*
X200755143Y-136705180D02*
X200669429Y-136752800D01*
X200669429Y-136752800D02*
X200583714Y-136848038D01*
X200583714Y-136848038D02*
X200540857Y-137038514D01*
X200540857Y-137038514D02*
X200540857Y-137371847D01*
X200540857Y-137371847D02*
X200583714Y-137562323D01*
X200583714Y-137562323D02*
X200669429Y-137657561D01*
X200669429Y-137657561D02*
X200755143Y-137705180D01*
X199212286Y-142737561D02*
X199126572Y-142785180D01*
X199126572Y-142785180D02*
X198998000Y-142785180D01*
X198998000Y-142785180D02*
X198869429Y-142737561D01*
X198869429Y-142737561D02*
X198783714Y-142642323D01*
X198783714Y-142642323D02*
X198740857Y-142547085D01*
X198740857Y-142547085D02*
X198698000Y-142356609D01*
X198698000Y-142356609D02*
X198698000Y-142213752D01*
X198698000Y-142213752D02*
X198740857Y-142023276D01*
X198740857Y-142023276D02*
X198783714Y-141928038D01*
X198783714Y-141928038D02*
X198869429Y-141832800D01*
X198869429Y-141832800D02*
X198998000Y-141785180D01*
X198998000Y-141785180D02*
X199083714Y-141785180D01*
X199083714Y-141785180D02*
X199212286Y-141832800D01*
X199212286Y-141832800D02*
X199255143Y-141880419D01*
X199255143Y-141880419D02*
X199255143Y-142213752D01*
X199255143Y-142213752D02*
X199083714Y-142213752D01*
X199640857Y-141785180D02*
X199640857Y-142785180D01*
X199640857Y-142785180D02*
X200155143Y-141785180D01*
X200155143Y-141785180D02*
X200155143Y-142785180D01*
X200583714Y-141785180D02*
X200583714Y-142785180D01*
X200583714Y-142785180D02*
X200798000Y-142785180D01*
X200798000Y-142785180D02*
X200926571Y-142737561D01*
X200926571Y-142737561D02*
X201012286Y-142642323D01*
X201012286Y-142642323D02*
X201055143Y-142547085D01*
X201055143Y-142547085D02*
X201098000Y-142356609D01*
X201098000Y-142356609D02*
X201098000Y-142213752D01*
X201098000Y-142213752D02*
X201055143Y-142023276D01*
X201055143Y-142023276D02*
X201012286Y-141928038D01*
X201012286Y-141928038D02*
X200926571Y-141832800D01*
X200926571Y-141832800D02*
X200798000Y-141785180D01*
X200798000Y-141785180D02*
X200583714Y-141785180D01*
X198624286Y-139292800D02*
X198752858Y-139245180D01*
X198752858Y-139245180D02*
X198967143Y-139245180D01*
X198967143Y-139245180D02*
X199052858Y-139292800D01*
X199052858Y-139292800D02*
X199095715Y-139340419D01*
X199095715Y-139340419D02*
X199138572Y-139435657D01*
X199138572Y-139435657D02*
X199138572Y-139530895D01*
X199138572Y-139530895D02*
X199095715Y-139626133D01*
X199095715Y-139626133D02*
X199052858Y-139673752D01*
X199052858Y-139673752D02*
X198967143Y-139721371D01*
X198967143Y-139721371D02*
X198795715Y-139768990D01*
X198795715Y-139768990D02*
X198710000Y-139816609D01*
X198710000Y-139816609D02*
X198667143Y-139864228D01*
X198667143Y-139864228D02*
X198624286Y-139959466D01*
X198624286Y-139959466D02*
X198624286Y-140054704D01*
X198624286Y-140054704D02*
X198667143Y-140149942D01*
X198667143Y-140149942D02*
X198710000Y-140197561D01*
X198710000Y-140197561D02*
X198795715Y-140245180D01*
X198795715Y-140245180D02*
X199010000Y-140245180D01*
X199010000Y-140245180D02*
X199138572Y-140197561D01*
X199438572Y-140245180D02*
X199652858Y-139245180D01*
X199652858Y-139245180D02*
X199824286Y-139959466D01*
X199824286Y-139959466D02*
X199995715Y-139245180D01*
X199995715Y-139245180D02*
X200210001Y-140245180D01*
X201067143Y-139340419D02*
X201024286Y-139292800D01*
X201024286Y-139292800D02*
X200895714Y-139245180D01*
X200895714Y-139245180D02*
X200810000Y-139245180D01*
X200810000Y-139245180D02*
X200681429Y-139292800D01*
X200681429Y-139292800D02*
X200595714Y-139388038D01*
X200595714Y-139388038D02*
X200552857Y-139483276D01*
X200552857Y-139483276D02*
X200510000Y-139673752D01*
X200510000Y-139673752D02*
X200510000Y-139816609D01*
X200510000Y-139816609D02*
X200552857Y-140007085D01*
X200552857Y-140007085D02*
X200595714Y-140102323D01*
X200595714Y-140102323D02*
X200681429Y-140197561D01*
X200681429Y-140197561D02*
X200810000Y-140245180D01*
X200810000Y-140245180D02*
X200895714Y-140245180D01*
X200895714Y-140245180D02*
X201024286Y-140197561D01*
X201024286Y-140197561D02*
X201067143Y-140149942D01*
X201881429Y-139245180D02*
X201452857Y-139245180D01*
X201452857Y-139245180D02*
X201452857Y-140245180D01*
X202181428Y-139245180D02*
X202181428Y-140245180D01*
X202695714Y-139245180D02*
X202310000Y-139816609D01*
X202695714Y-140245180D02*
X202181428Y-139673752D01*
X214559819Y-145716666D02*
X215274104Y-145716666D01*
X215274104Y-145716666D02*
X215416961Y-145669047D01*
X215416961Y-145669047D02*
X215512200Y-145573809D01*
X215512200Y-145573809D02*
X215559819Y-145430952D01*
X215559819Y-145430952D02*
X215559819Y-145335714D01*
X215559819Y-146716666D02*
X215559819Y-146145238D01*
X215559819Y-146430952D02*
X214559819Y-146430952D01*
X214559819Y-146430952D02*
X214702676Y-146335714D01*
X214702676Y-146335714D02*
X214797914Y-146240476D01*
X214797914Y-146240476D02*
X214845533Y-146145238D01*
D12*
%TO.C,J2*%
X97044998Y-147110000D02*
X102444997Y-147110000D01*
X108945000Y-146210000D02*
X108945000Y-124709999D01*
X92644999Y-146210000D02*
X108945000Y-146210000D01*
X92644999Y-146210000D02*
X92644999Y-124709999D01*
X102444997Y-146209999D02*
X102444997Y-147110000D01*
X97044998Y-146209999D02*
X97044998Y-147110000D01*
X92644999Y-145430001D02*
X89745000Y-145430001D01*
X89745000Y-145430001D02*
X89745000Y-141030002D01*
X92644999Y-141030002D02*
X89745000Y-141030002D01*
X92644999Y-140430001D02*
X89745000Y-140430001D01*
X89745000Y-140430001D02*
X89745000Y-136030002D01*
X92644999Y-136030002D02*
X89745000Y-136030002D01*
X92644999Y-135430001D02*
X89745000Y-135430001D01*
X89745000Y-135430001D02*
X89745000Y-131030002D01*
X92644999Y-131030002D02*
X89745000Y-131030002D01*
X92644999Y-130430001D02*
X89745000Y-130430001D01*
X89745000Y-130430001D02*
X89745000Y-126030002D01*
X92644999Y-126030002D02*
X89745000Y-126030002D01*
X108945000Y-124709999D02*
X92644999Y-124709999D01*
D13*
X106426000Y-148115001D02*
G75*
G02*
X105664000Y-148115001I-381000J0D01*
G01*
X105664000Y-148115001D02*
G75*
G02*
X106426000Y-148115001I381000J0D01*
G01*
%TO.C,U3*%
D10*
X242355000Y-130656000D02*
X224855000Y-130656000D01*
X224855000Y-142956000D01*
X242355000Y-142956000D01*
X242355000Y-130656000D01*
D14*
%TO.C,U1*%
X149955000Y-127055000D02*
X149955000Y-149805000D01*
X203105000Y-127055000D02*
X149955000Y-127055000D01*
X151070000Y-129480000D02*
X151070000Y-130810000D01*
X152400000Y-129480000D02*
X151070000Y-129480000D01*
X153670000Y-129480000D02*
X153670000Y-132140000D01*
X201990000Y-129480000D02*
X153670000Y-129480000D01*
X153670000Y-132140000D02*
X201990000Y-132140000D01*
X201990000Y-132140000D02*
X201990000Y-129480000D01*
X158302277Y-133167533D02*
X164102277Y-133167533D01*
X164202277Y-133267533D02*
X164202277Y-136567533D01*
X195520000Y-133290000D02*
X198180000Y-133290000D01*
X198180000Y-133290000D02*
X198180000Y-143570000D01*
X175417205Y-133331907D02*
X176124312Y-134039014D01*
X177679947Y-133331907D02*
X176972840Y-134039014D01*
X175205073Y-133544039D02*
X175417205Y-133331907D01*
X175205073Y-133544039D02*
X175912180Y-134251146D01*
X177892079Y-133544039D02*
X177679947Y-133331907D01*
X177892079Y-133544039D02*
X177184972Y-134251146D01*
X176598576Y-133664750D02*
X176498576Y-133664750D01*
X176598576Y-133664750D02*
X181448324Y-138514498D01*
X175063652Y-133685461D02*
X175770759Y-134392568D01*
X178033500Y-133685461D02*
X177326394Y-134392568D01*
X174851520Y-133897593D02*
X175063652Y-133685461D01*
X174851520Y-133897593D02*
X175558627Y-134604700D01*
X178245632Y-133897593D02*
X178033500Y-133685461D01*
X178245632Y-133897593D02*
X177538526Y-134604700D01*
X159102277Y-133917533D02*
X158452277Y-133917533D01*
X162602277Y-133917533D02*
X159802277Y-133917533D01*
X163952277Y-133917533D02*
X163302277Y-133917533D01*
X158352277Y-134017533D02*
X158352277Y-135817533D01*
X159702277Y-134017533D02*
X159702277Y-135817533D01*
X163202277Y-134017533D02*
X163202277Y-135817533D01*
X174710099Y-134039014D02*
X175417205Y-134746121D01*
X178387054Y-134039014D02*
X177679947Y-134746121D01*
X174497967Y-134251146D02*
X174710099Y-134039014D01*
X174497967Y-134251146D02*
X175205073Y-134958253D01*
X178599186Y-134251146D02*
X178387054Y-134039014D01*
X178599186Y-134251146D02*
X177892079Y-134958253D01*
X150192892Y-134392512D02*
X150509153Y-134671166D01*
X174356545Y-134392568D02*
X175063652Y-135099674D01*
X178740607Y-134392568D02*
X178033500Y-135099674D01*
X188652809Y-134537718D02*
X191952809Y-134537718D01*
X188652190Y-134537720D02*
X188652809Y-134537718D01*
X150380469Y-134557784D02*
X150217578Y-134742659D01*
X150030000Y-134577387D02*
X150192892Y-134392512D01*
X174144413Y-134604700D02*
X174356545Y-134392568D01*
X174144413Y-134604700D02*
X174851520Y-135311806D01*
X178952739Y-134604700D02*
X178740607Y-134392568D01*
X178952739Y-134604700D02*
X178245632Y-135311806D01*
X190943851Y-134621800D02*
X189661767Y-134621800D01*
X192052807Y-134637100D02*
X192052809Y-134637718D01*
X188552809Y-134637718D02*
X188552811Y-134637100D01*
X188552809Y-134637718D02*
X188552809Y-142437718D01*
X192052809Y-134637718D02*
X192052809Y-142437718D01*
X191143851Y-134644188D02*
X191143851Y-134830774D01*
X150671500Y-134733572D02*
X150679669Y-134738513D01*
X150674425Y-134733589D02*
X150671500Y-134733572D01*
X150674425Y-134733589D02*
X155680000Y-134733589D01*
X150679669Y-134738513D02*
X150680000Y-134740103D01*
X150680000Y-134740103D02*
X150680000Y-135230000D01*
X174002992Y-134746121D02*
X174710099Y-135453228D01*
X179094161Y-134746121D02*
X178387054Y-135453228D01*
X189461767Y-134830774D02*
X189461767Y-134644188D01*
X150345241Y-134855142D02*
X150030000Y-134577387D01*
X176510119Y-134917872D02*
X176522121Y-134935741D01*
X176510119Y-134917872D02*
X176522121Y-134935741D01*
X176522121Y-134935741D02*
X176526692Y-134952080D01*
X176522121Y-134935741D02*
X176526692Y-134952080D01*
X176526692Y-134952080D02*
X176526718Y-135030755D01*
X176526692Y-134952080D02*
X176526718Y-135030755D01*
X173790860Y-134958253D02*
X174002992Y-134746121D01*
X173790860Y-134958253D02*
X174497967Y-135665360D01*
X179306293Y-134958253D02*
X179094161Y-134746121D01*
X179306293Y-134958253D02*
X178599186Y-135665360D01*
X150580000Y-134970728D02*
X150580000Y-134715072D01*
X150680000Y-134979988D02*
X150675785Y-134979988D01*
X176526718Y-135030755D02*
X176523080Y-135092524D01*
X176526718Y-135030755D02*
X176523080Y-135092524D01*
X176149023Y-135046311D02*
X175863460Y-135331874D01*
X176274275Y-135062778D02*
X176410576Y-135056722D01*
X176523080Y-135092524D02*
X176518084Y-135164997D01*
X176523080Y-135092524D02*
X176518084Y-135164997D01*
X173649438Y-135099674D02*
X174356545Y-135806781D01*
X179447714Y-135099674D02*
X178740607Y-135806781D01*
X176947174Y-135110159D02*
X176813210Y-135143623D01*
X176244210Y-135141499D02*
X176149023Y-135046311D01*
X176813210Y-135143623D02*
X176823743Y-135234185D01*
X176813210Y-135143623D02*
X176823743Y-135234185D01*
X176518084Y-135164997D02*
X176515962Y-135222026D01*
X176518084Y-135164997D02*
X176515962Y-135222026D01*
X176515962Y-135222026D02*
X176534959Y-135328398D01*
X176515962Y-135222026D02*
X176534959Y-135328398D01*
X150680000Y-135230000D02*
X150679936Y-135233589D01*
X189861767Y-135230774D02*
X190743851Y-135230774D01*
X150679936Y-135233589D02*
X155690000Y-135233589D01*
X176823743Y-135234185D02*
X176814597Y-135268932D01*
X176823743Y-135234185D02*
X176814597Y-135268932D01*
X176149023Y-135236686D02*
X176244210Y-135141499D01*
X176814597Y-135268932D02*
X176794300Y-135298515D01*
X176814597Y-135268932D02*
X176794300Y-135298515D01*
X173437306Y-135311806D02*
X173649438Y-135099674D01*
X173437306Y-135311806D02*
X174144413Y-136018913D01*
X179659846Y-135311806D02*
X179447714Y-135099674D01*
X179659846Y-135311806D02*
X178952739Y-136018913D01*
X183322588Y-135317950D02*
X183322588Y-141617950D01*
X187847588Y-135317950D02*
X187847588Y-141617950D01*
X176534959Y-135328398D02*
X176582784Y-135398483D01*
X176534959Y-135328398D02*
X176582784Y-135398483D01*
X150234789Y-135330000D02*
X150580000Y-135330000D01*
X150515431Y-135330000D02*
X150515431Y-141530000D01*
X175863460Y-135331874D02*
X175958648Y-135427061D01*
X176053835Y-135331874D02*
X176488978Y-135767016D01*
X175958648Y-135427061D02*
X176053835Y-135331874D01*
X175746707Y-135448627D02*
X175647907Y-135547426D01*
X173295885Y-135453228D02*
X174002992Y-136160334D01*
X179801267Y-135453228D02*
X179094161Y-136160334D01*
X175647907Y-135547426D02*
X175896818Y-136038343D01*
X150173395Y-135580000D02*
X150030000Y-135580000D01*
X173083753Y-135665360D02*
X173295885Y-135453228D01*
X173083753Y-135665360D02*
X173790860Y-136372467D01*
X180013399Y-135665360D02*
X179801267Y-135453228D01*
X180013399Y-135665360D02*
X179306293Y-136372467D01*
X176584165Y-135671829D02*
X176149023Y-135236686D01*
X175878652Y-135707418D02*
X176270132Y-135985862D01*
X176488978Y-135767016D02*
X176584165Y-135671829D01*
X175405052Y-135790282D02*
X175307209Y-135888125D01*
X172942332Y-135806781D02*
X173649438Y-136513888D01*
X180154821Y-135806781D02*
X179447714Y-136513888D01*
X159202277Y-135817533D02*
X159202277Y-134017533D01*
X162702277Y-135817533D02*
X162702277Y-134017533D01*
X164052277Y-135817533D02*
X164052277Y-134017533D01*
X175307209Y-135888125D02*
X175747875Y-136508118D01*
X176366594Y-135889400D02*
X175746707Y-135448627D01*
X158452277Y-135917533D02*
X159102277Y-135917533D01*
X159102277Y-135917533D02*
X159202277Y-135817533D01*
X159802277Y-135917533D02*
X162602277Y-135917533D01*
X163302277Y-135917533D02*
X163952277Y-135917533D01*
X176270132Y-135985862D02*
X176366594Y-135889400D01*
X172730200Y-136018913D02*
X172942332Y-135806781D01*
X172730200Y-136018913D02*
X173437306Y-136726020D01*
X180366953Y-136018913D02*
X180154821Y-135806781D01*
X180366953Y-136018913D02*
X179659846Y-136726020D01*
X175565893Y-136020177D02*
X176011128Y-136244866D01*
X188542809Y-136037718D02*
X188542809Y-135537718D01*
X175896818Y-136038343D02*
X175405052Y-135790282D01*
X175137762Y-136128962D02*
X175037095Y-136149459D01*
X175137762Y-136128962D02*
X175037095Y-136149459D01*
X175200832Y-136141271D02*
X175137762Y-136128962D01*
X175200832Y-136141271D02*
X175137762Y-136128962D01*
X175037095Y-136149459D02*
X174971290Y-136196847D01*
X175037095Y-136149459D02*
X174971290Y-136196847D01*
X176103979Y-136152015D02*
X175878652Y-135707418D01*
X172588778Y-136160334D02*
X173295885Y-136867441D01*
X180508374Y-136160334D02*
X179801267Y-136867441D01*
X175271938Y-136181761D02*
X175200832Y-136141271D01*
X175271938Y-136181761D02*
X175200832Y-136141271D01*
X176011128Y-136244866D02*
X176103979Y-136152015D01*
X175176751Y-136276949D02*
X175271938Y-136181761D01*
X178100365Y-136344940D02*
X177841999Y-136603306D01*
X175231144Y-136358538D02*
X175152287Y-136410222D01*
X175231144Y-136358538D02*
X175152287Y-136410222D01*
X172376646Y-136372467D02*
X172588778Y-136160334D01*
X172376646Y-136372467D02*
X173083753Y-137079573D01*
X180720506Y-136372467D02*
X180508374Y-136160334D01*
X180720506Y-136372467D02*
X180013399Y-137079573D01*
X175537103Y-136392534D02*
X175441916Y-136487721D01*
X175082842Y-136408399D02*
X175063503Y-136394871D01*
X175082842Y-136408399D02*
X175063503Y-136394871D01*
X175152287Y-136410222D02*
X175105506Y-136415137D01*
X175152287Y-136410222D02*
X175105506Y-136415137D01*
X175844231Y-136411762D02*
X175565893Y-136020177D01*
X175105506Y-136415137D02*
X175082842Y-136408399D01*
X175105506Y-136415137D02*
X175082842Y-136408399D01*
X175319532Y-136446927D02*
X175231144Y-136358538D01*
X175747875Y-136508118D02*
X175844231Y-136411762D01*
X172235225Y-136513888D02*
X172942332Y-137220995D01*
X180861928Y-136513888D02*
X180154821Y-137220995D01*
X178100365Y-136535315D02*
X178202352Y-136637301D01*
X175253606Y-136548152D02*
X175319532Y-136446927D01*
X175253606Y-136548152D02*
X175319532Y-136446927D01*
X158202277Y-136567533D02*
X158202277Y-133267533D01*
X158202378Y-136572017D02*
X158202277Y-136567533D01*
X177841999Y-136603306D02*
X177937187Y-136698493D01*
X175248751Y-136608451D02*
X175253606Y-136548152D01*
X175248751Y-136608451D02*
X175253606Y-136548152D01*
X178202352Y-136637301D02*
X178039173Y-136800480D01*
X175258131Y-136637332D02*
X175248751Y-136608451D01*
X175258131Y-136637332D02*
X175248751Y-136608451D01*
X175276081Y-136661842D02*
X175258131Y-136637332D01*
X175276081Y-136661842D02*
X175258131Y-136637332D01*
X164102277Y-136667533D02*
X158302277Y-136667533D01*
X174707327Y-136672298D02*
X174759758Y-136675551D01*
X174707327Y-136672298D02*
X174759758Y-136675551D01*
X174759758Y-136675551D02*
X174829996Y-136718891D01*
X174759758Y-136675551D02*
X174829996Y-136718891D01*
X174661400Y-136697112D02*
X174707327Y-136672298D01*
X174661400Y-136697112D02*
X174707327Y-136672298D01*
X177937187Y-136698493D02*
X178100365Y-136535315D01*
X174829996Y-136718891D02*
X174925184Y-136623703D01*
X172023093Y-136726020D02*
X172235225Y-136513888D01*
X172023093Y-136726020D02*
X172730200Y-137433127D01*
X181074060Y-136726020D02*
X180861928Y-136513888D01*
X181074060Y-136726020D02*
X180366953Y-137433127D01*
X178297539Y-136732489D02*
X178535508Y-136970458D01*
X177689976Y-136755330D02*
X177542839Y-136902466D01*
X177835200Y-136786882D02*
X177689976Y-136755330D01*
X178039173Y-136800480D02*
X178134361Y-136895667D01*
X171881671Y-136867441D02*
X172588778Y-137574548D01*
X181215481Y-136867441D02*
X180508374Y-137574548D01*
X178630695Y-136875270D02*
X178100365Y-136344940D01*
X174768478Y-136890050D02*
X174662569Y-136837025D01*
X174768478Y-136890050D02*
X174662569Y-136837025D01*
X177726415Y-136895667D02*
X177835200Y-136786882D01*
X178134361Y-136895667D02*
X178297539Y-136732489D01*
X177542839Y-136902466D02*
X178073169Y-137432797D01*
X174919978Y-136905335D02*
X174768478Y-136890050D01*
X174919978Y-136905335D02*
X174768478Y-136890050D01*
X175244104Y-136915427D02*
X174919978Y-136905335D01*
X175292336Y-136963658D02*
X175244104Y-136915427D01*
X178535508Y-136970458D02*
X178630695Y-136875270D01*
X174910098Y-137042273D02*
X175028870Y-137050347D01*
X175028870Y-137050347D02*
X174850394Y-137228823D01*
X171669539Y-137079573D02*
X171881671Y-136867441D01*
X171669539Y-137079573D02*
X172376646Y-137786680D01*
X181427613Y-137079573D02*
X181215481Y-136867441D01*
X181427613Y-137079573D02*
X180720506Y-137786680D01*
X177387840Y-137174537D02*
X177263010Y-137182776D01*
X177387840Y-137174537D02*
X177263010Y-137182776D01*
X177263010Y-137182776D02*
X177180680Y-137237429D01*
X177263010Y-137182776D02*
X177180680Y-137237429D01*
X171528118Y-137220995D02*
X172235225Y-137928101D01*
X181569034Y-137220995D02*
X180861928Y-137928101D01*
X174850394Y-137228823D02*
X174938782Y-137317212D01*
X177511107Y-137230801D02*
X177387840Y-137174537D01*
X177511107Y-137230801D02*
X177387840Y-137174537D01*
X177180680Y-137237429D02*
X177139572Y-137289733D01*
X177180680Y-137237429D02*
X177139572Y-137289733D01*
X177139572Y-137289733D02*
X177114728Y-137351348D01*
X177139572Y-137289733D02*
X177114728Y-137351348D01*
X177347725Y-137306047D02*
X177423989Y-137333847D01*
X177347725Y-137306047D02*
X177423989Y-137333847D01*
X177307552Y-137312581D02*
X177347725Y-137306047D01*
X177307552Y-137312581D02*
X177347725Y-137306047D01*
X174938782Y-137317212D02*
X175292336Y-136963658D01*
X177423989Y-137333847D02*
X177549107Y-137439064D01*
X177423989Y-137333847D02*
X177549107Y-137439064D01*
X177273531Y-137334953D02*
X177307552Y-137312581D01*
X177273531Y-137334953D02*
X177307552Y-137312581D01*
X178168356Y-137337609D02*
X177726415Y-136895667D01*
X177643232Y-137342815D02*
X177511107Y-137230801D01*
X177643232Y-137342815D02*
X177511107Y-137230801D01*
X177114728Y-137351348D02*
X177110244Y-137417609D01*
X177114728Y-137351348D02*
X177110244Y-137417609D01*
X177252479Y-137368056D02*
X177273531Y-137334953D01*
X177252479Y-137368056D02*
X177273531Y-137334953D01*
X177247809Y-137407089D02*
X177252479Y-137368056D01*
X177247809Y-137407089D02*
X177252479Y-137368056D01*
X177110244Y-137417609D02*
X177124603Y-137482570D01*
X177110244Y-137417609D02*
X177124603Y-137482570D01*
X178073169Y-137432797D02*
X178168356Y-137337609D01*
X171315986Y-137433127D02*
X171528118Y-137220995D01*
X171315986Y-137433127D02*
X172023093Y-138140233D01*
X181781166Y-137433127D02*
X181569034Y-137220995D01*
X181781166Y-137433127D02*
X181074060Y-138140233D01*
X177549107Y-137439064D02*
X177646368Y-137558762D01*
X177549107Y-137439064D02*
X177646368Y-137558762D01*
X177730602Y-137441315D02*
X177643232Y-137342815D01*
X177730602Y-137441315D02*
X177643232Y-137342815D01*
X177272563Y-137481389D02*
X177247809Y-137407089D01*
X177272563Y-137481389D02*
X177247809Y-137407089D01*
X177124603Y-137482570D02*
X177189465Y-137598459D01*
X177124603Y-137482570D02*
X177189465Y-137598459D01*
X177793761Y-137556271D02*
X177730602Y-137441315D01*
X177793761Y-137556271D02*
X177730602Y-137441315D01*
X177646368Y-137558762D02*
X177668209Y-137632121D01*
X177646368Y-137558762D02*
X177668209Y-137632121D01*
X176925926Y-137590769D02*
X176825259Y-137611266D01*
X176925926Y-137590769D02*
X176825259Y-137611266D01*
X177189465Y-137598459D02*
X177277886Y-137698174D01*
X177189465Y-137598459D02*
X177277886Y-137698174D01*
X177373074Y-137602987D02*
X177272563Y-137481389D01*
X177373074Y-137602987D02*
X177272563Y-137481389D01*
X176988996Y-137603079D02*
X176925926Y-137590769D01*
X176988996Y-137603079D02*
X176925926Y-137590769D01*
X176825259Y-137611266D02*
X176759455Y-137658654D01*
X176825259Y-137611266D02*
X176759455Y-137658654D01*
X177807266Y-137620594D02*
X177793761Y-137556271D01*
X177807266Y-137620594D02*
X177793761Y-137556271D01*
X177668209Y-137632121D02*
X177661859Y-137670038D01*
X177668209Y-137632121D02*
X177661859Y-137670038D01*
X177060102Y-137643569D02*
X176988996Y-137603079D01*
X177060102Y-137643569D02*
X176988996Y-137603079D01*
X177442677Y-137665817D02*
X177373074Y-137602987D01*
X177442677Y-137665817D02*
X177373074Y-137602987D01*
X177661859Y-137670038D02*
X177640682Y-137702105D01*
X177661859Y-137670038D02*
X177640682Y-137702105D01*
X177802241Y-137686026D02*
X177807266Y-137620594D01*
X177802241Y-137686026D02*
X177807266Y-137620594D01*
X177277886Y-137698174D02*
X177377084Y-137786220D01*
X177277886Y-137698174D02*
X177377084Y-137786220D01*
X177546132Y-137723777D02*
X177442677Y-137665817D01*
X177546132Y-137723777D02*
X177442677Y-137665817D01*
X176964915Y-137738756D02*
X177060102Y-137643569D01*
X177776557Y-137746418D02*
X177802241Y-137686026D01*
X177776557Y-137746418D02*
X177802241Y-137686026D01*
X177377084Y-137786220D02*
X177492190Y-137851233D01*
X177377084Y-137786220D02*
X177492190Y-137851233D01*
X177735445Y-137797717D02*
X177776557Y-137746418D01*
X177735445Y-137797717D02*
X177776557Y-137746418D01*
X177019308Y-137820345D02*
X176940451Y-137872029D01*
X177019308Y-137820345D02*
X176940451Y-137872029D01*
X177683696Y-137839035D02*
X177735445Y-137797717D01*
X177683696Y-137839035D02*
X177735445Y-137797717D01*
X177492190Y-137851233D02*
X177556539Y-137866884D01*
X177492190Y-137851233D02*
X177556539Y-137866884D01*
X177325267Y-137854341D02*
X177230080Y-137949528D01*
X177622564Y-137864126D02*
X177683696Y-137839035D01*
X177622564Y-137864126D02*
X177683696Y-137839035D01*
X177556539Y-137866884D02*
X177622564Y-137864126D01*
X177556539Y-137866884D02*
X177622564Y-137864126D01*
X176871006Y-137870206D02*
X176851667Y-137856678D01*
X176871006Y-137870206D02*
X176851667Y-137856678D01*
X176940451Y-137872029D02*
X176893670Y-137876944D01*
X176940451Y-137872029D02*
X176893670Y-137876944D01*
X176893670Y-137876944D02*
X176871006Y-137870206D01*
X176893670Y-137876944D02*
X176871006Y-137870206D01*
X177107696Y-137908734D02*
X177019308Y-137820345D01*
X177041770Y-138009959D02*
X177107696Y-137908734D01*
X177041770Y-138009959D02*
X177107696Y-137908734D01*
X158902003Y-138059000D02*
X159091106Y-138059000D01*
X159631170Y-138059000D02*
X159665124Y-138059000D01*
X159714503Y-138059000D02*
X159759375Y-138059000D01*
X163490000Y-138060000D02*
X158610000Y-138060000D01*
X163490000Y-138060000D02*
X163890000Y-138060000D01*
X163890000Y-138060000D02*
X165830000Y-138060000D01*
X165830000Y-138060000D02*
X166130000Y-138360000D01*
X177036916Y-138070258D02*
X177041770Y-138009959D01*
X177036916Y-138070258D02*
X177041770Y-138009959D01*
X177046296Y-138099139D02*
X177036916Y-138070258D01*
X177046296Y-138099139D02*
X177036916Y-138070258D01*
X177064246Y-138123649D02*
X177046296Y-138099139D01*
X177064246Y-138123649D02*
X177046296Y-138099139D01*
X158510000Y-138160000D02*
X158510000Y-143040000D01*
X176239323Y-138178786D02*
X176135568Y-138352176D01*
X176239323Y-138178786D02*
X176135568Y-138352176D01*
X176135568Y-138352176D02*
X176118639Y-138510667D01*
X176135568Y-138352176D02*
X176118639Y-138510667D01*
X166130000Y-138360000D02*
X166130000Y-142840000D01*
X176276234Y-138365003D02*
X176338229Y-138270255D01*
X176276234Y-138365003D02*
X176338229Y-138270255D01*
X176255152Y-138507586D02*
X176276234Y-138365003D01*
X176255152Y-138507586D02*
X176276234Y-138365003D01*
X176118639Y-138510667D02*
X176255152Y-138507586D01*
X171648829Y-138514498D02*
X176498576Y-133664750D01*
X181448324Y-138514498D02*
X181448324Y-138614498D01*
X171648829Y-138614498D02*
X171648829Y-138514498D01*
X176123372Y-138696495D02*
X176080075Y-138635282D01*
X176123372Y-138696495D02*
X176080075Y-138635282D01*
X176468049Y-138720483D02*
X176471449Y-138859227D01*
X159180000Y-138730000D02*
X159180000Y-139930000D01*
X162920000Y-138730000D02*
X159180000Y-138730000D01*
X176145729Y-138789112D02*
X176123372Y-138696495D01*
X176145729Y-138789112D02*
X176123372Y-138696495D01*
X176245031Y-138792608D02*
X176145729Y-138789112D01*
X176245031Y-138792608D02*
X176145729Y-138789112D01*
X176669237Y-138825512D02*
X176798337Y-138734825D01*
X176669237Y-138825512D02*
X176798337Y-138734825D01*
X176354058Y-138854872D02*
X176245031Y-138792608D01*
X176354058Y-138854872D02*
X176245031Y-138792608D01*
X176471449Y-138859227D02*
X176669237Y-138825512D01*
X176471449Y-138859227D02*
X176669237Y-138825512D01*
X175571099Y-138874207D02*
X175285536Y-139159769D01*
X175775603Y-138942729D02*
X175855782Y-138992435D01*
X175775603Y-138942729D02*
X175855782Y-138992435D01*
X175666286Y-138969394D02*
X175571099Y-138874207D01*
X175855782Y-138992435D02*
X175929327Y-139005514D01*
X175855782Y-138992435D02*
X175929327Y-139005514D01*
X159461801Y-139011801D02*
X159461801Y-139648198D01*
X160098198Y-139011801D02*
X159461801Y-139011801D01*
X162001801Y-139011801D02*
X162001801Y-139648198D01*
X162638198Y-139011801D02*
X162001801Y-139011801D01*
X164541801Y-139011801D02*
X164541801Y-139648198D01*
X165178198Y-139011801D02*
X164541801Y-139011801D01*
X175571099Y-139064581D02*
X175666286Y-138969394D01*
X175285536Y-139159769D02*
X175380724Y-139254956D01*
X175475911Y-139159769D02*
X175911054Y-139594912D01*
X175380724Y-139254956D02*
X175475911Y-139159769D01*
X175049692Y-139368416D02*
X175008154Y-139495368D01*
X175008154Y-139495368D02*
X175282243Y-139584607D01*
X175449140Y-139498449D02*
X175049692Y-139368416D01*
X176006241Y-139499724D02*
X175571099Y-139064581D01*
X175527483Y-139527659D02*
X175449140Y-139498449D01*
X175527483Y-139527659D02*
X175449140Y-139498449D01*
X175616037Y-139585457D02*
X175527483Y-139527659D01*
X175616037Y-139585457D02*
X175527483Y-139527659D01*
X175911054Y-139594912D02*
X176006241Y-139499724D01*
X159461801Y-139648198D02*
X160098198Y-139648198D01*
X160098198Y-139648198D02*
X160098198Y-139011801D01*
X162001801Y-139648198D02*
X162638198Y-139648198D01*
X162638198Y-139648198D02*
X162638198Y-139011801D01*
X164541801Y-139648198D02*
X165178198Y-139648198D01*
X165178198Y-139648198D02*
X165178198Y-139011801D01*
X171315986Y-139695868D02*
X172023093Y-138988762D01*
X181781166Y-139695868D02*
X181074060Y-138988762D01*
X171528118Y-139908000D02*
X172235225Y-139200894D01*
X171528118Y-139908000D02*
X171315986Y-139695868D01*
X181569034Y-139908000D02*
X180861928Y-139200894D01*
X181569034Y-139908000D02*
X181781166Y-139695868D01*
X159180000Y-139930000D02*
X162920000Y-139930000D01*
X162920000Y-139930000D02*
X162920000Y-138730000D01*
X171669539Y-140049422D02*
X172376646Y-139342315D01*
X181427613Y-140049422D02*
X180720506Y-139342315D01*
X158509000Y-140141472D02*
X158509000Y-139952369D01*
X171881671Y-140261554D02*
X172588778Y-139554447D01*
X171881671Y-140261554D02*
X171669539Y-140049422D01*
X181215481Y-140261554D02*
X180508374Y-139554447D01*
X181215481Y-140261554D02*
X181427613Y-140049422D01*
X172023093Y-140402975D02*
X172730200Y-139695868D01*
X181074060Y-140402975D02*
X180366953Y-139695868D01*
X163590000Y-140500000D02*
X163590000Y-138160000D01*
X163590000Y-140500000D02*
X158521400Y-140500000D01*
X172235225Y-140615107D02*
X172942332Y-139908000D01*
X172235225Y-140615107D02*
X172023093Y-140402975D01*
X180861928Y-140615107D02*
X180154821Y-139908000D01*
X180861928Y-140615107D02*
X181074060Y-140402975D01*
X158521400Y-140700000D02*
X163590000Y-140700000D01*
X172376646Y-140756529D02*
X173083753Y-140049422D01*
X180720506Y-140756529D02*
X180013399Y-140049422D01*
X172588778Y-140968661D02*
X173295885Y-140261554D01*
X172588778Y-140968661D02*
X172376646Y-140756529D01*
X180508374Y-140968661D02*
X179801267Y-140261554D01*
X180508374Y-140968661D02*
X180720506Y-140756529D01*
X188542809Y-141037718D02*
X188542809Y-141537718D01*
X172730200Y-141110082D02*
X173437306Y-140402975D01*
X180366953Y-141110082D02*
X179659846Y-140402975D01*
X159180000Y-141270000D02*
X159180000Y-142470000D01*
X162920000Y-141270000D02*
X159180000Y-141270000D01*
X150030000Y-141280000D02*
X150030000Y-135580000D01*
X150173395Y-141280000D02*
X150173395Y-135580000D01*
X150173395Y-141280000D02*
X150030000Y-141280000D01*
X172942332Y-141322214D02*
X173649438Y-140615107D01*
X172942332Y-141322214D02*
X172730200Y-141110082D01*
X180154821Y-141322214D02*
X179447714Y-140615107D01*
X180154821Y-141322214D02*
X180366953Y-141110082D01*
X173083753Y-141463635D02*
X173790860Y-140756529D01*
X180013399Y-141463635D02*
X179306293Y-140756529D01*
X150234789Y-141530000D02*
X150580000Y-141530000D01*
X159461801Y-141551801D02*
X159461801Y-142188198D01*
X160098198Y-141551801D02*
X159461801Y-141551801D01*
X162001801Y-141551801D02*
X162001801Y-142188198D01*
X162638198Y-141551801D02*
X162001801Y-141551801D01*
X164541801Y-141551801D02*
X164541801Y-142188198D01*
X165178198Y-141551801D02*
X164541801Y-141551801D01*
X150658825Y-141568464D02*
X150658825Y-135291535D01*
X182897588Y-141617950D02*
X182897588Y-135317950D01*
X187422588Y-141617950D02*
X187422588Y-135317950D01*
X150679936Y-141626410D02*
X155690000Y-141626410D01*
X150680000Y-141630000D02*
X150679936Y-141626410D01*
X173295885Y-141675767D02*
X174002992Y-140968661D01*
X173295885Y-141675767D02*
X173083753Y-141463635D01*
X179801267Y-141675767D02*
X179094161Y-140968661D01*
X179801267Y-141675767D02*
X180013399Y-141463635D01*
X173437306Y-141817189D02*
X174144413Y-141110082D01*
X179659846Y-141817189D02*
X178952739Y-141110082D01*
X150680000Y-141880011D02*
X150675785Y-141880011D01*
X155690000Y-141880011D02*
X155690000Y-134979988D01*
X150580000Y-141889271D02*
X150580000Y-142144927D01*
X150345241Y-142004857D02*
X150030000Y-142282612D01*
X173649438Y-142029321D02*
X174356545Y-141322214D01*
X173649438Y-142029321D02*
X173437306Y-141817189D01*
X179447714Y-142029321D02*
X178740607Y-141322214D01*
X179447714Y-142029321D02*
X179659846Y-141817189D01*
X150680000Y-142119896D02*
X150680000Y-141630000D01*
X150679669Y-142121486D02*
X150680000Y-142119896D01*
X150674425Y-142126410D02*
X155680000Y-142126410D01*
X150674425Y-142126410D02*
X150671500Y-142126427D01*
X155680000Y-142126410D02*
X155680000Y-134733589D01*
X150671500Y-142126427D02*
X150679669Y-142121486D01*
X173790860Y-142170742D02*
X174497967Y-141463635D01*
X179306293Y-142170742D02*
X178599186Y-141463635D01*
X159461801Y-142188198D02*
X160098198Y-142188198D01*
X160098198Y-142188198D02*
X160098198Y-141551801D01*
X162001801Y-142188198D02*
X162638198Y-142188198D01*
X162638198Y-142188198D02*
X162638198Y-141551801D01*
X164541801Y-142188198D02*
X165178198Y-142188198D01*
X165178198Y-142188198D02*
X165178198Y-141551801D01*
X150030000Y-142282612D02*
X150192892Y-142467487D01*
X150380469Y-142302215D02*
X150217578Y-142117340D01*
X174002992Y-142382874D02*
X174710099Y-141675767D01*
X174002992Y-142382874D02*
X173790860Y-142170742D01*
X179094161Y-142382874D02*
X178387054Y-141675767D01*
X179094161Y-142382874D02*
X179306293Y-142170742D01*
X192052809Y-142437718D02*
X192052807Y-142438337D01*
X188552811Y-142438337D02*
X188552809Y-142437718D01*
X192052804Y-142438666D02*
X192052809Y-142437718D01*
X150192892Y-142467487D02*
X150509153Y-142188833D01*
X159180000Y-142470000D02*
X162920000Y-142470000D01*
X162920000Y-142470000D02*
X162920000Y-141270000D01*
X174144413Y-142524296D02*
X174851520Y-141817189D01*
X178952739Y-142524296D02*
X178245632Y-141817189D01*
X188652809Y-142537718D02*
X188652190Y-142537717D01*
X188652809Y-142537718D02*
X191952809Y-142537718D01*
X174356545Y-142736428D02*
X175063652Y-142029321D01*
X174356545Y-142736428D02*
X174144413Y-142524296D01*
X178740607Y-142736428D02*
X178033500Y-142029321D01*
X178740607Y-142736428D02*
X178952739Y-142524296D01*
X166130000Y-142840000D02*
X165830000Y-143140000D01*
X174497967Y-142877849D02*
X175205073Y-142170742D01*
X178599186Y-142877849D02*
X177892079Y-142170742D01*
X163590000Y-143040000D02*
X163590000Y-140700000D01*
X174710099Y-143089981D02*
X175417205Y-142382874D01*
X174710099Y-143089981D02*
X174497967Y-142877849D01*
X178387054Y-143089981D02*
X177679947Y-142382874D01*
X178387054Y-143089981D02*
X178599186Y-142877849D01*
X158610000Y-143140000D02*
X163490000Y-143140000D01*
X163890000Y-143140000D02*
X163490000Y-143140000D01*
X165830000Y-143140000D02*
X163890000Y-143140000D01*
X174851520Y-143231402D02*
X175558627Y-142524296D01*
X178245632Y-143231402D02*
X177538526Y-142524296D01*
X175063652Y-143443534D02*
X175770759Y-142736428D01*
X175063652Y-143443534D02*
X174851520Y-143231402D01*
X178033500Y-143443534D02*
X177326394Y-142736428D01*
X178033500Y-143443534D02*
X178245632Y-143231402D01*
X176498576Y-143464245D02*
X171648829Y-138614498D01*
X176498576Y-143464245D02*
X176598576Y-143464245D01*
X176598576Y-143464245D02*
X181448324Y-138614498D01*
X195520000Y-143570000D02*
X195520000Y-133290000D01*
X198180000Y-143570000D02*
X195520000Y-143570000D01*
X175205073Y-143584956D02*
X175912180Y-142877849D01*
X177892079Y-143584956D02*
X177184972Y-142877849D01*
X175417205Y-143797088D02*
X176124312Y-143089981D01*
X175417205Y-143797088D02*
X175205073Y-143584956D01*
X177679947Y-143797088D02*
X176972840Y-143089981D01*
X177679947Y-143797088D02*
X177892079Y-143584956D01*
X151130000Y-144780000D02*
X151130000Y-147320000D01*
X201930000Y-144780000D02*
X151130000Y-144780000D01*
X151130000Y-147320000D02*
X201930000Y-147320000D01*
X201930000Y-147320000D02*
X201930000Y-144780000D01*
X149955000Y-149805000D02*
X203105000Y-149805000D01*
X203105000Y-149805000D02*
X203105000Y-127055000D01*
X158202277Y-133267533D02*
G75*
G02*
X158302277Y-133167477I100023J33D01*
G01*
X164102277Y-133167533D02*
G75*
G02*
X164202267Y-133267533I23J-99967D01*
G01*
X158352277Y-134017533D02*
G75*
G02*
X158452277Y-133917477I100023J33D01*
G01*
X159702277Y-134017533D02*
G75*
G02*
X159802277Y-133917477I100023J33D01*
G01*
X163202277Y-134017533D02*
G75*
G02*
X163302277Y-133917477I100023J33D01*
G01*
X159102277Y-133917533D02*
G75*
G02*
X159202267Y-134017533I23J-99967D01*
G01*
X162602277Y-133917533D02*
G75*
G02*
X162702267Y-134017533I23J-99967D01*
G01*
X163952277Y-133917533D02*
G75*
G02*
X164052267Y-134017533I23J-99967D01*
G01*
X188552811Y-134637100D02*
G75*
G02*
X188652189Y-134537711I99989J-600D01*
G01*
X189461767Y-134644188D02*
G75*
G02*
X189661768Y-134621794I150633J-441012D01*
G01*
X191953428Y-134537720D02*
G75*
G02*
X192052780Y-134637099I-628J-99980D01*
G01*
X190943851Y-134621800D02*
G75*
G02*
X191143857Y-134644170I51449J-445300D01*
G01*
X150671500Y-134733572D02*
G75*
G02*
X150509144Y-134671176I2900J249972D01*
G01*
X176336210Y-134831927D02*
G75*
G02*
X176609869Y-134827257I139120J-131873D01*
G01*
X189861767Y-135230774D02*
G75*
G02*
X189461826Y-134830774I33J399974D01*
G01*
X176274275Y-135062778D02*
G75*
G02*
X176336230Y-134831945I253925J55578D01*
G01*
X150675785Y-134979988D02*
G75*
G02*
X150345249Y-134855132I15J499988D01*
G01*
X176432460Y-134926052D02*
G75*
G02*
X176510118Y-134917874I42940J-34948D01*
G01*
X176410576Y-135056722D02*
G75*
G02*
X176432439Y-134926035I127024J45922D01*
G01*
X176609874Y-134827253D02*
G75*
G02*
X176662359Y-135147024I-286074J-211147D01*
G01*
X176683496Y-135308820D02*
G75*
G02*
X176662324Y-135147015I182904J106220D01*
G01*
X191143851Y-134830774D02*
G75*
G02*
X190743851Y-135230771I-400001J4D01*
G01*
X176794300Y-135298515D02*
G75*
G02*
X176683503Y-135308813I-60600J50815D01*
G01*
X183322588Y-135317950D02*
G75*
G02*
X187422588Y-135317950I2050000J0D01*
G01*
X182897588Y-135317950D02*
G75*
G02*
X187847588Y-135317950I2475000J0D01*
G01*
X150030000Y-135580000D02*
G75*
G02*
X150234783Y-135329950I229900J20600D01*
G01*
X150173395Y-135580000D02*
G75*
G02*
X150378176Y-135329945I229905J20600D01*
G01*
X150679936Y-135233589D02*
G75*
G02*
X150580001Y-135330000I-99936J3589D01*
G01*
X176947174Y-135110159D02*
G75*
G02*
X176893009Y-135390214I-229174J-100941D01*
G01*
X176892993Y-135390197D02*
G75*
G02*
X176582789Y-135398479I-158953J140097D01*
G01*
X158452277Y-135917533D02*
G75*
G02*
X158352267Y-135817533I23J100033D01*
G01*
X159802277Y-135917533D02*
G75*
G02*
X159702267Y-135817533I23J100033D01*
G01*
X163302277Y-135917533D02*
G75*
G02*
X163202267Y-135817533I23J100033D01*
G01*
X162702277Y-135817533D02*
G75*
G02*
X162602277Y-135917477I-99977J33D01*
G01*
X164052277Y-135817533D02*
G75*
G02*
X163952277Y-135917477I-99977J33D01*
G01*
X174962260Y-136484003D02*
G75*
G02*
X174971245Y-136196797I145140J139203D01*
G01*
X175067115Y-136291397D02*
G75*
G02*
X175176738Y-136276972I64485J-66303D01*
G01*
X175063503Y-136394871D02*
G75*
G02*
X175067103Y-136291382I49897J50071D01*
G01*
X175144349Y-136524160D02*
G75*
G02*
X174962273Y-136483991I-59649J162360D01*
G01*
X175181850Y-136757986D02*
G75*
G02*
X175144328Y-136524149I131850J141086D01*
G01*
X158302277Y-136667533D02*
G75*
G02*
X158202267Y-136567533I23J100033D01*
G01*
X174560688Y-136925520D02*
G75*
G02*
X174560811Y-136607359I156112J159020D01*
G01*
X174560794Y-136607343D02*
G75*
G02*
X174925175Y-136623711I174506J-179257D01*
G01*
X175441916Y-136487721D02*
G75*
G02*
X175437071Y-136655830I-88316J-81579D01*
G01*
X175437029Y-136655786D02*
G75*
G02*
X175276117Y-136661806I-83329J73786D01*
G01*
X164202277Y-136567533D02*
G75*
G02*
X164102277Y-136667477I-99977J33D01*
G01*
X174662569Y-136837025D02*
G75*
G02*
X174661373Y-136697085I64331J70525D01*
G01*
X175537103Y-136392534D02*
G75*
G02*
X175537417Y-136745765I-169303J-176766D01*
G01*
X175537422Y-136745768D02*
G75*
G02*
X175181852Y-136757985I-183652J164638D01*
G01*
X174910098Y-137042273D02*
G75*
G02*
X174560662Y-136925552I-22698J513473D01*
G01*
X176750425Y-137945810D02*
G75*
G02*
X176759498Y-137658702I145175J139110D01*
G01*
X177640682Y-137702105D02*
G75*
G02*
X177546147Y-137723733I-64682J65305D01*
G01*
X176855279Y-137753204D02*
G75*
G02*
X176964923Y-137738741I64521J-66296D01*
G01*
X176851667Y-137856678D02*
G75*
G02*
X176855259Y-137753180I49933J50078D01*
G01*
X176932513Y-137985967D02*
G75*
G02*
X176750463Y-137945772I-59613J162367D01*
G01*
X176970014Y-138219793D02*
G75*
G02*
X176932490Y-137985956I131886J141093D01*
G01*
X158510000Y-138160000D02*
G75*
G02*
X158610000Y-138060000I100000J0D01*
G01*
X177230080Y-137949528D02*
G75*
G02*
X177225230Y-138117632I-88380J-81572D01*
G01*
X177225193Y-138117594D02*
G75*
G02*
X177064216Y-138123679I-83393J73794D01*
G01*
X163490000Y-138060000D02*
G75*
G02*
X163590000Y-138160000I0J-100000D01*
G01*
X176239323Y-138178786D02*
G75*
G02*
X176794096Y-138179841I276877J-268414D01*
G01*
X177325267Y-137854341D02*
G75*
G02*
X177325575Y-138207563I-169367J-176759D01*
G01*
X177325586Y-138207576D02*
G75*
G02*
X176970011Y-138219797I-183656J164636D01*
G01*
X176338229Y-138270255D02*
G75*
G02*
X176698689Y-138274822I178021J-176645D01*
G01*
X175777728Y-138640381D02*
G75*
G02*
X176080099Y-138635259I153572J-138319D01*
G01*
X176698688Y-138274823D02*
G75*
G02*
X176703576Y-138639215I-167588J-184477D01*
G01*
X175775603Y-138942729D02*
G75*
G02*
X175777765Y-138640422I144297J150129D01*
G01*
X176703574Y-138639213D02*
G75*
G02*
X176468053Y-138720447I-203274J207313D01*
G01*
X175875359Y-138852109D02*
G75*
G02*
X175875231Y-138733207I54041J59509D01*
G01*
X176794088Y-138179848D02*
G75*
G02*
X176798333Y-138734820I-254888J-279452D01*
G01*
X175875252Y-138733231D02*
G75*
G02*
X175991715Y-138737244I56348J-56669D01*
G01*
X175995830Y-138857421D02*
G75*
G02*
X175875386Y-138852086I-57730J58921D01*
G01*
X175991687Y-138737268D02*
G75*
G02*
X175995804Y-138857395I-55387J-62032D01*
G01*
X176089743Y-138953884D02*
G75*
G02*
X176250228Y-138941496I86357J-73016D01*
G01*
X176082413Y-139113556D02*
G75*
G02*
X176089777Y-138953921I80887J76256D01*
G01*
X175993706Y-139215224D02*
G75*
G02*
X175929319Y-139005513I158894J163524D01*
G01*
X176250265Y-138941454D02*
G75*
G02*
X176240494Y-139102299I-81865J-75746D01*
G01*
X176240492Y-139102295D02*
G75*
G02*
X176082443Y-139113526I-84092J65695D01*
G01*
X176354058Y-138854872D02*
G75*
G02*
X176334738Y-139198459I-156658J-163528D01*
G01*
X176334723Y-139198439D02*
G75*
G02*
X175993701Y-139215229I-178073J145189D01*
G01*
X175290423Y-139912557D02*
G75*
G02*
X175282241Y-139584605I155477J167957D01*
G01*
X175380193Y-139811952D02*
G75*
G02*
X175375175Y-139668403I65507J74152D01*
G01*
X175375200Y-139668427D02*
G75*
G02*
X175516151Y-139675991I66800J-72273D01*
G01*
X175524461Y-139818326D02*
G75*
G02*
X175380151Y-139811989I-69061J73626D01*
G01*
X175516175Y-139675970D02*
G75*
G02*
X175524493Y-139818354I-66675J-75330D01*
G01*
X175617843Y-139915319D02*
G75*
G02*
X175290437Y-139912544I-162343J161819D01*
G01*
X175616037Y-139585457D02*
G75*
G02*
X175617853Y-139915330I-163737J-165843D01*
G01*
X150234789Y-141529999D02*
G75*
G02*
X150030052Y-141280005I25111J229399D01*
G01*
X150378183Y-141529999D02*
G75*
G02*
X150173451Y-141280005I25117J229399D01*
G01*
X187847588Y-141617950D02*
G75*
G02*
X182897592Y-141617950I-2474998J0D01*
G01*
X187422588Y-141617950D02*
G75*
G02*
X183322592Y-141617950I-2049998J0D01*
G01*
X150580000Y-141529999D02*
G75*
G02*
X150679937Y-141626410I0J-100001D01*
G01*
X150345241Y-142004857D02*
G75*
G02*
X150675785Y-141879998I330559J-375143D01*
G01*
X150509153Y-142188833D02*
G75*
G02*
X150671500Y-142126441I165247J-187567D01*
G01*
X188652190Y-142537717D02*
G75*
G02*
X188552783Y-142438337I610J100017D01*
G01*
X192052807Y-142438337D02*
G75*
G02*
X191953428Y-142537707I-100007J637D01*
G01*
X158610000Y-143140000D02*
G75*
G02*
X158510000Y-143040000I0J100000D01*
G01*
X163589999Y-143040000D02*
G75*
G02*
X163490000Y-143139999I-99999J0D01*
G01*
X180798576Y-138564498D02*
G75*
G02*
X180298576Y-138564498I-250000J0D01*
G01*
X180298576Y-138564498D02*
G75*
G02*
X180798576Y-138564498I250000J0D01*
G01*
X190728685Y-141589145D02*
G75*
G02*
X189876933Y-141589145I-425876J0D01*
G01*
X189876933Y-141589145D02*
G75*
G02*
X190728685Y-141589145I425876J0D01*
G01*
D10*
X197203060Y-134881620D02*
X196695060Y-134881620D01*
X196695060Y-134373620D01*
X197203060Y-134373620D01*
X197203060Y-134881620D01*
G36*
X197203060Y-134881620D02*
G01*
X196695060Y-134881620D01*
X196695060Y-134373620D01*
X197203060Y-134373620D01*
X197203060Y-134881620D01*
G37*
X197203060Y-137421620D02*
X196695060Y-137421620D01*
X196695060Y-136913620D01*
X197203060Y-136913620D01*
X197203060Y-137421620D01*
G36*
X197203060Y-137421620D02*
G01*
X196695060Y-137421620D01*
X196695060Y-136913620D01*
X197203060Y-136913620D01*
X197203060Y-137421620D01*
G37*
X197203060Y-139961620D02*
X196695060Y-139961620D01*
X196695060Y-139453620D01*
X197203060Y-139453620D01*
X197203060Y-139961620D01*
G36*
X197203060Y-139961620D02*
G01*
X196695060Y-139961620D01*
X196695060Y-139453620D01*
X197203060Y-139453620D01*
X197203060Y-139961620D01*
G37*
X197203060Y-142501620D02*
X196695060Y-142501620D01*
X196695060Y-141993620D01*
X197203060Y-141993620D01*
X197203060Y-142501620D01*
G36*
X197203060Y-142501620D02*
G01*
X196695060Y-142501620D01*
X196695060Y-141993620D01*
X197203060Y-141993620D01*
X197203060Y-142501620D01*
G37*
D14*
%TO.C,J1*%
X214105000Y-147430000D02*
X214105000Y-146050000D01*
X212725000Y-147430000D02*
X214105000Y-147430000D01*
X211455000Y-147430000D02*
X203725000Y-147430000D01*
X211455000Y-147430000D02*
X211455000Y-144670000D01*
X203725000Y-147430000D02*
X203725000Y-144670000D01*
X211455000Y-144670000D02*
X203725000Y-144670000D01*
%TD*%
M02*
