%TF.GenerationSoftware,KiCad,Pcbnew,9.0.5*%
%TF.CreationDate,2025-11-18T06:46:22-05:00*%
%TF.ProjectId,switchboard,73776974-6368-4626-9f61-72642e6b6963,rev?*%
%TF.SameCoordinates,Original*%
%TF.FileFunction,Legend,Top*%
%TF.FilePolarity,Positive*%
%FSLAX46Y46*%
G04 Gerber Fmt 4.6, Leading zero omitted, Abs format (unit mm)*
G04 Created by KiCad (PCBNEW 9.0.5) date 2025-11-18 06:46:22*
%MOMM*%
%LPD*%
G01*
G04 APERTURE LIST*
%ADD10C,0.150000*%
%ADD11C,0.120000*%
%ADD12C,0.508000*%
%ADD13C,0.254000*%
G04 APERTURE END LIST*
D10*
X217479714Y-138924819D02*
X217479714Y-137924819D01*
X217479714Y-137924819D02*
X217717809Y-137924819D01*
X217717809Y-137924819D02*
X217860666Y-137972438D01*
X217860666Y-137972438D02*
X217955904Y-138067676D01*
X217955904Y-138067676D02*
X218003523Y-138162914D01*
X218003523Y-138162914D02*
X218051142Y-138353390D01*
X218051142Y-138353390D02*
X218051142Y-138496247D01*
X218051142Y-138496247D02*
X218003523Y-138686723D01*
X218003523Y-138686723D02*
X217955904Y-138781961D01*
X217955904Y-138781961D02*
X217860666Y-138877200D01*
X217860666Y-138877200D02*
X217717809Y-138924819D01*
X217717809Y-138924819D02*
X217479714Y-138924819D01*
X218432095Y-138020057D02*
X218479714Y-137972438D01*
X218479714Y-137972438D02*
X218574952Y-137924819D01*
X218574952Y-137924819D02*
X218813047Y-137924819D01*
X218813047Y-137924819D02*
X218908285Y-137972438D01*
X218908285Y-137972438D02*
X218955904Y-138020057D01*
X218955904Y-138020057D02*
X219003523Y-138115295D01*
X219003523Y-138115295D02*
X219003523Y-138210533D01*
X219003523Y-138210533D02*
X218955904Y-138353390D01*
X218955904Y-138353390D02*
X218384476Y-138924819D01*
X218384476Y-138924819D02*
X219003523Y-138924819D01*
X219622571Y-137924819D02*
X219717809Y-137924819D01*
X219717809Y-137924819D02*
X219813047Y-137972438D01*
X219813047Y-137972438D02*
X219860666Y-138020057D01*
X219860666Y-138020057D02*
X219908285Y-138115295D01*
X219908285Y-138115295D02*
X219955904Y-138305771D01*
X219955904Y-138305771D02*
X219955904Y-138543866D01*
X219955904Y-138543866D02*
X219908285Y-138734342D01*
X219908285Y-138734342D02*
X219860666Y-138829580D01*
X219860666Y-138829580D02*
X219813047Y-138877200D01*
X219813047Y-138877200D02*
X219717809Y-138924819D01*
X219717809Y-138924819D02*
X219622571Y-138924819D01*
X219622571Y-138924819D02*
X219527333Y-138877200D01*
X219527333Y-138877200D02*
X219479714Y-138829580D01*
X219479714Y-138829580D02*
X219432095Y-138734342D01*
X219432095Y-138734342D02*
X219384476Y-138543866D01*
X219384476Y-138543866D02*
X219384476Y-138305771D01*
X219384476Y-138305771D02*
X219432095Y-138115295D01*
X219432095Y-138115295D02*
X219479714Y-138020057D01*
X219479714Y-138020057D02*
X219527333Y-137972438D01*
X219527333Y-137972438D02*
X219622571Y-137924819D01*
X102490181Y-135126667D02*
X101775896Y-135126667D01*
X101775896Y-135126667D02*
X101633039Y-135079048D01*
X101633039Y-135079048D02*
X101537801Y-134983810D01*
X101537801Y-134983810D02*
X101490181Y-134840953D01*
X101490181Y-134840953D02*
X101490181Y-134745715D01*
X102394943Y-135555239D02*
X102442562Y-135602858D01*
X102442562Y-135602858D02*
X102490181Y-135698096D01*
X102490181Y-135698096D02*
X102490181Y-135936191D01*
X102490181Y-135936191D02*
X102442562Y-136031429D01*
X102442562Y-136031429D02*
X102394943Y-136079048D01*
X102394943Y-136079048D02*
X102299705Y-136126667D01*
X102299705Y-136126667D02*
X102204467Y-136126667D01*
X102204467Y-136126667D02*
X102061610Y-136079048D01*
X102061610Y-136079048D02*
X101490181Y-135507620D01*
X101490181Y-135507620D02*
X101490181Y-136126667D01*
X91164819Y-102568333D02*
X91879104Y-102568333D01*
X91879104Y-102568333D02*
X92021961Y-102615952D01*
X92021961Y-102615952D02*
X92117200Y-102711190D01*
X92117200Y-102711190D02*
X92164819Y-102854047D01*
X92164819Y-102854047D02*
X92164819Y-102949285D01*
X91164819Y-102187380D02*
X91164819Y-101568333D01*
X91164819Y-101568333D02*
X91545771Y-101901666D01*
X91545771Y-101901666D02*
X91545771Y-101758809D01*
X91545771Y-101758809D02*
X91593390Y-101663571D01*
X91593390Y-101663571D02*
X91641009Y-101615952D01*
X91641009Y-101615952D02*
X91736247Y-101568333D01*
X91736247Y-101568333D02*
X91974342Y-101568333D01*
X91974342Y-101568333D02*
X92069580Y-101615952D01*
X92069580Y-101615952D02*
X92117200Y-101663571D01*
X92117200Y-101663571D02*
X92164819Y-101758809D01*
X92164819Y-101758809D02*
X92164819Y-102044523D01*
X92164819Y-102044523D02*
X92117200Y-102139761D01*
X92117200Y-102139761D02*
X92069580Y-102187380D01*
X214581633Y-113071700D02*
X214724490Y-113119319D01*
X214724490Y-113119319D02*
X214962585Y-113119319D01*
X214962585Y-113119319D02*
X215057823Y-113071700D01*
X215057823Y-113071700D02*
X215105442Y-113024080D01*
X215105442Y-113024080D02*
X215153061Y-112928842D01*
X215153061Y-112928842D02*
X215153061Y-112833604D01*
X215153061Y-112833604D02*
X215105442Y-112738366D01*
X215105442Y-112738366D02*
X215057823Y-112690747D01*
X215057823Y-112690747D02*
X214962585Y-112643128D01*
X214962585Y-112643128D02*
X214772109Y-112595509D01*
X214772109Y-112595509D02*
X214676871Y-112547890D01*
X214676871Y-112547890D02*
X214629252Y-112500271D01*
X214629252Y-112500271D02*
X214581633Y-112405033D01*
X214581633Y-112405033D02*
X214581633Y-112309795D01*
X214581633Y-112309795D02*
X214629252Y-112214557D01*
X214629252Y-112214557D02*
X214676871Y-112166938D01*
X214676871Y-112166938D02*
X214772109Y-112119319D01*
X214772109Y-112119319D02*
X215010204Y-112119319D01*
X215010204Y-112119319D02*
X215153061Y-112166938D01*
X215486395Y-112119319D02*
X215724490Y-113119319D01*
X215724490Y-113119319D02*
X215914966Y-112405033D01*
X215914966Y-112405033D02*
X216105442Y-113119319D01*
X216105442Y-113119319D02*
X216343538Y-112119319D01*
X217153061Y-112119319D02*
X216962585Y-112119319D01*
X216962585Y-112119319D02*
X216867347Y-112166938D01*
X216867347Y-112166938D02*
X216819728Y-112214557D01*
X216819728Y-112214557D02*
X216724490Y-112357414D01*
X216724490Y-112357414D02*
X216676871Y-112547890D01*
X216676871Y-112547890D02*
X216676871Y-112928842D01*
X216676871Y-112928842D02*
X216724490Y-113024080D01*
X216724490Y-113024080D02*
X216772109Y-113071700D01*
X216772109Y-113071700D02*
X216867347Y-113119319D01*
X216867347Y-113119319D02*
X217057823Y-113119319D01*
X217057823Y-113119319D02*
X217153061Y-113071700D01*
X217153061Y-113071700D02*
X217200680Y-113024080D01*
X217200680Y-113024080D02*
X217248299Y-112928842D01*
X217248299Y-112928842D02*
X217248299Y-112690747D01*
X217248299Y-112690747D02*
X217200680Y-112595509D01*
X217200680Y-112595509D02*
X217153061Y-112547890D01*
X217153061Y-112547890D02*
X217057823Y-112500271D01*
X217057823Y-112500271D02*
X216867347Y-112500271D01*
X216867347Y-112500271D02*
X216772109Y-112547890D01*
X216772109Y-112547890D02*
X216724490Y-112595509D01*
X216724490Y-112595509D02*
X216676871Y-112690747D01*
X263666767Y-138349490D02*
X263714386Y-138206633D01*
X263714386Y-138206633D02*
X263714386Y-137968538D01*
X263714386Y-137968538D02*
X263666767Y-137873300D01*
X263666767Y-137873300D02*
X263619147Y-137825681D01*
X263619147Y-137825681D02*
X263523909Y-137778062D01*
X263523909Y-137778062D02*
X263428671Y-137778062D01*
X263428671Y-137778062D02*
X263333433Y-137825681D01*
X263333433Y-137825681D02*
X263285814Y-137873300D01*
X263285814Y-137873300D02*
X263238195Y-137968538D01*
X263238195Y-137968538D02*
X263190576Y-138159014D01*
X263190576Y-138159014D02*
X263142957Y-138254252D01*
X263142957Y-138254252D02*
X263095338Y-138301871D01*
X263095338Y-138301871D02*
X263000100Y-138349490D01*
X263000100Y-138349490D02*
X262904862Y-138349490D01*
X262904862Y-138349490D02*
X262809624Y-138301871D01*
X262809624Y-138301871D02*
X262762005Y-138254252D01*
X262762005Y-138254252D02*
X262714386Y-138159014D01*
X262714386Y-138159014D02*
X262714386Y-137920919D01*
X262714386Y-137920919D02*
X262762005Y-137778062D01*
X262714386Y-137444728D02*
X263714386Y-137206633D01*
X263714386Y-137206633D02*
X263000100Y-137016157D01*
X263000100Y-137016157D02*
X263714386Y-136825681D01*
X263714386Y-136825681D02*
X262714386Y-136587586D01*
X263714386Y-135682824D02*
X263714386Y-136254252D01*
X263714386Y-135968538D02*
X262714386Y-135968538D01*
X262714386Y-135968538D02*
X262857243Y-136063776D01*
X262857243Y-136063776D02*
X262952481Y-136159014D01*
X262952481Y-136159014D02*
X263000100Y-136254252D01*
X262714386Y-135063776D02*
X262714386Y-134968538D01*
X262714386Y-134968538D02*
X262762005Y-134873300D01*
X262762005Y-134873300D02*
X262809624Y-134825681D01*
X262809624Y-134825681D02*
X262904862Y-134778062D01*
X262904862Y-134778062D02*
X263095338Y-134730443D01*
X263095338Y-134730443D02*
X263333433Y-134730443D01*
X263333433Y-134730443D02*
X263523909Y-134778062D01*
X263523909Y-134778062D02*
X263619147Y-134825681D01*
X263619147Y-134825681D02*
X263666767Y-134873300D01*
X263666767Y-134873300D02*
X263714386Y-134968538D01*
X263714386Y-134968538D02*
X263714386Y-135063776D01*
X263714386Y-135063776D02*
X263666767Y-135159014D01*
X263666767Y-135159014D02*
X263619147Y-135206633D01*
X263619147Y-135206633D02*
X263523909Y-135254252D01*
X263523909Y-135254252D02*
X263333433Y-135301871D01*
X263333433Y-135301871D02*
X263095338Y-135301871D01*
X263095338Y-135301871D02*
X262904862Y-135254252D01*
X262904862Y-135254252D02*
X262809624Y-135206633D01*
X262809624Y-135206633D02*
X262762005Y-135159014D01*
X262762005Y-135159014D02*
X262714386Y-135063776D01*
X265381633Y-113071700D02*
X265524490Y-113119319D01*
X265524490Y-113119319D02*
X265762585Y-113119319D01*
X265762585Y-113119319D02*
X265857823Y-113071700D01*
X265857823Y-113071700D02*
X265905442Y-113024080D01*
X265905442Y-113024080D02*
X265953061Y-112928842D01*
X265953061Y-112928842D02*
X265953061Y-112833604D01*
X265953061Y-112833604D02*
X265905442Y-112738366D01*
X265905442Y-112738366D02*
X265857823Y-112690747D01*
X265857823Y-112690747D02*
X265762585Y-112643128D01*
X265762585Y-112643128D02*
X265572109Y-112595509D01*
X265572109Y-112595509D02*
X265476871Y-112547890D01*
X265476871Y-112547890D02*
X265429252Y-112500271D01*
X265429252Y-112500271D02*
X265381633Y-112405033D01*
X265381633Y-112405033D02*
X265381633Y-112309795D01*
X265381633Y-112309795D02*
X265429252Y-112214557D01*
X265429252Y-112214557D02*
X265476871Y-112166938D01*
X265476871Y-112166938D02*
X265572109Y-112119319D01*
X265572109Y-112119319D02*
X265810204Y-112119319D01*
X265810204Y-112119319D02*
X265953061Y-112166938D01*
X266286395Y-112119319D02*
X266524490Y-113119319D01*
X266524490Y-113119319D02*
X266714966Y-112405033D01*
X266714966Y-112405033D02*
X266905442Y-113119319D01*
X266905442Y-113119319D02*
X267143538Y-112119319D01*
X267667347Y-112547890D02*
X267572109Y-112500271D01*
X267572109Y-112500271D02*
X267524490Y-112452652D01*
X267524490Y-112452652D02*
X267476871Y-112357414D01*
X267476871Y-112357414D02*
X267476871Y-112309795D01*
X267476871Y-112309795D02*
X267524490Y-112214557D01*
X267524490Y-112214557D02*
X267572109Y-112166938D01*
X267572109Y-112166938D02*
X267667347Y-112119319D01*
X267667347Y-112119319D02*
X267857823Y-112119319D01*
X267857823Y-112119319D02*
X267953061Y-112166938D01*
X267953061Y-112166938D02*
X268000680Y-112214557D01*
X268000680Y-112214557D02*
X268048299Y-112309795D01*
X268048299Y-112309795D02*
X268048299Y-112357414D01*
X268048299Y-112357414D02*
X268000680Y-112452652D01*
X268000680Y-112452652D02*
X267953061Y-112500271D01*
X267953061Y-112500271D02*
X267857823Y-112547890D01*
X267857823Y-112547890D02*
X267667347Y-112547890D01*
X267667347Y-112547890D02*
X267572109Y-112595509D01*
X267572109Y-112595509D02*
X267524490Y-112643128D01*
X267524490Y-112643128D02*
X267476871Y-112738366D01*
X267476871Y-112738366D02*
X267476871Y-112928842D01*
X267476871Y-112928842D02*
X267524490Y-113024080D01*
X267524490Y-113024080D02*
X267572109Y-113071700D01*
X267572109Y-113071700D02*
X267667347Y-113119319D01*
X267667347Y-113119319D02*
X267857823Y-113119319D01*
X267857823Y-113119319D02*
X267953061Y-113071700D01*
X267953061Y-113071700D02*
X268000680Y-113024080D01*
X268000680Y-113024080D02*
X268048299Y-112928842D01*
X268048299Y-112928842D02*
X268048299Y-112738366D01*
X268048299Y-112738366D02*
X268000680Y-112643128D01*
X268000680Y-112643128D02*
X267953061Y-112595509D01*
X267953061Y-112595509D02*
X267857823Y-112547890D01*
X239981633Y-113071700D02*
X240124490Y-113119319D01*
X240124490Y-113119319D02*
X240362585Y-113119319D01*
X240362585Y-113119319D02*
X240457823Y-113071700D01*
X240457823Y-113071700D02*
X240505442Y-113024080D01*
X240505442Y-113024080D02*
X240553061Y-112928842D01*
X240553061Y-112928842D02*
X240553061Y-112833604D01*
X240553061Y-112833604D02*
X240505442Y-112738366D01*
X240505442Y-112738366D02*
X240457823Y-112690747D01*
X240457823Y-112690747D02*
X240362585Y-112643128D01*
X240362585Y-112643128D02*
X240172109Y-112595509D01*
X240172109Y-112595509D02*
X240076871Y-112547890D01*
X240076871Y-112547890D02*
X240029252Y-112500271D01*
X240029252Y-112500271D02*
X239981633Y-112405033D01*
X239981633Y-112405033D02*
X239981633Y-112309795D01*
X239981633Y-112309795D02*
X240029252Y-112214557D01*
X240029252Y-112214557D02*
X240076871Y-112166938D01*
X240076871Y-112166938D02*
X240172109Y-112119319D01*
X240172109Y-112119319D02*
X240410204Y-112119319D01*
X240410204Y-112119319D02*
X240553061Y-112166938D01*
X240886395Y-112119319D02*
X241124490Y-113119319D01*
X241124490Y-113119319D02*
X241314966Y-112405033D01*
X241314966Y-112405033D02*
X241505442Y-113119319D01*
X241505442Y-113119319D02*
X241743538Y-112119319D01*
X242029252Y-112119319D02*
X242695918Y-112119319D01*
X242695918Y-112119319D02*
X242267347Y-113119319D01*
X189181633Y-113071700D02*
X189324490Y-113119319D01*
X189324490Y-113119319D02*
X189562585Y-113119319D01*
X189562585Y-113119319D02*
X189657823Y-113071700D01*
X189657823Y-113071700D02*
X189705442Y-113024080D01*
X189705442Y-113024080D02*
X189753061Y-112928842D01*
X189753061Y-112928842D02*
X189753061Y-112833604D01*
X189753061Y-112833604D02*
X189705442Y-112738366D01*
X189705442Y-112738366D02*
X189657823Y-112690747D01*
X189657823Y-112690747D02*
X189562585Y-112643128D01*
X189562585Y-112643128D02*
X189372109Y-112595509D01*
X189372109Y-112595509D02*
X189276871Y-112547890D01*
X189276871Y-112547890D02*
X189229252Y-112500271D01*
X189229252Y-112500271D02*
X189181633Y-112405033D01*
X189181633Y-112405033D02*
X189181633Y-112309795D01*
X189181633Y-112309795D02*
X189229252Y-112214557D01*
X189229252Y-112214557D02*
X189276871Y-112166938D01*
X189276871Y-112166938D02*
X189372109Y-112119319D01*
X189372109Y-112119319D02*
X189610204Y-112119319D01*
X189610204Y-112119319D02*
X189753061Y-112166938D01*
X190086395Y-112119319D02*
X190324490Y-113119319D01*
X190324490Y-113119319D02*
X190514966Y-112405033D01*
X190514966Y-112405033D02*
X190705442Y-113119319D01*
X190705442Y-113119319D02*
X190943538Y-112119319D01*
X191800680Y-112119319D02*
X191324490Y-112119319D01*
X191324490Y-112119319D02*
X191276871Y-112595509D01*
X191276871Y-112595509D02*
X191324490Y-112547890D01*
X191324490Y-112547890D02*
X191419728Y-112500271D01*
X191419728Y-112500271D02*
X191657823Y-112500271D01*
X191657823Y-112500271D02*
X191753061Y-112547890D01*
X191753061Y-112547890D02*
X191800680Y-112595509D01*
X191800680Y-112595509D02*
X191848299Y-112690747D01*
X191848299Y-112690747D02*
X191848299Y-112928842D01*
X191848299Y-112928842D02*
X191800680Y-113024080D01*
X191800680Y-113024080D02*
X191753061Y-113071700D01*
X191753061Y-113071700D02*
X191657823Y-113119319D01*
X191657823Y-113119319D02*
X191419728Y-113119319D01*
X191419728Y-113119319D02*
X191324490Y-113071700D01*
X191324490Y-113071700D02*
X191276871Y-113024080D01*
X163781633Y-113071700D02*
X163924490Y-113119319D01*
X163924490Y-113119319D02*
X164162585Y-113119319D01*
X164162585Y-113119319D02*
X164257823Y-113071700D01*
X164257823Y-113071700D02*
X164305442Y-113024080D01*
X164305442Y-113024080D02*
X164353061Y-112928842D01*
X164353061Y-112928842D02*
X164353061Y-112833604D01*
X164353061Y-112833604D02*
X164305442Y-112738366D01*
X164305442Y-112738366D02*
X164257823Y-112690747D01*
X164257823Y-112690747D02*
X164162585Y-112643128D01*
X164162585Y-112643128D02*
X163972109Y-112595509D01*
X163972109Y-112595509D02*
X163876871Y-112547890D01*
X163876871Y-112547890D02*
X163829252Y-112500271D01*
X163829252Y-112500271D02*
X163781633Y-112405033D01*
X163781633Y-112405033D02*
X163781633Y-112309795D01*
X163781633Y-112309795D02*
X163829252Y-112214557D01*
X163829252Y-112214557D02*
X163876871Y-112166938D01*
X163876871Y-112166938D02*
X163972109Y-112119319D01*
X163972109Y-112119319D02*
X164210204Y-112119319D01*
X164210204Y-112119319D02*
X164353061Y-112166938D01*
X164686395Y-112119319D02*
X164924490Y-113119319D01*
X164924490Y-113119319D02*
X165114966Y-112405033D01*
X165114966Y-112405033D02*
X165305442Y-113119319D01*
X165305442Y-113119319D02*
X165543538Y-112119319D01*
X166353061Y-112452652D02*
X166353061Y-113119319D01*
X166114966Y-112071700D02*
X165876871Y-112785985D01*
X165876871Y-112785985D02*
X166495918Y-112785985D01*
X138381633Y-113071700D02*
X138524490Y-113119319D01*
X138524490Y-113119319D02*
X138762585Y-113119319D01*
X138762585Y-113119319D02*
X138857823Y-113071700D01*
X138857823Y-113071700D02*
X138905442Y-113024080D01*
X138905442Y-113024080D02*
X138953061Y-112928842D01*
X138953061Y-112928842D02*
X138953061Y-112833604D01*
X138953061Y-112833604D02*
X138905442Y-112738366D01*
X138905442Y-112738366D02*
X138857823Y-112690747D01*
X138857823Y-112690747D02*
X138762585Y-112643128D01*
X138762585Y-112643128D02*
X138572109Y-112595509D01*
X138572109Y-112595509D02*
X138476871Y-112547890D01*
X138476871Y-112547890D02*
X138429252Y-112500271D01*
X138429252Y-112500271D02*
X138381633Y-112405033D01*
X138381633Y-112405033D02*
X138381633Y-112309795D01*
X138381633Y-112309795D02*
X138429252Y-112214557D01*
X138429252Y-112214557D02*
X138476871Y-112166938D01*
X138476871Y-112166938D02*
X138572109Y-112119319D01*
X138572109Y-112119319D02*
X138810204Y-112119319D01*
X138810204Y-112119319D02*
X138953061Y-112166938D01*
X139286395Y-112119319D02*
X139524490Y-113119319D01*
X139524490Y-113119319D02*
X139714966Y-112405033D01*
X139714966Y-112405033D02*
X139905442Y-113119319D01*
X139905442Y-113119319D02*
X140143538Y-112119319D01*
X140429252Y-112119319D02*
X141048299Y-112119319D01*
X141048299Y-112119319D02*
X140714966Y-112500271D01*
X140714966Y-112500271D02*
X140857823Y-112500271D01*
X140857823Y-112500271D02*
X140953061Y-112547890D01*
X140953061Y-112547890D02*
X141000680Y-112595509D01*
X141000680Y-112595509D02*
X141048299Y-112690747D01*
X141048299Y-112690747D02*
X141048299Y-112928842D01*
X141048299Y-112928842D02*
X141000680Y-113024080D01*
X141000680Y-113024080D02*
X140953061Y-113071700D01*
X140953061Y-113071700D02*
X140857823Y-113119319D01*
X140857823Y-113119319D02*
X140572109Y-113119319D01*
X140572109Y-113119319D02*
X140476871Y-113071700D01*
X140476871Y-113071700D02*
X140429252Y-113024080D01*
X112981633Y-113071700D02*
X113124490Y-113119319D01*
X113124490Y-113119319D02*
X113362585Y-113119319D01*
X113362585Y-113119319D02*
X113457823Y-113071700D01*
X113457823Y-113071700D02*
X113505442Y-113024080D01*
X113505442Y-113024080D02*
X113553061Y-112928842D01*
X113553061Y-112928842D02*
X113553061Y-112833604D01*
X113553061Y-112833604D02*
X113505442Y-112738366D01*
X113505442Y-112738366D02*
X113457823Y-112690747D01*
X113457823Y-112690747D02*
X113362585Y-112643128D01*
X113362585Y-112643128D02*
X113172109Y-112595509D01*
X113172109Y-112595509D02*
X113076871Y-112547890D01*
X113076871Y-112547890D02*
X113029252Y-112500271D01*
X113029252Y-112500271D02*
X112981633Y-112405033D01*
X112981633Y-112405033D02*
X112981633Y-112309795D01*
X112981633Y-112309795D02*
X113029252Y-112214557D01*
X113029252Y-112214557D02*
X113076871Y-112166938D01*
X113076871Y-112166938D02*
X113172109Y-112119319D01*
X113172109Y-112119319D02*
X113410204Y-112119319D01*
X113410204Y-112119319D02*
X113553061Y-112166938D01*
X113886395Y-112119319D02*
X114124490Y-113119319D01*
X114124490Y-113119319D02*
X114314966Y-112405033D01*
X114314966Y-112405033D02*
X114505442Y-113119319D01*
X114505442Y-113119319D02*
X114743538Y-112119319D01*
X115076871Y-112214557D02*
X115124490Y-112166938D01*
X115124490Y-112166938D02*
X115219728Y-112119319D01*
X115219728Y-112119319D02*
X115457823Y-112119319D01*
X115457823Y-112119319D02*
X115553061Y-112166938D01*
X115553061Y-112166938D02*
X115600680Y-112214557D01*
X115600680Y-112214557D02*
X115648299Y-112309795D01*
X115648299Y-112309795D02*
X115648299Y-112405033D01*
X115648299Y-112405033D02*
X115600680Y-112547890D01*
X115600680Y-112547890D02*
X115029252Y-113119319D01*
X115029252Y-113119319D02*
X115648299Y-113119319D01*
X87581633Y-113071700D02*
X87724490Y-113119319D01*
X87724490Y-113119319D02*
X87962585Y-113119319D01*
X87962585Y-113119319D02*
X88057823Y-113071700D01*
X88057823Y-113071700D02*
X88105442Y-113024080D01*
X88105442Y-113024080D02*
X88153061Y-112928842D01*
X88153061Y-112928842D02*
X88153061Y-112833604D01*
X88153061Y-112833604D02*
X88105442Y-112738366D01*
X88105442Y-112738366D02*
X88057823Y-112690747D01*
X88057823Y-112690747D02*
X87962585Y-112643128D01*
X87962585Y-112643128D02*
X87772109Y-112595509D01*
X87772109Y-112595509D02*
X87676871Y-112547890D01*
X87676871Y-112547890D02*
X87629252Y-112500271D01*
X87629252Y-112500271D02*
X87581633Y-112405033D01*
X87581633Y-112405033D02*
X87581633Y-112309795D01*
X87581633Y-112309795D02*
X87629252Y-112214557D01*
X87629252Y-112214557D02*
X87676871Y-112166938D01*
X87676871Y-112166938D02*
X87772109Y-112119319D01*
X87772109Y-112119319D02*
X88010204Y-112119319D01*
X88010204Y-112119319D02*
X88153061Y-112166938D01*
X88486395Y-112119319D02*
X88724490Y-113119319D01*
X88724490Y-113119319D02*
X88914966Y-112405033D01*
X88914966Y-112405033D02*
X89105442Y-113119319D01*
X89105442Y-113119319D02*
X89343538Y-112119319D01*
X90248299Y-113119319D02*
X89676871Y-113119319D01*
X89962585Y-113119319D02*
X89962585Y-112119319D01*
X89962585Y-112119319D02*
X89867347Y-112262176D01*
X89867347Y-112262176D02*
X89772109Y-112357414D01*
X89772109Y-112357414D02*
X89676871Y-112405033D01*
X83609819Y-112513060D02*
X82609819Y-112513060D01*
X82609819Y-112513060D02*
X82609819Y-112132108D01*
X82609819Y-112132108D02*
X82657438Y-112036870D01*
X82657438Y-112036870D02*
X82705057Y-111989251D01*
X82705057Y-111989251D02*
X82800295Y-111941632D01*
X82800295Y-111941632D02*
X82943152Y-111941632D01*
X82943152Y-111941632D02*
X83038390Y-111989251D01*
X83038390Y-111989251D02*
X83086009Y-112036870D01*
X83086009Y-112036870D02*
X83133628Y-112132108D01*
X83133628Y-112132108D02*
X83133628Y-112513060D01*
X83609819Y-110989251D02*
X83609819Y-111560679D01*
X83609819Y-111274965D02*
X82609819Y-111274965D01*
X82609819Y-111274965D02*
X82752676Y-111370203D01*
X82752676Y-111370203D02*
X82847914Y-111465441D01*
X82847914Y-111465441D02*
X82895533Y-111560679D01*
D11*
%TO.C,D20*%
X215184000Y-142620000D02*
X220694000Y-142620000D01*
X215184000Y-139320000D02*
X220694000Y-139320000D01*
X215184000Y-139320000D02*
X215184000Y-142620000D01*
D10*
%TO.C,D4*%
X166114966Y-106355000D02*
X163424966Y-106355000D01*
X163424966Y-108275000D02*
X166114966Y-108275000D01*
X163424966Y-106355000D02*
X163424966Y-108275000D01*
D12*
%TO.C,J2*%
X106426000Y-148115001D02*
G75*
G02*
X105664000Y-148115001I-381000J0D01*
G01*
X105664000Y-148115001D02*
G75*
G02*
X106426000Y-148115001I381000J0D01*
G01*
D11*
%TO.C,J3*%
X92710000Y-107890000D02*
X92710000Y-106620000D01*
X93980000Y-107890000D02*
X92710000Y-107890000D01*
X96090000Y-105542642D02*
X96090000Y-105230000D01*
X96950000Y-105542642D02*
X96950000Y-105230000D01*
X98630000Y-105542642D02*
X98630000Y-105230000D01*
X99490000Y-105542642D02*
X99490000Y-105230000D01*
X93550000Y-105460000D02*
X93550000Y-105230000D01*
X94410000Y-105460000D02*
X94410000Y-105230000D01*
X92600000Y-105230000D02*
X100440000Y-105230000D01*
X95250000Y-105230000D02*
X95250000Y-102470000D01*
X97790000Y-105230000D02*
X97790000Y-102470000D01*
X100440000Y-105230000D02*
X100440000Y-102470000D01*
X92600000Y-102470000D02*
X92600000Y-105230000D01*
X96090000Y-102470000D02*
X96090000Y-96470000D01*
X98630000Y-102470000D02*
X98630000Y-96470000D01*
X100440000Y-102470000D02*
X92600000Y-102470000D01*
X96090000Y-96470000D02*
X96950000Y-96470000D01*
X96950000Y-96470000D02*
X96950000Y-102470000D01*
X98630000Y-96470000D02*
X99490000Y-96470000D01*
X99490000Y-96470000D02*
X99490000Y-102470000D01*
X93550000Y-102470000D02*
X94410000Y-102470000D01*
X94410000Y-96470000D01*
X93550000Y-96470000D01*
X93550000Y-102470000D01*
G36*
X93550000Y-102470000D02*
G01*
X94410000Y-102470000D01*
X94410000Y-96470000D01*
X93550000Y-96470000D01*
X93550000Y-102470000D01*
G37*
D10*
%TO.C,D8*%
X267700000Y-106355000D02*
X265010000Y-106355000D01*
X265010000Y-108275000D02*
X267700000Y-108275000D01*
X265010000Y-106355000D02*
X265010000Y-108275000D01*
D13*
%TO.C,SW6*%
X216498000Y-123011500D02*
G75*
G02*
X215302000Y-122998500I-595759J212655D01*
G01*
X219350000Y-113615000D02*
X219350000Y-126415000D01*
X216200000Y-121115000D02*
X216500000Y-123015000D01*
X215600000Y-121115000D02*
X215300000Y-123015000D01*
X212450000Y-126415000D02*
X219350000Y-126415000D01*
X212450000Y-113615000D02*
X219350000Y-113615000D01*
X212450000Y-113615000D02*
X212450000Y-126415000D01*
D10*
%TO.C,U2*%
X113998000Y-143338000D02*
X113998000Y-143248000D01*
X117818000Y-143338000D02*
X113998000Y-143338000D01*
X117818000Y-143338000D02*
X117818000Y-143248000D01*
X113998000Y-138338000D02*
X113998000Y-138428000D01*
X113998000Y-138338000D02*
X117818000Y-138338000D01*
X117818000Y-138338000D02*
X117818000Y-138428000D01*
X118188000Y-143338000D02*
G75*
G02*
X118128000Y-143338000I-30000J0D01*
G01*
X118128000Y-143338000D02*
G75*
G02*
X118188000Y-143338000I30000J0D01*
G01*
D13*
%TO.C,SW10*%
X264290000Y-144825000D02*
X264290000Y-128225000D01*
X274190000Y-144825000D02*
X264290000Y-144825000D01*
X275691000Y-143553000D02*
X274190000Y-143553000D01*
X275691000Y-143553000D02*
X275691000Y-142203000D01*
X275691000Y-142203000D02*
X274190000Y-142203000D01*
X275691000Y-141013000D02*
X274190000Y-141013000D01*
X275691000Y-141013000D02*
X275691000Y-139663000D01*
X275691000Y-139663000D02*
X274190000Y-139663000D01*
X275691000Y-138473000D02*
X274190000Y-138473000D01*
X275691000Y-138473000D02*
X275691000Y-137123000D01*
X275691000Y-137123000D02*
X274190000Y-137123000D01*
X275691000Y-135933000D02*
X274190000Y-135933000D01*
X275691000Y-135933000D02*
X275691000Y-134583000D01*
X275691000Y-134583000D02*
X274190000Y-134583000D01*
X275691000Y-133393000D02*
X274190000Y-133393000D01*
X275691000Y-133393000D02*
X275691000Y-132043000D01*
X275691000Y-132043000D02*
X274190000Y-132043000D01*
X275691000Y-130853000D02*
X274190000Y-130853000D01*
X275691000Y-130853000D02*
X275691000Y-129503000D01*
X275691000Y-129503000D02*
X274190000Y-129503000D01*
X264290000Y-128225000D02*
X274190000Y-128225000D01*
X274190000Y-128225000D02*
X274190000Y-144825000D01*
%TO.C,SW8*%
X263250000Y-113615000D02*
X263250000Y-126415000D01*
X263250000Y-113615000D02*
X270150000Y-113615000D01*
X263250000Y-126415000D02*
X270150000Y-126415000D01*
X266400000Y-121115000D02*
X266100000Y-123015000D01*
X267000000Y-121115000D02*
X267300000Y-123015000D01*
X270150000Y-113615000D02*
X270150000Y-126415000D01*
X267298000Y-123011500D02*
G75*
G02*
X266102000Y-122998500I-595759J212655D01*
G01*
%TO.C,SW7*%
X237850000Y-113615000D02*
X237850000Y-126415000D01*
X237850000Y-113615000D02*
X244750000Y-113615000D01*
X237850000Y-126415000D02*
X244750000Y-126415000D01*
X241000000Y-121115000D02*
X240700000Y-123015000D01*
X241600000Y-121115000D02*
X241900000Y-123015000D01*
X244750000Y-113615000D02*
X244750000Y-126415000D01*
X241898000Y-123011500D02*
G75*
G02*
X240702000Y-122998500I-595759J212655D01*
G01*
%TO.C,SW5*%
X187050000Y-113615000D02*
X187050000Y-126415000D01*
X187050000Y-113615000D02*
X193950000Y-113615000D01*
X187050000Y-126415000D02*
X193950000Y-126415000D01*
X190200000Y-121115000D02*
X189900000Y-123015000D01*
X190800000Y-121115000D02*
X191100000Y-123015000D01*
X193950000Y-113615000D02*
X193950000Y-126415000D01*
X191098000Y-123011500D02*
G75*
G02*
X189902000Y-122998500I-595759J212655D01*
G01*
%TO.C,SW4*%
X161650000Y-113615000D02*
X161650000Y-126415000D01*
X161650000Y-113615000D02*
X168550000Y-113615000D01*
X161650000Y-126415000D02*
X168550000Y-126415000D01*
X164800000Y-121115000D02*
X164500000Y-123015000D01*
X165400000Y-121115000D02*
X165700000Y-123015000D01*
X168550000Y-113615000D02*
X168550000Y-126415000D01*
X165698000Y-123011500D02*
G75*
G02*
X164502000Y-122998500I-595759J212655D01*
G01*
%TO.C,SW3*%
X136250000Y-113615000D02*
X136250000Y-126415000D01*
X136250000Y-113615000D02*
X143150000Y-113615000D01*
X136250000Y-126415000D02*
X143150000Y-126415000D01*
X139400000Y-121115000D02*
X139100000Y-123015000D01*
X140000000Y-121115000D02*
X140300000Y-123015000D01*
X143150000Y-113615000D02*
X143150000Y-126415000D01*
X140298000Y-123011500D02*
G75*
G02*
X139102000Y-122998500I-595759J212655D01*
G01*
%TO.C,SW2*%
X110850000Y-113615000D02*
X110850000Y-126415000D01*
X110850000Y-113615000D02*
X117750000Y-113615000D01*
X110850000Y-126415000D02*
X117750000Y-126415000D01*
X114000000Y-121115000D02*
X113700000Y-123015000D01*
X114600000Y-121115000D02*
X114900000Y-123015000D01*
X117750000Y-113615000D02*
X117750000Y-126415000D01*
X114898000Y-123011500D02*
G75*
G02*
X113702000Y-122998500I-595759J212655D01*
G01*
%TO.C,SW1*%
X85450000Y-113615000D02*
X85450000Y-126415000D01*
X85450000Y-113615000D02*
X92350000Y-113615000D01*
X85450000Y-126415000D02*
X92350000Y-126415000D01*
X88600000Y-121115000D02*
X88300000Y-123015000D01*
X89200000Y-121115000D02*
X89500000Y-123015000D01*
X92350000Y-113615000D02*
X92350000Y-126415000D01*
X89498000Y-123011500D02*
G75*
G02*
X88302000Y-122998500I-595759J212655D01*
G01*
D10*
%TO.C,Q8*%
X260350000Y-114010000D02*
X259700000Y-114010000D01*
X260350000Y-114010000D02*
X261000000Y-114010000D01*
X260350000Y-117130000D02*
X259700000Y-117130000D01*
X260350000Y-117130000D02*
X261000000Y-117130000D01*
D11*
X259187500Y-114060000D02*
X258947500Y-113730000D01*
X259427500Y-113730000D01*
X259187500Y-114060000D01*
G36*
X259187500Y-114060000D02*
G01*
X258947500Y-113730000D01*
X259427500Y-113730000D01*
X259187500Y-114060000D01*
G37*
D10*
%TO.C,Q7*%
X247650000Y-117130000D02*
X248300000Y-117130000D01*
X247650000Y-117130000D02*
X247000000Y-117130000D01*
X247650000Y-114010000D02*
X248300000Y-114010000D01*
X247650000Y-114010000D02*
X247000000Y-114010000D01*
D11*
X249052500Y-117410000D02*
X248572500Y-117410000D01*
X248812500Y-117080000D01*
X249052500Y-117410000D01*
G36*
X249052500Y-117410000D02*
G01*
X248572500Y-117410000D01*
X248812500Y-117080000D01*
X249052500Y-117410000D01*
G37*
D10*
%TO.C,Q6*%
X222580000Y-116815000D02*
X223230000Y-116815000D01*
X222580000Y-116815000D02*
X221930000Y-116815000D01*
X222580000Y-113695000D02*
X223230000Y-113695000D01*
X222580000Y-113695000D02*
X221930000Y-113695000D01*
D11*
X223982500Y-117095000D02*
X223502500Y-117095000D01*
X223742500Y-116765000D01*
X223982500Y-117095000D01*
G36*
X223982500Y-117095000D02*
G01*
X223502500Y-117095000D01*
X223742500Y-116765000D01*
X223982500Y-117095000D01*
G37*
D10*
%TO.C,Q5*%
X197180000Y-117450000D02*
X197830000Y-117450000D01*
X197180000Y-117450000D02*
X196530000Y-117450000D01*
X197180000Y-114330000D02*
X197830000Y-114330000D01*
X197180000Y-114330000D02*
X196530000Y-114330000D01*
D11*
X198582500Y-117730000D02*
X198102500Y-117730000D01*
X198342500Y-117400000D01*
X198582500Y-117730000D01*
G36*
X198582500Y-117730000D02*
G01*
X198102500Y-117730000D01*
X198342500Y-117400000D01*
X198582500Y-117730000D01*
G37*
D10*
%TO.C,Q4*%
X171755000Y-117130000D02*
X172405000Y-117130000D01*
X171755000Y-117130000D02*
X171105000Y-117130000D01*
X171755000Y-114010000D02*
X172405000Y-114010000D01*
X171755000Y-114010000D02*
X171105000Y-114010000D01*
D11*
X173157500Y-117410000D02*
X172677500Y-117410000D01*
X172917500Y-117080000D01*
X173157500Y-117410000D01*
G36*
X173157500Y-117410000D02*
G01*
X172677500Y-117410000D01*
X172917500Y-117080000D01*
X173157500Y-117410000D01*
G37*
D10*
%TO.C,Q3*%
X146355000Y-117130000D02*
X147005000Y-117130000D01*
X146355000Y-117130000D02*
X145705000Y-117130000D01*
X146355000Y-114010000D02*
X147005000Y-114010000D01*
X146355000Y-114010000D02*
X145705000Y-114010000D01*
D11*
X147757500Y-117410000D02*
X147277500Y-117410000D01*
X147517500Y-117080000D01*
X147757500Y-117410000D01*
G36*
X147757500Y-117410000D02*
G01*
X147277500Y-117410000D01*
X147517500Y-117080000D01*
X147757500Y-117410000D01*
G37*
D10*
%TO.C,Q2*%
X120955000Y-117130000D02*
X121605000Y-117130000D01*
X120955000Y-117130000D02*
X120305000Y-117130000D01*
X120955000Y-114010000D02*
X121605000Y-114010000D01*
X120955000Y-114010000D02*
X120305000Y-114010000D01*
D11*
X122357500Y-117410000D02*
X121877500Y-117410000D01*
X122117500Y-117080000D01*
X122357500Y-117410000D01*
G36*
X122357500Y-117410000D02*
G01*
X121877500Y-117410000D01*
X122117500Y-117080000D01*
X122357500Y-117410000D01*
G37*
D10*
%TO.C,Q1*%
X95555000Y-117130000D02*
X96205000Y-117130000D01*
X95555000Y-117130000D02*
X94905000Y-117130000D01*
X95555000Y-114010000D02*
X96205000Y-114010000D01*
X95555000Y-114010000D02*
X94905000Y-114010000D01*
D11*
X96957500Y-117410000D02*
X96477500Y-117410000D01*
X96717500Y-117080000D01*
X96957500Y-117410000D01*
G36*
X96957500Y-117410000D02*
G01*
X96477500Y-117410000D01*
X96717500Y-117080000D01*
X96957500Y-117410000D01*
G37*
D10*
%TO.C,D7*%
X239610000Y-106355000D02*
X239610000Y-108275000D01*
X239610000Y-108275000D02*
X242300000Y-108275000D01*
X242300000Y-106355000D02*
X239610000Y-106355000D01*
%TO.C,D6*%
X214224966Y-106355000D02*
X214224966Y-108275000D01*
X214224966Y-108275000D02*
X216914966Y-108275000D01*
X216914966Y-106355000D02*
X214224966Y-106355000D01*
%TO.C,D5*%
X188810000Y-106355000D02*
X188810000Y-108275000D01*
X188810000Y-108275000D02*
X191500000Y-108275000D01*
X191500000Y-106355000D02*
X188810000Y-106355000D01*
%TO.C,D3*%
X138024966Y-106355000D02*
X138024966Y-108275000D01*
X138024966Y-108275000D02*
X140714966Y-108275000D01*
X140714966Y-106355000D02*
X138024966Y-106355000D01*
%TO.C,D2*%
X112624966Y-106355000D02*
X112624966Y-108275000D01*
X112624966Y-108275000D02*
X115314966Y-108275000D01*
X115314966Y-106355000D02*
X112624966Y-106355000D01*
%TO.C,D1*%
X87224966Y-106355000D02*
X87224966Y-108275000D01*
X87224966Y-108275000D02*
X89914966Y-108275000D01*
X89914966Y-106355000D02*
X87224966Y-106355000D01*
D13*
%TO.C,P1*%
X76580000Y-101524000D02*
X67780000Y-101524000D01*
X76568500Y-101524000D02*
X76568500Y-122024000D01*
X67754500Y-101524000D02*
X67754500Y-122024000D01*
X77355500Y-102070000D02*
X77355500Y-102654000D01*
X76695500Y-102070000D02*
X77355500Y-102070000D01*
X77355500Y-102654000D02*
X76695500Y-102654000D01*
X69672000Y-109169000D02*
X67869000Y-109169000D01*
X67869000Y-109169000D02*
X67843500Y-109144000D01*
X69672000Y-109220000D02*
X69672000Y-114300000D01*
X69672000Y-114300000D02*
X67843500Y-114300000D01*
X67843500Y-114300000D02*
X67818000Y-114325500D01*
X76619000Y-118846500D02*
X77254000Y-119481500D01*
X77254000Y-119481500D02*
X76568500Y-120167500D01*
X76568500Y-120167500D02*
X76543000Y-120167500D01*
X77152500Y-120916500D02*
X77152500Y-121501000D01*
X76720500Y-120916500D02*
X77152500Y-120916500D01*
X77152500Y-121501000D02*
X76746000Y-121501000D01*
X76568500Y-122021500D02*
X67768000Y-122021500D01*
%TD*%
M02*
