M48
; DRILL file {KiCad 9.0.5} date 2025-11-18T06:46:18-0500
; FORMAT={-:-/ absolute / metric / decimal}
; #@! TF.CreationDate,2025-11-18T06:46:18-05:00
; #@! TF.GenerationSoftware,Kicad,Pcbnew,9.0.5
; #@! TF.FileFunction,Plated,1,4,PTH
FMAT,2
METRIC
; #@! TA.AperFunction,Plated,PTH,ViaDrill
T1C0.300
; #@! TA.AperFunction,Plated,PTH,ComponentDrill
T2C1.000
; #@! TA.AperFunction,Plated,PTH,ComponentDrill
T3C1.100
; #@! TA.AperFunction,Plated,PTH,ComponentDrill
T4C1.300
%
G90
G05
T1
X76.2Y-146.558
X76.454Y-113.538
X76.454Y-115.062
X79.756Y-137.414
X80.518Y-130.556
X82.55Y-105.156
X83.312Y-140.462
X83.312Y-146.05
X84.328Y-134.62
X87.122Y-105.664
X94.181Y-117.849
X96.52Y-108.204
X97.79Y-114.554
X100.156Y-109.22
X102.616Y-113.538
X104.14Y-117.348
X106.172Y-111.506
X112.522Y-105.41
X113.03Y-146.558
X119.38Y-118.11
X122.428Y-109.22
X123.19Y-114.554
X126.746Y-136.906
X128.524Y-111.252
X130.045Y-117.384
X131.572Y-127.254
X133.35Y-108.966
X137.922Y-105.41
X138.938Y-145.796
X142.748Y-133.35
X142.748Y-134.15
X144.78Y-118.11
X146.219Y-108.675
X146.304Y-129.794
X148.59Y-114.554
X152.4Y-108.458
X153.995Y-115.829
X155.956Y-109.982
X162.052Y-136.906
X163.322Y-105.41
X170.18Y-118.11
X172.72Y-110.236
X173.99Y-114.554
X177.038Y-141.478
X179.35Y-115.195
X179.832Y-106.68
X180.848Y-111.76
X183.388Y-125.476
X183.642Y-116.078
X183.896Y-135.128
X188.722Y-105.41
X194.056Y-141.478
X195.58Y-118.364
X199.258Y-114.94
X201.422Y-109.728
X207.772Y-108.712
X207.772Y-116.84
X208.026Y-136.144
X214.122Y-105.41
X217.17Y-134.366
X220.98Y-117.856
X224.028Y-132.08
X224.028Y-133.096
X224.028Y-140.716
X224.028Y-141.478
X224.79Y-114.3
X228.346Y-132.08
X228.346Y-133.096
X229.108Y-110.744
X231.594Y-136.909
X234.696Y-109.22
X234.696Y-120.396
X238.76Y-132.334
X238.76Y-133.35
X238.76Y-140.462
X238.76Y-141.224
X239.014Y-136.906
X239.522Y-105.41
X243.078Y-132.08
X243.078Y-133.096
X245.618Y-118.11
X249.936Y-114.554
X250.324Y-132.508
X252.222Y-137.414
X252.476Y-111.76
X257.556Y-127.508
X258.13Y-116.52
X261.874Y-113.03
X264.922Y-105.41
T2
X93.98Y-106.62
X96.52Y-106.62
X99.06Y-106.62
X152.4Y-130.81
X152.4Y-146.05
X154.94Y-130.81
X154.94Y-146.05
X157.48Y-130.81
X157.48Y-146.05
X160.02Y-130.81
X160.02Y-146.05
X162.56Y-130.81
X162.56Y-146.05
X165.1Y-130.81
X165.1Y-146.05
X167.64Y-130.81
X167.64Y-146.05
X170.18Y-130.81
X170.18Y-146.05
X172.72Y-130.81
X172.72Y-146.05
X175.26Y-130.81
X175.26Y-146.05
X177.8Y-130.81
X177.8Y-146.05
X180.34Y-130.81
X180.34Y-146.05
X182.88Y-130.81
X182.88Y-146.05
X185.42Y-130.81
X185.42Y-146.05
X187.96Y-130.81
X187.96Y-146.05
X190.5Y-130.81
X190.5Y-146.05
X193.04Y-130.81
X193.04Y-146.05
X195.58Y-130.81
X195.58Y-146.05
X198.12Y-130.81
X198.12Y-146.05
X200.66Y-130.81
X200.66Y-146.05
X205.105Y-146.05
X207.645Y-146.05
X210.185Y-146.05
X212.725Y-146.05
X265.43Y-130.175
X265.43Y-132.715
X265.43Y-135.255
X265.43Y-137.795
X265.43Y-140.335
X265.43Y-142.875
X273.05Y-130.175
X273.05Y-132.715
X273.05Y-135.255
X273.05Y-137.795
X273.05Y-140.335
X273.05Y-142.875
T3
X78.74Y-106.68
X78.74Y-109.22
X78.74Y-111.76
X78.74Y-114.3
X78.74Y-116.84
X81.28Y-106.68
X81.28Y-109.22
X81.28Y-111.76
X81.28Y-114.3
X81.28Y-116.84
T4
X97.845Y-128.51
X97.845Y-133.51
X97.845Y-138.51
X97.845Y-143.51
X106.045Y-128.51
X106.045Y-133.51
X106.045Y-138.51
X106.045Y-143.51
T2
G00X88.3Y-115.315
M15
G01X89.5Y-115.315
M16
G05
G00X88.3Y-120.015
M15
G01X89.5Y-120.015
M16
G05
G00X88.3Y-124.715
M15
G01X89.5Y-124.715
M16
G05
G00X113.7Y-115.315
M15
G01X114.9Y-115.315
M16
G05
G00X113.7Y-120.015
M15
G01X114.9Y-120.015
M16
G05
G00X113.7Y-124.715
M15
G01X114.9Y-124.715
M16
G05
G00X139.1Y-115.315
M15
G01X140.3Y-115.315
M16
G05
G00X139.1Y-120.015
M15
G01X140.3Y-120.015
M16
G05
G00X139.1Y-124.715
M15
G01X140.3Y-124.715
M16
G05
G00X164.5Y-115.315
M15
G01X165.7Y-115.315
M16
G05
G00X164.5Y-120.015
M15
G01X165.7Y-120.015
M16
G05
G00X164.5Y-124.715
M15
G01X165.7Y-124.715
M16
G05
G00X189.9Y-115.315
M15
G01X191.1Y-115.315
M16
G05
G00X189.9Y-120.015
M15
G01X191.1Y-120.015
M16
G05
G00X189.9Y-124.715
M15
G01X191.1Y-124.715
M16
G05
G00X215.3Y-115.315
M15
G01X216.5Y-115.315
M16
G05
G00X215.3Y-120.015
M15
G01X216.5Y-120.015
M16
G05
G00X215.3Y-124.715
M15
G01X216.5Y-124.715
M16
G05
G00X240.7Y-115.315
M15
G01X241.9Y-115.315
M16
G05
G00X240.7Y-120.015
M15
G01X241.9Y-120.015
M16
G05
G00X240.7Y-124.715
M15
G01X241.9Y-124.715
M16
G05
G00X266.1Y-115.315
M15
G01X267.3Y-115.315
M16
G05
G00X266.1Y-120.015
M15
G01X267.3Y-120.015
M16
G05
G00X266.1Y-124.715
M15
G01X267.3Y-124.715
M16
G05
M30
