%TF.GenerationSoftware,KiCad,Pcbnew,9.0.5*%
%TF.CreationDate,2025-11-18T06:46:22-05:00*%
%TF.ProjectId,switchboard,73776974-6368-4626-9f61-72642e6b6963,rev?*%
%TF.SameCoordinates,Original*%
%TF.FileFunction,Copper,L4,Bot*%
%TF.FilePolarity,Positive*%
%FSLAX46Y46*%
G04 Gerber Fmt 4.6, Leading zero omitted, Abs format (unit mm)*
G04 Created by KiCad (PCBNEW 9.0.5) date 2025-11-18 06:46:22*
%MOMM*%
%LPD*%
G01*
G04 APERTURE LIST*
G04 Aperture macros list*
%AMRoundRect*
0 Rectangle with rounded corners*
0 $1 Rounding radius*
0 $2 $3 $4 $5 $6 $7 $8 $9 X,Y pos of 4 corners*
0 Add a 4 corners polygon primitive as box body*
4,1,4,$2,$3,$4,$5,$6,$7,$8,$9,$2,$3,0*
0 Add four circle primitives for the rounded corners*
1,1,$1+$1,$2,$3*
1,1,$1+$1,$4,$5*
1,1,$1+$1,$6,$7*
1,1,$1+$1,$8,$9*
0 Add four rect primitives between the rounded corners*
20,1,$1+$1,$2,$3,$4,$5,0*
20,1,$1+$1,$4,$5,$6,$7,0*
20,1,$1+$1,$6,$7,$8,$9,0*
20,1,$1+$1,$8,$9,$2,$3,0*%
G04 Aperture macros list end*
%TA.AperFunction,ComponentPad*%
%ADD10C,2.000000*%
%TD*%
%TA.AperFunction,ComponentPad*%
%ADD11R,1.700000X1.700000*%
%TD*%
%TA.AperFunction,ComponentPad*%
%ADD12C,1.700000*%
%TD*%
%TA.AperFunction,ComponentPad*%
%ADD13O,3.000000X1.600000*%
%TD*%
%TA.AperFunction,SMDPad,CuDef*%
%ADD14RoundRect,0.500000X1.000000X0.500000X-1.000000X0.500000X-1.000000X-0.500000X1.000000X-0.500000X0*%
%TD*%
%TA.AperFunction,ComponentPad*%
%ADD15C,1.500000*%
%TD*%
%TA.AperFunction,ComponentPad*%
%ADD16R,1.800000X1.800000*%
%TD*%
%TA.AperFunction,ComponentPad*%
%ADD17C,1.800000*%
%TD*%
%TA.AperFunction,ViaPad*%
%ADD18C,0.600000*%
%TD*%
%TA.AperFunction,Conductor*%
%ADD19C,0.300000*%
%TD*%
G04 APERTURE END LIST*
D10*
%TO.P,J2,1,1_1*%
%TO.N,RS_485_B*%
X106045000Y-143510000D03*
%TO.P,J2,2,1_2*%
X97845001Y-143510000D03*
%TO.P,J2,3,2_1*%
%TO.N,RS_485_A*%
X106045000Y-138510000D03*
%TO.P,J2,4,2_2*%
X97845001Y-138510000D03*
%TO.P,J2,5,3_1*%
%TO.N,GND*%
X106045000Y-133509999D03*
%TO.P,J2,6,3_2*%
X97845001Y-133509999D03*
%TO.P,J2,7,4_1*%
%TO.N,+24V*%
X106045000Y-128509999D03*
%TO.P,J2,8,4_2*%
X97845001Y-128509999D03*
%TD*%
D11*
%TO.P,J3,1,Pin_1*%
%TO.N,unconnected-(J3-Pin_1-Pad1)*%
X93980000Y-106620000D03*
D12*
%TO.P,J3,2,Pin_2*%
%TO.N,RS_485_B*%
X96520000Y-106620000D03*
%TO.P,J3,3,Pin_3*%
%TO.N,Net-(J3-Pin_3)*%
X99060000Y-106620000D03*
%TD*%
D13*
%TO.P,SW6,3,3*%
%TO.N,Net-(Q6-D)*%
X215900000Y-115315000D03*
%TO.P,SW6,2,2*%
%TO.N,Net-(F6-Pad1)*%
X215900000Y-120015000D03*
%TO.P,SW6,1,1*%
%TO.N,GND*%
X215900000Y-124715000D03*
%TD*%
D14*
%TO.P,U3,1,5V_NEG*%
%TO.N,GND*%
X226255000Y-132656000D03*
%TO.P,U3,2,5V_POS*%
%TO.N,Net-(D20-A)*%
X226255000Y-140956000D03*
%TO.P,U3,3,IN_NEG*%
%TO.N,GND*%
X240955000Y-132656000D03*
%TO.P,U3,4,IN_POS*%
%TO.N,+24V*%
X240955000Y-140956000D03*
%TD*%
D11*
%TO.P,U1,1,PB12*%
%TO.N,unconnected-(U1-PB12-Pad1)*%
X152400000Y-130810000D03*
D12*
%TO.P,U1,2,PB13*%
%TO.N,unconnected-(U1-PB13-Pad2)*%
X154940000Y-130810000D03*
%TO.P,U1,3,PB14*%
%TO.N,unconnected-(U1-PB14-Pad3)*%
X157480000Y-130810000D03*
%TO.P,U1,4,PB15*%
%TO.N,unconnected-(U1-PB15-Pad4)*%
X160020000Y-130810000D03*
%TO.P,U1,5,PA8*%
%TO.N,unconnected-(U1-PA8-Pad5)*%
X162560000Y-130810000D03*
%TO.P,U1,6,PA9*%
%TO.N,AUX_PROG_TX*%
X165100000Y-130810000D03*
%TO.P,U1,7,PA10*%
%TO.N,AUX_PROG_RX*%
X167640000Y-130810000D03*
%TO.P,U1,8,PA11*%
%TO.N,unconnected-(U1-PA11-Pad8)*%
X170180000Y-130810000D03*
%TO.P,U1,9,PA12*%
%TO.N,unconnected-(U1-PA12-Pad9)*%
X172720000Y-130810000D03*
%TO.P,U1,10,PA15*%
%TO.N,unconnected-(U1-PA15-Pad10)*%
X175260000Y-130810000D03*
%TO.P,U1,11,PB3*%
%TO.N,FET_2*%
X177800000Y-130810000D03*
%TO.P,U1,12,PB4*%
%TO.N,FET_3*%
X180340000Y-130810000D03*
%TO.P,U1,13,PB5*%
%TO.N,FET_4*%
X182880000Y-130810000D03*
%TO.P,U1,14,PB6*%
%TO.N,FET_5*%
X185420000Y-130810000D03*
%TO.P,U1,15,PB7*%
%TO.N,FET_6*%
X187960000Y-130810000D03*
%TO.P,U1,16,PB8*%
%TO.N,FET_7*%
X190500000Y-130810000D03*
%TO.P,U1,17,PB9*%
%TO.N,unconnected-(U1-PB9-Pad17)*%
X193040000Y-130810000D03*
%TO.P,U1,18,5V*%
%TO.N,+5V*%
X195580000Y-130810000D03*
%TO.P,U1,19,GND*%
%TO.N,GND*%
X198120000Y-130810000D03*
%TO.P,U1,20,3V3*%
%TO.N,+3V3*%
X200660000Y-130810000D03*
%TO.P,U1,21,VBat*%
%TO.N,unconnected-(U1-VBat-Pad21)*%
X200660000Y-146050000D03*
%TO.P,U1,22,PC13*%
%TO.N,unconnected-(U1-PC13-Pad22)*%
X198120000Y-146050000D03*
%TO.P,U1,23,PC14*%
%TO.N,DIP4*%
X195580000Y-146050000D03*
%TO.P,U1,24,PC15*%
%TO.N,unconnected-(U1-PC15-Pad24)*%
X193040000Y-146050000D03*
%TO.P,U1,25,PA0*%
%TO.N,RS485_RE*%
X190500000Y-146050000D03*
%TO.P,U1,26,PA1*%
%TO.N,RS485_DE*%
X187960000Y-146050000D03*
%TO.P,U1,27,PA2*%
%TO.N,RS485_TX*%
X185420000Y-146050000D03*
%TO.P,U1,28,PA3*%
%TO.N,RS485_RX*%
X182880000Y-146050000D03*
%TO.P,U1,29,PA4*%
%TO.N,DIP0*%
X180340000Y-146050000D03*
%TO.P,U1,30,PA5*%
%TO.N,DIP1*%
X177800000Y-146050000D03*
%TO.P,U1,31,PA6*%
%TO.N,DIP2*%
X175260000Y-146050000D03*
%TO.P,U1,32,PA7*%
%TO.N,DIP3*%
X172720000Y-146050000D03*
%TO.P,U1,33,PB0*%
%TO.N,FET_0*%
X170180000Y-146050000D03*
%TO.P,U1,34,PB1*%
%TO.N,FET_1*%
X167640000Y-146050000D03*
%TO.P,U1,35,PB10*%
%TO.N,unconnected-(U1-PB10-Pad35)*%
X165100000Y-146050000D03*
%TO.P,U1,36,PB11*%
%TO.N,unconnected-(U1-PB11-Pad36)*%
X162560000Y-146050000D03*
%TO.P,U1,37,RST*%
%TO.N,unconnected-(U1-RST-Pad37)*%
X160020000Y-146050000D03*
%TO.P,U1,38,3V3*%
%TO.N,+3V3*%
X157480000Y-146050000D03*
%TO.P,U1,39,GND*%
%TO.N,GND*%
X154940000Y-146050000D03*
%TO.P,U1,40,GND*%
X152400000Y-146050000D03*
%TD*%
D15*
%TO.P,SW10,12,12*%
%TO.N,GND*%
X265430000Y-142875000D03*
%TO.P,SW10,1,1*%
%TO.N,DIP0*%
X273050000Y-142875000D03*
%TO.P,SW10,11,11*%
%TO.N,GND*%
X265430000Y-140335000D03*
%TO.P,SW10,2,2*%
%TO.N,DIP1*%
X273050000Y-140335000D03*
%TO.P,SW10,10,10*%
%TO.N,GND*%
X265430000Y-137795000D03*
%TO.P,SW10,3,3*%
%TO.N,DIP2*%
X273050000Y-137795000D03*
%TO.P,SW10,9,9*%
%TO.N,GND*%
X265430000Y-135255000D03*
%TO.P,SW10,4,4*%
%TO.N,DIP3*%
X273050000Y-135255000D03*
%TO.P,SW10,8,8*%
%TO.N,GND*%
X265430000Y-132715000D03*
%TO.P,SW10,5,5*%
%TO.N,DIP4*%
X273050000Y-132715000D03*
%TO.P,SW10,7,7*%
%TO.N,unconnected-(SW10-Pad7)*%
X265430000Y-130175000D03*
%TO.P,SW10,6,6*%
%TO.N,unconnected-(SW10-Pad6)*%
X273050000Y-130175000D03*
%TD*%
D13*
%TO.P,SW8,1,1*%
%TO.N,GND*%
X266700000Y-124715000D03*
%TO.P,SW8,2,2*%
%TO.N,Net-(F8-Pad1)*%
X266700000Y-120015000D03*
%TO.P,SW8,3,3*%
%TO.N,Net-(Q8-D)*%
X266700000Y-115315000D03*
%TD*%
%TO.P,SW7,1,1*%
%TO.N,GND*%
X241300000Y-124715000D03*
%TO.P,SW7,2,2*%
%TO.N,Net-(F7-Pad1)*%
X241300000Y-120015000D03*
%TO.P,SW7,3,3*%
%TO.N,Net-(Q7-D)*%
X241300000Y-115315000D03*
%TD*%
%TO.P,SW5,1,1*%
%TO.N,unconnected-(SW5-Pad1)*%
X190500000Y-124715000D03*
%TO.P,SW5,2,2*%
%TO.N,Net-(F5-Pad1)*%
X190500000Y-120015000D03*
%TO.P,SW5,3,3*%
%TO.N,Net-(Q5-D)*%
X190500000Y-115315000D03*
%TD*%
%TO.P,SW4,1,1*%
%TO.N,GND*%
X165100000Y-124715000D03*
%TO.P,SW4,2,2*%
%TO.N,Net-(F4-Pad1)*%
X165100000Y-120015000D03*
%TO.P,SW4,3,3*%
%TO.N,Net-(Q4-D)*%
X165100000Y-115315000D03*
%TD*%
%TO.P,SW3,1,1*%
%TO.N,GND*%
X139700000Y-124715000D03*
%TO.P,SW3,2,2*%
%TO.N,Net-(F3-Pad1)*%
X139700000Y-120015000D03*
%TO.P,SW3,3,3*%
%TO.N,Net-(Q3-D)*%
X139700000Y-115315000D03*
%TD*%
%TO.P,SW2,1,1*%
%TO.N,GND*%
X114300000Y-124715000D03*
%TO.P,SW2,2,2*%
%TO.N,Net-(F2-Pad1)*%
X114300000Y-120015000D03*
%TO.P,SW2,3,3*%
%TO.N,Net-(Q2-D)*%
X114300000Y-115315000D03*
%TD*%
%TO.P,SW1,1,1*%
%TO.N,GND*%
X88900000Y-124715000D03*
%TO.P,SW1,2,2*%
%TO.N,Net-(F1-Pad1)*%
X88900000Y-120015000D03*
%TO.P,SW1,3,3*%
%TO.N,Net-(Q1-D)*%
X88900000Y-115315000D03*
%TD*%
D11*
%TO.P,J1,1,Pin_1*%
%TO.N,GND*%
X212725000Y-146050000D03*
D12*
%TO.P,J1,2,Pin_2*%
%TO.N,+5V*%
X210185000Y-146050000D03*
%TO.P,J1,3,Pin_3*%
%TO.N,AUX_PROG_TX*%
X207645000Y-146050000D03*
%TO.P,J1,4,Pin_4*%
%TO.N,AUX_PROG_RX*%
X205105000Y-146050000D03*
%TD*%
D16*
%TO.P,P1,1,1*%
%TO.N,RELAY_0*%
X81280000Y-116840000D03*
D17*
%TO.P,P1,2,2*%
%TO.N,RELAY_1*%
X78740000Y-116840000D03*
%TO.P,P1,3,3*%
%TO.N,RELAY_2*%
X81280000Y-114300000D03*
%TO.P,P1,4,4*%
%TO.N,GND*%
X78740000Y-114300000D03*
%TO.P,P1,5,5*%
%TO.N,RELAY_3*%
X81280000Y-111760000D03*
%TO.P,P1,6,6*%
%TO.N,RELAY_4*%
X78740000Y-111760000D03*
%TO.P,P1,7,7*%
%TO.N,RELAY_5*%
X81280000Y-109220000D03*
%TO.P,P1,8,8*%
%TO.N,RELAY_6*%
X78740000Y-109220000D03*
%TO.P,P1,9,9*%
%TO.N,RELAY_7*%
X81280000Y-106680000D03*
%TO.P,P1,10,10*%
%TO.N,+24V*%
X78740000Y-106680000D03*
%TD*%
D18*
%TO.N,GND*%
X76454000Y-115062000D03*
X76454000Y-113538000D03*
X224028000Y-133096000D03*
X224028000Y-132080000D03*
X228346000Y-133096000D03*
X228346000Y-132080000D03*
X238760000Y-133350000D03*
X238760000Y-132334000D03*
X243078000Y-133096000D03*
X243078000Y-132080000D03*
X250323724Y-132508318D03*
X239014000Y-136906000D03*
X231594020Y-136908670D03*
X162052000Y-136906000D03*
X183896000Y-135128000D03*
X194056000Y-141478000D03*
X138938000Y-145796000D03*
X126746000Y-136906000D03*
X79756000Y-137414000D03*
X84328000Y-134620000D03*
X83312000Y-146050000D03*
X76200000Y-146558000D03*
X80518000Y-130556000D03*
X83312000Y-140462000D03*
X102616000Y-113538000D03*
X106172000Y-111506000D03*
X104140000Y-117348000D03*
X146304000Y-129794000D03*
X131572000Y-127254000D03*
X128524000Y-111252000D03*
X122428000Y-109220000D03*
X133350000Y-108966000D03*
X130045457Y-117383922D03*
X155956000Y-109982000D03*
X146219058Y-108675060D03*
X153994827Y-115828768D03*
X152400000Y-108458000D03*
X179350082Y-115195161D03*
X172720000Y-110236000D03*
X180848000Y-111760000D03*
X179832000Y-106680000D03*
X183642000Y-116078000D03*
X183388000Y-125476000D03*
X207772000Y-108712000D03*
X201422000Y-109728000D03*
X207772000Y-116840000D03*
X217170000Y-134366000D03*
X208026000Y-136144000D03*
X234696000Y-109220000D03*
X234696000Y-120396000D03*
X229108000Y-110744000D03*
X252476000Y-111760000D03*
X252222000Y-137414000D03*
X257556000Y-127508000D03*
%TO.N,+5V*%
X113030000Y-146558000D03*
%TO.N,Net-(D20-A)*%
X224028000Y-141478000D03*
X224028000Y-140716000D03*
%TO.N,+24V*%
X238760000Y-141224000D03*
X238760000Y-140462000D03*
%TO.N,FET_0*%
X142748000Y-134150003D03*
%TO.N,+5V*%
X137922000Y-105410000D03*
X214122000Y-105410000D03*
X87122000Y-105664000D03*
X112522000Y-105410000D03*
X163322000Y-105410000D03*
X188722000Y-105410000D03*
X239522000Y-105410000D03*
X264922000Y-105410000D03*
%TO.N,RS485_RE*%
X177038000Y-141478000D03*
%TO.N,FET_1*%
X142748000Y-133350000D03*
%TO.N,GND*%
X261874000Y-113030000D03*
X258130000Y-116520000D03*
X245618000Y-118110000D03*
X249936000Y-114554000D03*
X224790000Y-114300000D03*
X220980000Y-117856000D03*
X195580000Y-118364000D03*
X199258000Y-114940000D03*
X170180000Y-118110000D03*
X173990000Y-114554000D03*
X144780000Y-118110000D03*
X148590000Y-114554000D03*
X123190000Y-114554000D03*
X119380000Y-118110000D03*
X97790000Y-114554000D03*
X94181095Y-117849397D03*
%TO.N,RELAY_6*%
X82550000Y-105156000D03*
%TO.N,RS_485_A*%
X100156000Y-109220000D03*
%TO.N,RS_485_B*%
X96520000Y-108204000D03*
%TD*%
D19*
%TO.N,GND*%
X76454000Y-115062000D02*
X77978000Y-115062000D01*
X77978000Y-115062000D02*
X78740000Y-114300000D01*
X76454000Y-113538000D02*
X77978000Y-113538000D01*
X77978000Y-113538000D02*
X78740000Y-114300000D01*
X224028000Y-132080000D02*
X225679000Y-132080000D01*
X225679000Y-132080000D02*
X226255000Y-132656000D01*
X224028000Y-133096000D02*
X225815000Y-133096000D01*
X225815000Y-133096000D02*
X226255000Y-132656000D01*
X228346000Y-133096000D02*
X226695000Y-133096000D01*
X226695000Y-133096000D02*
X226255000Y-132656000D01*
X228346000Y-132080000D02*
X226831000Y-132080000D01*
X226831000Y-132080000D02*
X226255000Y-132656000D01*
X243078000Y-132080000D02*
X241531000Y-132080000D01*
X241531000Y-132080000D02*
X240955000Y-132656000D01*
X243078000Y-133096000D02*
X241395000Y-133096000D01*
X241395000Y-133096000D02*
X240955000Y-132656000D01*
X238760000Y-133350000D02*
X240261000Y-133350000D01*
X240261000Y-133350000D02*
X240955000Y-132656000D01*
X238760000Y-132334000D02*
X240633000Y-132334000D01*
X240633000Y-132334000D02*
X240955000Y-132656000D01*
%TO.N,+5V*%
X141986000Y-132588000D02*
X193802000Y-132588000D01*
X114300000Y-147828000D02*
X126746000Y-147828000D01*
X126746000Y-147828000D02*
X141986000Y-132588000D01*
X113030000Y-146558000D02*
X114300000Y-147828000D01*
X193802000Y-132588000D02*
X195580000Y-130810000D01*
%TO.N,+24V*%
X238760000Y-140462000D02*
X235458000Y-137160000D01*
X235458000Y-137160000D02*
X235458000Y-132588000D01*
X235458000Y-132588000D02*
X231379999Y-128509999D01*
X231379999Y-128509999D02*
X106045000Y-128509999D01*
%TO.N,Net-(D20-A)*%
X224028000Y-141478000D02*
X225733000Y-141478000D01*
X225733000Y-141478000D02*
X226255000Y-140956000D01*
X224028000Y-140716000D02*
X226015000Y-140716000D01*
X226015000Y-140716000D02*
X226255000Y-140956000D01*
%TO.N,+24V*%
X238760000Y-141224000D02*
X240687000Y-141224000D01*
X240687000Y-141224000D02*
X240955000Y-140956000D01*
X238760000Y-140462000D02*
X240461000Y-140462000D01*
X240461000Y-140462000D02*
X240955000Y-140956000D01*
X238760000Y-140462000D02*
X238760000Y-141224000D01*
%TO.N,FET_0*%
X142748000Y-134150003D02*
X154978003Y-134150003D01*
X154978003Y-134150003D02*
X166370000Y-145542000D01*
X166370000Y-145542000D02*
X166370000Y-147574000D01*
X169672000Y-147828000D02*
X170180000Y-147320000D01*
X166370000Y-147574000D02*
X166624000Y-147828000D01*
X166624000Y-147828000D02*
X169672000Y-147828000D01*
X170180000Y-147320000D02*
X170180000Y-146050000D01*
%TO.N,FET_1*%
X142748000Y-133350000D02*
X154940000Y-133350000D01*
X154940000Y-133350000D02*
X167640000Y-146050000D01*
%TO.N,DIP4*%
X273050000Y-132715000D02*
X267208000Y-138557000D01*
X267208000Y-138557000D02*
X267208000Y-146556000D01*
X267208000Y-146556000D02*
X266192000Y-147572000D01*
X197102000Y-147572000D02*
X195580000Y-146050000D01*
X266192000Y-147572000D02*
X197102000Y-147572000D01*
%TO.N,DIP0*%
X180340000Y-146050000D02*
X182363000Y-148073000D01*
X182363000Y-148073000D02*
X270265000Y-148073000D01*
X270265000Y-148073000D02*
X273050000Y-145288000D01*
X273050000Y-145288000D02*
X273050000Y-142875000D01*
%TO.N,DIP1*%
X273050000Y-140335000D02*
X274304000Y-141589000D01*
X274304000Y-141589000D02*
X274304000Y-148098000D01*
X274304000Y-148098000D02*
X273828000Y-148574000D01*
X273828000Y-148574000D02*
X180324000Y-148574000D01*
X180324000Y-148574000D02*
X177800000Y-146050000D01*
%TO.N,+5V*%
X238506000Y-104394000D02*
X263906000Y-104394000D01*
X263906000Y-104394000D02*
X264922000Y-105410000D01*
X213106000Y-104394000D02*
X238506000Y-104394000D01*
X238506000Y-104394000D02*
X239522000Y-105410000D01*
X187706000Y-104394000D02*
X213106000Y-104394000D01*
X213106000Y-104394000D02*
X214122000Y-105410000D01*
X162306000Y-104394000D02*
X187706000Y-104394000D01*
X187706000Y-104394000D02*
X188722000Y-105410000D01*
X111506000Y-104394000D02*
X162306000Y-104394000D01*
X162306000Y-104394000D02*
X163322000Y-105410000D01*
X87122000Y-105664000D02*
X88392000Y-104394000D01*
X88392000Y-104394000D02*
X111506000Y-104394000D01*
X111506000Y-104394000D02*
X112522000Y-105410000D01*
%TO.N,RS485_RE*%
X177038000Y-141478000D02*
X185928000Y-141478000D01*
X185928000Y-141478000D02*
X190500000Y-146050000D01*
%TO.N,RELAY_6*%
X78740000Y-109220000D02*
X79991000Y-107969000D01*
X81760182Y-107969000D02*
X82550000Y-107179182D01*
X79991000Y-107969000D02*
X81760182Y-107969000D01*
X82550000Y-107179182D02*
X82550000Y-105156000D01*
%TO.N,RS_485_B*%
X97845001Y-143510000D02*
X106045000Y-143510000D01*
%TO.N,RS_485_A*%
X97845001Y-138510000D02*
X106045000Y-138510000D01*
X100156000Y-109220000D02*
X100156000Y-110156000D01*
X100156000Y-110156000D02*
X98044000Y-112268000D01*
X98044000Y-112268000D02*
X93472000Y-112268000D01*
X93472000Y-112268000D02*
X92456000Y-113284000D01*
X92456000Y-113284000D02*
X92456000Y-136652000D01*
X94742000Y-138938000D02*
X97417001Y-138938000D01*
X92456000Y-136652000D02*
X94742000Y-138938000D01*
X97417001Y-138938000D02*
X97845001Y-138510000D01*
%TO.N,RS_485_B*%
X96520000Y-108204000D02*
X96520000Y-108458000D01*
X96520000Y-108458000D02*
X91948000Y-113030000D01*
X91948000Y-140716000D02*
X94742000Y-143510000D01*
X91948000Y-113030000D02*
X91948000Y-140716000D01*
X94742000Y-143510000D02*
X97845001Y-143510000D01*
%TD*%
%TA.AperFunction,Conductor*%
%TO.N,GND*%
G36*
X274397539Y-101485185D02*
G01*
X274443294Y-101537989D01*
X274454500Y-101589500D01*
X274454500Y-129667998D01*
X274434815Y-129735037D01*
X274382011Y-129780792D01*
X274312853Y-129790736D01*
X274249297Y-129761711D01*
X274212570Y-129706319D01*
X274208883Y-129694973D01*
X274119523Y-129519594D01*
X274003828Y-129360354D01*
X273864646Y-129221172D01*
X273705405Y-129105476D01*
X273530029Y-129016117D01*
X273342826Y-128955290D01*
X273148422Y-128924500D01*
X273148417Y-128924500D01*
X272951583Y-128924500D01*
X272951578Y-128924500D01*
X272757173Y-128955290D01*
X272569970Y-129016117D01*
X272394594Y-129105476D01*
X272318863Y-129160499D01*
X272235354Y-129221172D01*
X272235352Y-129221174D01*
X272235351Y-129221174D01*
X272096174Y-129360351D01*
X272096174Y-129360352D01*
X272096172Y-129360354D01*
X272046485Y-129428741D01*
X271980476Y-129519594D01*
X271891117Y-129694970D01*
X271830290Y-129882173D01*
X271799500Y-130076577D01*
X271799500Y-130273422D01*
X271830290Y-130467826D01*
X271891117Y-130655029D01*
X271936539Y-130744174D01*
X271980476Y-130830405D01*
X272096172Y-130989646D01*
X272235354Y-131128828D01*
X272394595Y-131244524D01*
X272460557Y-131278133D01*
X272571213Y-131334515D01*
X272622009Y-131382489D01*
X272638804Y-131450310D01*
X272616267Y-131516445D01*
X272571213Y-131555485D01*
X272394594Y-131645476D01*
X272308715Y-131707872D01*
X272235354Y-131761172D01*
X272235352Y-131761174D01*
X272235351Y-131761174D01*
X272096174Y-131900351D01*
X272096174Y-131900352D01*
X272096172Y-131900354D01*
X272069184Y-131937500D01*
X271980476Y-132059594D01*
X271891117Y-132234970D01*
X271830290Y-132422173D01*
X271799500Y-132616577D01*
X271799500Y-132813422D01*
X271821355Y-132951410D01*
X271812400Y-133020704D01*
X271786563Y-133058489D01*
X266778427Y-138066625D01*
X266717104Y-138100110D01*
X266647412Y-138095126D01*
X266591479Y-138053254D01*
X266567062Y-137987790D01*
X266568273Y-137959545D01*
X266574537Y-137920000D01*
X265914144Y-137920000D01*
X265930000Y-137860826D01*
X265930000Y-137729174D01*
X265914144Y-137670000D01*
X266574537Y-137670000D01*
X266551682Y-137525706D01*
X266495748Y-137353555D01*
X266495747Y-137353552D01*
X266413565Y-137192265D01*
X266307176Y-137045830D01*
X266179169Y-136917823D01*
X266032734Y-136811434D01*
X265871447Y-136729252D01*
X265871444Y-136729251D01*
X265699293Y-136673317D01*
X265555000Y-136650462D01*
X265555000Y-137310855D01*
X265495826Y-137295000D01*
X265364174Y-137295000D01*
X265305000Y-137310855D01*
X265305000Y-136650462D01*
X265160706Y-136673317D01*
X264988555Y-136729251D01*
X264988552Y-136729252D01*
X264827265Y-136811434D01*
X264680830Y-136917823D01*
X264552823Y-137045830D01*
X264446434Y-137192265D01*
X264364252Y-137353552D01*
X264364251Y-137353555D01*
X264308317Y-137525706D01*
X264285463Y-137670000D01*
X264945856Y-137670000D01*
X264930000Y-137729174D01*
X264930000Y-137860826D01*
X264945856Y-137920000D01*
X264285463Y-137920000D01*
X264308317Y-138064293D01*
X264364251Y-138236444D01*
X264364252Y-138236447D01*
X264446434Y-138397734D01*
X264552823Y-138544169D01*
X264680830Y-138672176D01*
X264827265Y-138778565D01*
X264988552Y-138860747D01*
X264988555Y-138860748D01*
X265160704Y-138916682D01*
X265160709Y-138916683D01*
X265304999Y-138939535D01*
X265305000Y-138939535D01*
X265305000Y-138279144D01*
X265364174Y-138295000D01*
X265495826Y-138295000D01*
X265555000Y-138279144D01*
X265555000Y-138939535D01*
X265699291Y-138916683D01*
X265699295Y-138916682D01*
X265871444Y-138860748D01*
X265871447Y-138860747D01*
X266032734Y-138778565D01*
X266179169Y-138672176D01*
X266307174Y-138544171D01*
X266333181Y-138508375D01*
X266388510Y-138465709D01*
X266458123Y-138459728D01*
X266519919Y-138492333D01*
X266554277Y-138553171D01*
X266557500Y-138581259D01*
X266557500Y-139548740D01*
X266537815Y-139615779D01*
X266485011Y-139661534D01*
X266415853Y-139671478D01*
X266352297Y-139642453D01*
X266333182Y-139621625D01*
X266307176Y-139585831D01*
X266307172Y-139585826D01*
X266179169Y-139457823D01*
X266032734Y-139351434D01*
X265871447Y-139269252D01*
X265871444Y-139269251D01*
X265699293Y-139213317D01*
X265555000Y-139190462D01*
X265555000Y-139850855D01*
X265495826Y-139835000D01*
X265364174Y-139835000D01*
X265305000Y-139850855D01*
X265305000Y-139190462D01*
X265160706Y-139213317D01*
X264988555Y-139269251D01*
X264988552Y-139269252D01*
X264827265Y-139351434D01*
X264680830Y-139457823D01*
X264552823Y-139585830D01*
X264446434Y-139732265D01*
X264364252Y-139893552D01*
X264364251Y-139893555D01*
X264308317Y-140065706D01*
X264285463Y-140210000D01*
X264945856Y-140210000D01*
X264930000Y-140269174D01*
X264930000Y-140400826D01*
X264945856Y-140460000D01*
X264285463Y-140460000D01*
X264308317Y-140604293D01*
X264364251Y-140776444D01*
X264364252Y-140776447D01*
X264446434Y-140937734D01*
X264552823Y-141084169D01*
X264680830Y-141212176D01*
X264827265Y-141318565D01*
X264988552Y-141400747D01*
X264988555Y-141400748D01*
X265160704Y-141456682D01*
X265160709Y-141456683D01*
X265304999Y-141479535D01*
X265305000Y-141479535D01*
X265305000Y-140819144D01*
X265364174Y-140835000D01*
X265495826Y-140835000D01*
X265555000Y-140819144D01*
X265555000Y-141479535D01*
X265699291Y-141456683D01*
X265699295Y-141456682D01*
X265871444Y-141400748D01*
X265871447Y-141400747D01*
X266032734Y-141318565D01*
X266179169Y-141212176D01*
X266307174Y-141084171D01*
X266333181Y-141048375D01*
X266388510Y-141005709D01*
X266458123Y-140999728D01*
X266519919Y-141032333D01*
X266554277Y-141093171D01*
X266557500Y-141121259D01*
X266557500Y-142088740D01*
X266537815Y-142155779D01*
X266485011Y-142201534D01*
X266415853Y-142211478D01*
X266352297Y-142182453D01*
X266333182Y-142161625D01*
X266307176Y-142125831D01*
X266307172Y-142125826D01*
X266179169Y-141997823D01*
X266032734Y-141891434D01*
X265871447Y-141809252D01*
X265871444Y-141809251D01*
X265699293Y-141753317D01*
X265555000Y-141730462D01*
X265555000Y-142390855D01*
X265495826Y-142375000D01*
X265364174Y-142375000D01*
X265305000Y-142390855D01*
X265305000Y-141730462D01*
X265160706Y-141753317D01*
X264988555Y-141809251D01*
X264988552Y-141809252D01*
X264827265Y-141891434D01*
X264680830Y-141997823D01*
X264552823Y-142125830D01*
X264446434Y-142272265D01*
X264364252Y-142433552D01*
X264364251Y-142433555D01*
X264308317Y-142605706D01*
X264285463Y-142750000D01*
X264945856Y-142750000D01*
X264930000Y-142809174D01*
X264930000Y-142940826D01*
X264945856Y-143000000D01*
X264285463Y-143000000D01*
X264308317Y-143144293D01*
X264364251Y-143316444D01*
X264364252Y-143316447D01*
X264446434Y-143477734D01*
X264552823Y-143624169D01*
X264680830Y-143752176D01*
X264827265Y-143858565D01*
X264988552Y-143940747D01*
X264988555Y-143940748D01*
X265160705Y-143996682D01*
X265305000Y-144019536D01*
X265305000Y-143359144D01*
X265364174Y-143375000D01*
X265495826Y-143375000D01*
X265555000Y-143359144D01*
X265555000Y-144019535D01*
X265699292Y-143996682D01*
X265699295Y-143996682D01*
X265871444Y-143940748D01*
X265871447Y-143940747D01*
X266032734Y-143858565D01*
X266179169Y-143752176D01*
X266307174Y-143624171D01*
X266333181Y-143588375D01*
X266388510Y-143545709D01*
X266458123Y-143539728D01*
X266519919Y-143572333D01*
X266554277Y-143633171D01*
X266557500Y-143661259D01*
X266557500Y-146235192D01*
X266537815Y-146302231D01*
X266521181Y-146322873D01*
X265958873Y-146885181D01*
X265897550Y-146918666D01*
X265871192Y-146921500D01*
X214099000Y-146921500D01*
X214031961Y-146901815D01*
X213986206Y-146849011D01*
X213975000Y-146797500D01*
X213975000Y-146175000D01*
X213209144Y-146175000D01*
X213225000Y-146115826D01*
X213225000Y-145984174D01*
X213209144Y-145925000D01*
X213974999Y-145925000D01*
X213974999Y-145168520D01*
X213960164Y-145074850D01*
X213960162Y-145074844D01*
X213902643Y-144961958D01*
X213902636Y-144961949D01*
X213813050Y-144872363D01*
X213813046Y-144872360D01*
X213700144Y-144814833D01*
X213606486Y-144800000D01*
X212850000Y-144800000D01*
X212850000Y-145565855D01*
X212790826Y-145550000D01*
X212659174Y-145550000D01*
X212600000Y-145565855D01*
X212600000Y-144800000D01*
X211843520Y-144800000D01*
X211749850Y-144814835D01*
X211749844Y-144814837D01*
X211636958Y-144872356D01*
X211636949Y-144872363D01*
X211547363Y-144961949D01*
X211547360Y-144961953D01*
X211489833Y-145074855D01*
X211475093Y-145167921D01*
X211445163Y-145231055D01*
X211385851Y-145267986D01*
X211315989Y-145266988D01*
X211257756Y-145228377D01*
X211252301Y-145221406D01*
X211215107Y-145170211D01*
X211064786Y-145019890D01*
X210892820Y-144894951D01*
X210703414Y-144798444D01*
X210703413Y-144798443D01*
X210703412Y-144798443D01*
X210501243Y-144732754D01*
X210501241Y-144732753D01*
X210501240Y-144732753D01*
X210339957Y-144707208D01*
X210291287Y-144699500D01*
X210078713Y-144699500D01*
X210030042Y-144707208D01*
X209868760Y-144732753D01*
X209666585Y-144798444D01*
X209477179Y-144894951D01*
X209305213Y-145019890D01*
X209154890Y-145170213D01*
X209029949Y-145342182D01*
X209025484Y-145350946D01*
X208977509Y-145401742D01*
X208909688Y-145418536D01*
X208843553Y-145395998D01*
X208804516Y-145350946D01*
X208800050Y-145342182D01*
X208675109Y-145170213D01*
X208524786Y-145019890D01*
X208352820Y-144894951D01*
X208163414Y-144798444D01*
X208163413Y-144798443D01*
X208163412Y-144798443D01*
X207961243Y-144732754D01*
X207961241Y-144732753D01*
X207961240Y-144732753D01*
X207799957Y-144707208D01*
X207751287Y-144699500D01*
X207538713Y-144699500D01*
X207490042Y-144707208D01*
X207328760Y-144732753D01*
X207126585Y-144798444D01*
X206937179Y-144894951D01*
X206765213Y-145019890D01*
X206614890Y-145170213D01*
X206489949Y-145342182D01*
X206485484Y-145350946D01*
X206437509Y-145401742D01*
X206369688Y-145418536D01*
X206303553Y-145395998D01*
X206264516Y-145350946D01*
X206260050Y-145342182D01*
X206135109Y-145170213D01*
X205984786Y-145019890D01*
X205812820Y-144894951D01*
X205623414Y-144798444D01*
X205623413Y-144798443D01*
X205623412Y-144798443D01*
X205421243Y-144732754D01*
X205421241Y-144732753D01*
X205421240Y-144732753D01*
X205259957Y-144707208D01*
X205211287Y-144699500D01*
X204998713Y-144699500D01*
X204950042Y-144707208D01*
X204788760Y-144732753D01*
X204586585Y-144798444D01*
X204397179Y-144894951D01*
X204225213Y-145019890D01*
X204074890Y-145170213D01*
X203949951Y-145342179D01*
X203853444Y-145531585D01*
X203787753Y-145733760D01*
X203762221Y-145894962D01*
X203754500Y-145943713D01*
X203754500Y-146156287D01*
X203787754Y-146366243D01*
X203824442Y-146479158D01*
X203853444Y-146568414D01*
X203941485Y-146741205D01*
X203954381Y-146809875D01*
X203928105Y-146874615D01*
X203870998Y-146914872D01*
X203831000Y-146921500D01*
X201934000Y-146921500D01*
X201866961Y-146901815D01*
X201821206Y-146849011D01*
X201811262Y-146779853D01*
X201823515Y-146741205D01*
X201853955Y-146681463D01*
X201911557Y-146568412D01*
X201977246Y-146366243D01*
X202010500Y-146156287D01*
X202010500Y-145943713D01*
X201977246Y-145733757D01*
X201911557Y-145531588D01*
X201815051Y-145342184D01*
X201815049Y-145342181D01*
X201815048Y-145342179D01*
X201690109Y-145170213D01*
X201539786Y-145019890D01*
X201367820Y-144894951D01*
X201178414Y-144798444D01*
X201178413Y-144798443D01*
X201178412Y-144798443D01*
X200976243Y-144732754D01*
X200976241Y-144732753D01*
X200976240Y-144732753D01*
X200814957Y-144707208D01*
X200766287Y-144699500D01*
X200553713Y-144699500D01*
X200505042Y-144707208D01*
X200343760Y-144732753D01*
X200141585Y-144798444D01*
X199952179Y-144894951D01*
X199780213Y-145019890D01*
X199629890Y-145170213D01*
X199504949Y-145342182D01*
X199500484Y-145350946D01*
X199452509Y-145401742D01*
X199384688Y-145418536D01*
X199318553Y-145395998D01*
X199279516Y-145350946D01*
X199275050Y-145342182D01*
X199150109Y-145170213D01*
X198999786Y-145019890D01*
X198827820Y-144894951D01*
X198638414Y-144798444D01*
X198638413Y-144798443D01*
X198638412Y-144798443D01*
X198436243Y-144732754D01*
X198436241Y-144732753D01*
X198436240Y-144732753D01*
X198274957Y-144707208D01*
X198226287Y-144699500D01*
X198013713Y-144699500D01*
X197965042Y-144707208D01*
X197803760Y-144732753D01*
X197601585Y-144798444D01*
X197412179Y-144894951D01*
X197240213Y-145019890D01*
X197089890Y-145170213D01*
X196964949Y-145342182D01*
X196960484Y-145350946D01*
X196912509Y-145401742D01*
X196844688Y-145418536D01*
X196778553Y-145395998D01*
X196739516Y-145350946D01*
X196735050Y-145342182D01*
X196610109Y-145170213D01*
X196459786Y-145019890D01*
X196287820Y-144894951D01*
X196098414Y-144798444D01*
X196098413Y-144798443D01*
X196098412Y-144798443D01*
X195896243Y-144732754D01*
X195896241Y-144732753D01*
X195896240Y-144732753D01*
X195734957Y-144707208D01*
X195686287Y-144699500D01*
X195473713Y-144699500D01*
X195425042Y-144707208D01*
X195263760Y-144732753D01*
X195061585Y-144798444D01*
X194872179Y-144894951D01*
X194700213Y-145019890D01*
X194549890Y-145170213D01*
X194424949Y-145342182D01*
X194420484Y-145350946D01*
X194372509Y-145401742D01*
X194304688Y-145418536D01*
X194238553Y-145395998D01*
X194199516Y-145350946D01*
X194195050Y-145342182D01*
X194070109Y-145170213D01*
X193919786Y-145019890D01*
X193747820Y-144894951D01*
X193558414Y-144798444D01*
X193558413Y-144798443D01*
X193558412Y-144798443D01*
X193356243Y-144732754D01*
X193356241Y-144732753D01*
X193356240Y-144732753D01*
X193194957Y-144707208D01*
X193146287Y-144699500D01*
X192933713Y-144699500D01*
X192885042Y-144707208D01*
X192723760Y-144732753D01*
X192521585Y-144798444D01*
X192332179Y-144894951D01*
X192160213Y-145019890D01*
X192009890Y-145170213D01*
X191884949Y-145342182D01*
X191880484Y-145350946D01*
X191832509Y-145401742D01*
X191764688Y-145418536D01*
X191698553Y-145395998D01*
X191659516Y-145350946D01*
X191655050Y-145342182D01*
X191530109Y-145170213D01*
X191379786Y-145019890D01*
X191207820Y-144894951D01*
X191018414Y-144798444D01*
X191018413Y-144798443D01*
X191018412Y-144798443D01*
X190816243Y-144732754D01*
X190816241Y-144732753D01*
X190816240Y-144732753D01*
X190654957Y-144707208D01*
X190606287Y-144699500D01*
X190393713Y-144699500D01*
X190283888Y-144716894D01*
X190178945Y-144733516D01*
X190178686Y-144731882D01*
X190116094Y-144728730D01*
X190069288Y-144699342D01*
X188420564Y-143050618D01*
X186342674Y-140972727D01*
X186342673Y-140972726D01*
X186342669Y-140972723D01*
X186236127Y-140901535D01*
X186117744Y-140852499D01*
X186117738Y-140852497D01*
X185992071Y-140827500D01*
X185992069Y-140827500D01*
X177542935Y-140827500D01*
X177528661Y-140823883D01*
X177517007Y-140824759D01*
X177494390Y-140815201D01*
X177483895Y-140812542D01*
X177478827Y-140809798D01*
X177417179Y-140768606D01*
X177355771Y-140743170D01*
X177355767Y-140743168D01*
X177271501Y-140708264D01*
X177271489Y-140708261D01*
X177116845Y-140677500D01*
X177116842Y-140677500D01*
X176959158Y-140677500D01*
X176959155Y-140677500D01*
X176804510Y-140708261D01*
X176804498Y-140708264D01*
X176658827Y-140768602D01*
X176658814Y-140768609D01*
X176527711Y-140856210D01*
X176527707Y-140856213D01*
X176416213Y-140967707D01*
X176416210Y-140967711D01*
X176328609Y-141098814D01*
X176328602Y-141098827D01*
X176268264Y-141244498D01*
X176268261Y-141244510D01*
X176237500Y-141399153D01*
X176237500Y-141556846D01*
X176268261Y-141711489D01*
X176268264Y-141711501D01*
X176328602Y-141857172D01*
X176328609Y-141857185D01*
X176416210Y-141988288D01*
X176416213Y-141988292D01*
X176527707Y-142099786D01*
X176527711Y-142099789D01*
X176658814Y-142187390D01*
X176658827Y-142187397D01*
X176804498Y-142247735D01*
X176804503Y-142247737D01*
X176927813Y-142272265D01*
X176959153Y-142278499D01*
X176959156Y-142278500D01*
X176959158Y-142278500D01*
X177116844Y-142278500D01*
X177116845Y-142278499D01*
X177271497Y-142247737D01*
X177417179Y-142187394D01*
X177474044Y-142149397D01*
X177540721Y-142128520D01*
X177542935Y-142128500D01*
X185607192Y-142128500D01*
X185674231Y-142148185D01*
X185694873Y-142164819D01*
X188017873Y-144487819D01*
X188051358Y-144549142D01*
X188046374Y-144618834D01*
X188004502Y-144674767D01*
X187939038Y-144699184D01*
X187930192Y-144699500D01*
X187853713Y-144699500D01*
X187805042Y-144707208D01*
X187643760Y-144732753D01*
X187441585Y-144798444D01*
X187252179Y-144894951D01*
X187080213Y-145019890D01*
X186929890Y-145170213D01*
X186804949Y-145342182D01*
X186800484Y-145350946D01*
X186752509Y-145401742D01*
X186684688Y-145418536D01*
X186618553Y-145395998D01*
X186579516Y-145350946D01*
X186575050Y-145342182D01*
X186450109Y-145170213D01*
X186299786Y-145019890D01*
X186127820Y-144894951D01*
X185938414Y-144798444D01*
X185938413Y-144798443D01*
X185938412Y-144798443D01*
X185736243Y-144732754D01*
X185736241Y-144732753D01*
X185736240Y-144732753D01*
X185574957Y-144707208D01*
X185526287Y-144699500D01*
X185313713Y-144699500D01*
X185265042Y-144707208D01*
X185103760Y-144732753D01*
X184901585Y-144798444D01*
X184712179Y-144894951D01*
X184540213Y-145019890D01*
X184389890Y-145170213D01*
X184264949Y-145342182D01*
X184260484Y-145350946D01*
X184212509Y-145401742D01*
X184144688Y-145418536D01*
X184078553Y-145395998D01*
X184039516Y-145350946D01*
X184035050Y-145342182D01*
X183910109Y-145170213D01*
X183759786Y-145019890D01*
X183587820Y-144894951D01*
X183398414Y-144798444D01*
X183398413Y-144798443D01*
X183398412Y-144798443D01*
X183196243Y-144732754D01*
X183196241Y-144732753D01*
X183196240Y-144732753D01*
X183034957Y-144707208D01*
X182986287Y-144699500D01*
X182773713Y-144699500D01*
X182725042Y-144707208D01*
X182563760Y-144732753D01*
X182361585Y-144798444D01*
X182172179Y-144894951D01*
X182000213Y-145019890D01*
X181849890Y-145170213D01*
X181724949Y-145342182D01*
X181720484Y-145350946D01*
X181672509Y-145401742D01*
X181604688Y-145418536D01*
X181538553Y-145395998D01*
X181499516Y-145350946D01*
X181495050Y-145342182D01*
X181370109Y-145170213D01*
X181219786Y-145019890D01*
X181047820Y-144894951D01*
X180858414Y-144798444D01*
X180858413Y-144798443D01*
X180858412Y-144798443D01*
X180656243Y-144732754D01*
X180656241Y-144732753D01*
X180656240Y-144732753D01*
X180494957Y-144707208D01*
X180446287Y-144699500D01*
X180233713Y-144699500D01*
X180185042Y-144707208D01*
X180023760Y-144732753D01*
X179821585Y-144798444D01*
X179632179Y-144894951D01*
X179460213Y-145019890D01*
X179309890Y-145170213D01*
X179184949Y-145342182D01*
X179180484Y-145350946D01*
X179132509Y-145401742D01*
X179064688Y-145418536D01*
X178998553Y-145395998D01*
X178959516Y-145350946D01*
X178955050Y-145342182D01*
X178830109Y-145170213D01*
X178679786Y-145019890D01*
X178507820Y-144894951D01*
X178318414Y-144798444D01*
X178318413Y-144798443D01*
X178318412Y-144798443D01*
X178116243Y-144732754D01*
X178116241Y-144732753D01*
X178116240Y-144732753D01*
X177954957Y-144707208D01*
X177906287Y-144699500D01*
X177693713Y-144699500D01*
X177645042Y-144707208D01*
X177483760Y-144732753D01*
X177281585Y-144798444D01*
X177092179Y-144894951D01*
X176920213Y-145019890D01*
X176769890Y-145170213D01*
X176644949Y-145342182D01*
X176640484Y-145350946D01*
X176592509Y-145401742D01*
X176524688Y-145418536D01*
X176458553Y-145395998D01*
X176419516Y-145350946D01*
X176415050Y-145342182D01*
X176290109Y-145170213D01*
X176139786Y-145019890D01*
X175967820Y-144894951D01*
X175778414Y-144798444D01*
X175778413Y-144798443D01*
X175778412Y-144798443D01*
X175576243Y-144732754D01*
X175576241Y-144732753D01*
X175576240Y-144732753D01*
X175414957Y-144707208D01*
X175366287Y-144699500D01*
X175153713Y-144699500D01*
X175105042Y-144707208D01*
X174943760Y-144732753D01*
X174741585Y-144798444D01*
X174552179Y-144894951D01*
X174380213Y-145019890D01*
X174229890Y-145170213D01*
X174104949Y-145342182D01*
X174100484Y-145350946D01*
X174052509Y-145401742D01*
X173984688Y-145418536D01*
X173918553Y-145395998D01*
X173879516Y-145350946D01*
X173875050Y-145342182D01*
X173750109Y-145170213D01*
X173599786Y-145019890D01*
X173427820Y-144894951D01*
X173238414Y-144798444D01*
X173238413Y-144798443D01*
X173238412Y-144798443D01*
X173036243Y-144732754D01*
X173036241Y-144732753D01*
X173036240Y-144732753D01*
X172874957Y-144707208D01*
X172826287Y-144699500D01*
X172613713Y-144699500D01*
X172565042Y-144707208D01*
X172403760Y-144732753D01*
X172201585Y-144798444D01*
X172012179Y-144894951D01*
X171840213Y-145019890D01*
X171689890Y-145170213D01*
X171564949Y-145342182D01*
X171560484Y-145350946D01*
X171512509Y-145401742D01*
X171444688Y-145418536D01*
X171378553Y-145395998D01*
X171339516Y-145350946D01*
X171335050Y-145342182D01*
X171210109Y-145170213D01*
X171059786Y-145019890D01*
X170887820Y-144894951D01*
X170698414Y-144798444D01*
X170698413Y-144798443D01*
X170698412Y-144798443D01*
X170496243Y-144732754D01*
X170496241Y-144732753D01*
X170496240Y-144732753D01*
X170334957Y-144707208D01*
X170286287Y-144699500D01*
X170073713Y-144699500D01*
X170025042Y-144707208D01*
X169863760Y-144732753D01*
X169661585Y-144798444D01*
X169472179Y-144894951D01*
X169300213Y-145019890D01*
X169149890Y-145170213D01*
X169024949Y-145342182D01*
X169020484Y-145350946D01*
X168972509Y-145401742D01*
X168904688Y-145418536D01*
X168838553Y-145395998D01*
X168799516Y-145350946D01*
X168795050Y-145342182D01*
X168670109Y-145170213D01*
X168519786Y-145019890D01*
X168347820Y-144894951D01*
X168158414Y-144798444D01*
X168158413Y-144798443D01*
X168158412Y-144798443D01*
X167956243Y-144732754D01*
X167956241Y-144732753D01*
X167956240Y-144732753D01*
X167794957Y-144707208D01*
X167746287Y-144699500D01*
X167533713Y-144699500D01*
X167423888Y-144716894D01*
X167318945Y-144733516D01*
X167318686Y-144731882D01*
X167256094Y-144728730D01*
X167209288Y-144699342D01*
X163147099Y-140637153D01*
X223227500Y-140637153D01*
X223227500Y-140794846D01*
X223255923Y-140937734D01*
X223258263Y-140949497D01*
X223299219Y-141048375D01*
X223299705Y-141049547D01*
X223307174Y-141119017D01*
X223299705Y-141144450D01*
X223297553Y-141149648D01*
X223258263Y-141244502D01*
X223258261Y-141244510D01*
X223227500Y-141399153D01*
X223227500Y-141556846D01*
X223258261Y-141711489D01*
X223258264Y-141711501D01*
X223318602Y-141857172D01*
X223318609Y-141857185D01*
X223406210Y-141988288D01*
X223406213Y-141988292D01*
X223517707Y-142099786D01*
X223517711Y-142099789D01*
X223648814Y-142187390D01*
X223648827Y-142187397D01*
X223794498Y-142247735D01*
X223794503Y-142247737D01*
X223917813Y-142272265D01*
X223949153Y-142278499D01*
X223949156Y-142278500D01*
X223949158Y-142278500D01*
X224106844Y-142278500D01*
X224106845Y-142278499D01*
X224261497Y-142247737D01*
X224407179Y-142187394D01*
X224419775Y-142178977D01*
X224486450Y-142158098D01*
X224553831Y-142176580D01*
X224567029Y-142185976D01*
X224568772Y-142187397D01*
X224701593Y-142295698D01*
X224881951Y-142389909D01*
X225077582Y-142445886D01*
X225196963Y-142456500D01*
X227313036Y-142456499D01*
X227432418Y-142445886D01*
X227628049Y-142389909D01*
X227808407Y-142295698D01*
X227966109Y-142167109D01*
X228094698Y-142009407D01*
X228188909Y-141829049D01*
X228244886Y-141633418D01*
X228255500Y-141514037D01*
X228255499Y-140397964D01*
X228244886Y-140278582D01*
X228200012Y-140121756D01*
X228188910Y-140082954D01*
X228188909Y-140082953D01*
X228188909Y-140082951D01*
X228094698Y-139902593D01*
X228033874Y-139827998D01*
X227966109Y-139744890D01*
X227808409Y-139616304D01*
X227808410Y-139616304D01*
X227808407Y-139616302D01*
X227628049Y-139522091D01*
X227628048Y-139522090D01*
X227628045Y-139522089D01*
X227507194Y-139487510D01*
X227432418Y-139466114D01*
X227432415Y-139466113D01*
X227432413Y-139466113D01*
X227366102Y-139460217D01*
X227313037Y-139455500D01*
X227313032Y-139455500D01*
X225196971Y-139455500D01*
X225196965Y-139455500D01*
X225196964Y-139455501D01*
X225185316Y-139456536D01*
X225077584Y-139466113D01*
X224881954Y-139522089D01*
X224791772Y-139569196D01*
X224701593Y-139616302D01*
X224701591Y-139616303D01*
X224701590Y-139616304D01*
X224543890Y-139744890D01*
X224442632Y-139869075D01*
X224415305Y-139902590D01*
X224411328Y-139907467D01*
X224410112Y-139906476D01*
X224362717Y-139946579D01*
X224293447Y-139955709D01*
X224265092Y-139947752D01*
X224261497Y-139946263D01*
X224261492Y-139946262D01*
X224261488Y-139946260D01*
X224106845Y-139915500D01*
X224106842Y-139915500D01*
X223949158Y-139915500D01*
X223949155Y-139915500D01*
X223794510Y-139946261D01*
X223794498Y-139946264D01*
X223648827Y-140006602D01*
X223648814Y-140006609D01*
X223517711Y-140094210D01*
X223517707Y-140094213D01*
X223406213Y-140205707D01*
X223406210Y-140205711D01*
X223318609Y-140336814D01*
X223318602Y-140336827D01*
X223258264Y-140482498D01*
X223258261Y-140482510D01*
X223227500Y-140637153D01*
X163147099Y-140637153D01*
X156543810Y-134033864D01*
X225053909Y-134033864D01*
X225113436Y-134049815D01*
X225192012Y-134055999D01*
X225192024Y-134056000D01*
X227317976Y-134056000D01*
X227317987Y-134055999D01*
X227396567Y-134049815D01*
X227456088Y-134033865D01*
X227456089Y-134033864D01*
X226255000Y-132832776D01*
X225053909Y-134033864D01*
X156543810Y-134033864D01*
X155960127Y-133450181D01*
X155926642Y-133388858D01*
X155931626Y-133319166D01*
X155973498Y-133263233D01*
X156038962Y-133238816D01*
X156047808Y-133238500D01*
X193866071Y-133238500D01*
X193950615Y-133221682D01*
X193991744Y-133213501D01*
X194110127Y-133164465D01*
X194116418Y-133160261D01*
X194116427Y-133160258D01*
X194116426Y-133160257D01*
X194191438Y-133110135D01*
X194216669Y-133093277D01*
X195149288Y-132160656D01*
X195210611Y-132127172D01*
X195258754Y-132127688D01*
X195258945Y-132126484D01*
X195363888Y-132143105D01*
X195473713Y-132160500D01*
X195473714Y-132160500D01*
X195686286Y-132160500D01*
X195686287Y-132160500D01*
X195896243Y-132127246D01*
X196098412Y-132061557D01*
X196287816Y-131965051D01*
X196352831Y-131917815D01*
X196459786Y-131840109D01*
X196459788Y-131840106D01*
X196459792Y-131840104D01*
X196610104Y-131689792D01*
X196611745Y-131687532D01*
X196632372Y-131659144D01*
X196735050Y-131517817D01*
X196735051Y-131517816D01*
X196795912Y-131398368D01*
X196843885Y-131347574D01*
X196911706Y-131330778D01*
X196977841Y-131353315D01*
X197016881Y-131398369D01*
X197050900Y-131465135D01*
X197050904Y-131465141D01*
X197150710Y-131602511D01*
X197150711Y-131602512D01*
X197689270Y-131063952D01*
X197719901Y-131117007D01*
X197812993Y-131210099D01*
X197866046Y-131240729D01*
X197327486Y-131779288D01*
X197464858Y-131879095D01*
X197464864Y-131879099D01*
X197640164Y-131968418D01*
X197827294Y-132029221D01*
X198021618Y-132060000D01*
X198218382Y-132060000D01*
X198412705Y-132029221D01*
X198599835Y-131968418D01*
X198775143Y-131879095D01*
X198912511Y-131779288D01*
X198912512Y-131779287D01*
X198373954Y-131240729D01*
X198427007Y-131210099D01*
X198520099Y-131117007D01*
X198550729Y-131063953D01*
X199089287Y-131602512D01*
X199089288Y-131602511D01*
X199189097Y-131465141D01*
X199189097Y-131465140D01*
X199223118Y-131398370D01*
X199271091Y-131347574D01*
X199338912Y-131330778D01*
X199405047Y-131353315D01*
X199444087Y-131398368D01*
X199454775Y-131419343D01*
X199504951Y-131517820D01*
X199629890Y-131689786D01*
X199780213Y-131840109D01*
X199952179Y-131965048D01*
X199952181Y-131965049D01*
X199952184Y-131965051D01*
X200141588Y-132061557D01*
X200343757Y-132127246D01*
X200553713Y-132160500D01*
X200553714Y-132160500D01*
X200766286Y-132160500D01*
X200766287Y-132160500D01*
X200976243Y-132127246D01*
X201081604Y-132093012D01*
X224355000Y-132093012D01*
X224355000Y-133218987D01*
X224361184Y-133297563D01*
X224361184Y-133297564D01*
X224410150Y-133480307D01*
X224496037Y-133648873D01*
X224496038Y-133648875D01*
X224615099Y-133795900D01*
X224762124Y-133914961D01*
X224762126Y-133914962D01*
X224799976Y-133934247D01*
X224825099Y-133909125D01*
X226078224Y-132656000D01*
X226078222Y-132655998D01*
X226431776Y-132655998D01*
X226431776Y-132656000D01*
X227710022Y-133934246D01*
X227710023Y-133934246D01*
X227747873Y-133914961D01*
X227747874Y-133914961D01*
X227894900Y-133795900D01*
X228013961Y-133648875D01*
X228013962Y-133648873D01*
X228099849Y-133480307D01*
X228148815Y-133297564D01*
X228148815Y-133297563D01*
X228154999Y-133218987D01*
X228155000Y-133218975D01*
X228155000Y-132093024D01*
X228154999Y-132093012D01*
X228148815Y-132014436D01*
X228148815Y-132014435D01*
X228099849Y-131831692D01*
X228013962Y-131663126D01*
X228013961Y-131663124D01*
X227894900Y-131516099D01*
X227747872Y-131397037D01*
X227710023Y-131377752D01*
X227710021Y-131377752D01*
X226431776Y-132655998D01*
X226078222Y-132655998D01*
X224799976Y-131377752D01*
X224799974Y-131377752D01*
X224762128Y-131397036D01*
X224615099Y-131516099D01*
X224496038Y-131663124D01*
X224496037Y-131663126D01*
X224410150Y-131831692D01*
X224361184Y-132014435D01*
X224361184Y-132014436D01*
X224355000Y-132093012D01*
X201081604Y-132093012D01*
X201178412Y-132061557D01*
X201367816Y-131965051D01*
X201439779Y-131912767D01*
X201539786Y-131840109D01*
X201539788Y-131840106D01*
X201539792Y-131840104D01*
X201690104Y-131689792D01*
X201690106Y-131689788D01*
X201690109Y-131689786D01*
X201815048Y-131517820D01*
X201815050Y-131517817D01*
X201815051Y-131517816D01*
X201911557Y-131328412D01*
X201927893Y-131278134D01*
X225053910Y-131278134D01*
X226255000Y-132479224D01*
X226255001Y-132479224D01*
X227456088Y-131278134D01*
X227456088Y-131278133D01*
X227396564Y-131262184D01*
X227317987Y-131256000D01*
X225192012Y-131256000D01*
X225113436Y-131262184D01*
X225113435Y-131262184D01*
X225053910Y-131278134D01*
X201927893Y-131278134D01*
X201977246Y-131126243D01*
X202010500Y-130916287D01*
X202010500Y-130703713D01*
X201977246Y-130493757D01*
X201911557Y-130291588D01*
X201815051Y-130102184D01*
X201815049Y-130102181D01*
X201815048Y-130102179D01*
X201690109Y-129930213D01*
X201539786Y-129779890D01*
X201367820Y-129654951D01*
X201178414Y-129558444D01*
X201178413Y-129558443D01*
X201178412Y-129558443D01*
X200976243Y-129492754D01*
X200976241Y-129492753D01*
X200976240Y-129492753D01*
X200814957Y-129467208D01*
X200766287Y-129459500D01*
X200553713Y-129459500D01*
X200505042Y-129467208D01*
X200343760Y-129492753D01*
X200141585Y-129558444D01*
X199952179Y-129654951D01*
X199780213Y-129779890D01*
X199629890Y-129930213D01*
X199504951Y-130102180D01*
X199444088Y-130221630D01*
X199396113Y-130272426D01*
X199328292Y-130289221D01*
X199262157Y-130266683D01*
X199223118Y-130221629D01*
X199189102Y-130154868D01*
X199189095Y-130154858D01*
X199089288Y-130017487D01*
X199089288Y-130017486D01*
X198550728Y-130556045D01*
X198520099Y-130502993D01*
X198427007Y-130409901D01*
X198373953Y-130379270D01*
X198912512Y-129840711D01*
X198912511Y-129840710D01*
X198775141Y-129740904D01*
X198775135Y-129740900D01*
X198599835Y-129651581D01*
X198412705Y-129590778D01*
X198218382Y-129560000D01*
X198021618Y-129560000D01*
X197827294Y-129590778D01*
X197640164Y-129651581D01*
X197464856Y-129740904D01*
X197327487Y-129840710D01*
X197327486Y-129840710D01*
X197866046Y-130379270D01*
X197812993Y-130409901D01*
X197719901Y-130502993D01*
X197689270Y-130556046D01*
X197150710Y-130017486D01*
X197150710Y-130017487D01*
X197050902Y-130154859D01*
X197016880Y-130221631D01*
X196968906Y-130272426D01*
X196901085Y-130289221D01*
X196834950Y-130266683D01*
X196795911Y-130221629D01*
X196762470Y-130155998D01*
X196735051Y-130102184D01*
X196735050Y-130102182D01*
X196632373Y-129960858D01*
X196632370Y-129960855D01*
X196610104Y-129930208D01*
X196459792Y-129779896D01*
X196459786Y-129779890D01*
X196287820Y-129654951D01*
X196098414Y-129558444D01*
X196098413Y-129558443D01*
X196098412Y-129558443D01*
X195896243Y-129492754D01*
X195896241Y-129492753D01*
X195896240Y-129492753D01*
X195734957Y-129467208D01*
X195686287Y-129459500D01*
X195473713Y-129459500D01*
X195425042Y-129467208D01*
X195263760Y-129492753D01*
X195061585Y-129558444D01*
X194872179Y-129654951D01*
X194700213Y-129779890D01*
X194549890Y-129930213D01*
X194424949Y-130102182D01*
X194420484Y-130110946D01*
X194372509Y-130161742D01*
X194304688Y-130178536D01*
X194238553Y-130155998D01*
X194199516Y-130110946D01*
X194195050Y-130102182D01*
X194070109Y-129930213D01*
X193919786Y-129779890D01*
X193747820Y-129654951D01*
X193558414Y-129558444D01*
X193558413Y-129558443D01*
X193558412Y-129558443D01*
X193356243Y-129492754D01*
X193356241Y-129492753D01*
X193356240Y-129492753D01*
X193194957Y-129467208D01*
X193146287Y-129459500D01*
X192933713Y-129459500D01*
X192885042Y-129467208D01*
X192723760Y-129492753D01*
X192521585Y-129558444D01*
X192332179Y-129654951D01*
X192160213Y-129779890D01*
X192009890Y-129930213D01*
X191884949Y-130102182D01*
X191880484Y-130110946D01*
X191832509Y-130161742D01*
X191764688Y-130178536D01*
X191698553Y-130155998D01*
X191659516Y-130110946D01*
X191655050Y-130102182D01*
X191530109Y-129930213D01*
X191379786Y-129779890D01*
X191207820Y-129654951D01*
X191018414Y-129558444D01*
X191018413Y-129558443D01*
X191018412Y-129558443D01*
X190816243Y-129492754D01*
X190816241Y-129492753D01*
X190816240Y-129492753D01*
X190654957Y-129467208D01*
X190606287Y-129459500D01*
X190393713Y-129459500D01*
X190345042Y-129467208D01*
X190183760Y-129492753D01*
X189981585Y-129558444D01*
X189792179Y-129654951D01*
X189620213Y-129779890D01*
X189469890Y-129930213D01*
X189344949Y-130102182D01*
X189340484Y-130110946D01*
X189292509Y-130161742D01*
X189224688Y-130178536D01*
X189158553Y-130155998D01*
X189119516Y-130110946D01*
X189115050Y-130102182D01*
X188990109Y-129930213D01*
X188839786Y-129779890D01*
X188667820Y-129654951D01*
X188478414Y-129558444D01*
X188478413Y-129558443D01*
X188478412Y-129558443D01*
X188276243Y-129492754D01*
X188276241Y-129492753D01*
X188276240Y-129492753D01*
X188114957Y-129467208D01*
X188066287Y-129459500D01*
X187853713Y-129459500D01*
X187805042Y-129467208D01*
X187643760Y-129492753D01*
X187441585Y-129558444D01*
X187252179Y-129654951D01*
X187080213Y-129779890D01*
X186929890Y-129930213D01*
X186804949Y-130102182D01*
X186800484Y-130110946D01*
X186752509Y-130161742D01*
X186684688Y-130178536D01*
X186618553Y-130155998D01*
X186579516Y-130110946D01*
X186575050Y-130102182D01*
X186450109Y-129930213D01*
X186299786Y-129779890D01*
X186127820Y-129654951D01*
X185938414Y-129558444D01*
X185938413Y-129558443D01*
X185938412Y-129558443D01*
X185736243Y-129492754D01*
X185736241Y-129492753D01*
X185736240Y-129492753D01*
X185574957Y-129467208D01*
X185526287Y-129459500D01*
X185313713Y-129459500D01*
X185265042Y-129467208D01*
X185103760Y-129492753D01*
X184901585Y-129558444D01*
X184712179Y-129654951D01*
X184540213Y-129779890D01*
X184389890Y-129930213D01*
X184264949Y-130102182D01*
X184260484Y-130110946D01*
X184212509Y-130161742D01*
X184144688Y-130178536D01*
X184078553Y-130155998D01*
X184039516Y-130110946D01*
X184035050Y-130102182D01*
X183910109Y-129930213D01*
X183759786Y-129779890D01*
X183587820Y-129654951D01*
X183398414Y-129558444D01*
X183398413Y-129558443D01*
X183398412Y-129558443D01*
X183196243Y-129492754D01*
X183196241Y-129492753D01*
X183196240Y-129492753D01*
X183034957Y-129467208D01*
X182986287Y-129459500D01*
X182773713Y-129459500D01*
X182725042Y-129467208D01*
X182563760Y-129492753D01*
X182361585Y-129558444D01*
X182172179Y-129654951D01*
X182000213Y-129779890D01*
X181849890Y-129930213D01*
X181724949Y-130102182D01*
X181720484Y-130110946D01*
X181672509Y-130161742D01*
X181604688Y-130178536D01*
X181538553Y-130155998D01*
X181499516Y-130110946D01*
X181495050Y-130102182D01*
X181370109Y-129930213D01*
X181219786Y-129779890D01*
X181047820Y-129654951D01*
X180858414Y-129558444D01*
X180858413Y-129558443D01*
X180858412Y-129558443D01*
X180656243Y-129492754D01*
X180656241Y-129492753D01*
X180656240Y-129492753D01*
X180494957Y-129467208D01*
X180446287Y-129459500D01*
X180233713Y-129459500D01*
X180185042Y-129467208D01*
X180023760Y-129492753D01*
X179821585Y-129558444D01*
X179632179Y-129654951D01*
X179460213Y-129779890D01*
X179309890Y-129930213D01*
X179184949Y-130102182D01*
X179180484Y-130110946D01*
X179132509Y-130161742D01*
X179064688Y-130178536D01*
X178998553Y-130155998D01*
X178959516Y-130110946D01*
X178955050Y-130102182D01*
X178830109Y-129930213D01*
X178679786Y-129779890D01*
X178507820Y-129654951D01*
X178318414Y-129558444D01*
X178318413Y-129558443D01*
X178318412Y-129558443D01*
X178116243Y-129492754D01*
X178116241Y-129492753D01*
X178116240Y-129492753D01*
X177954957Y-129467208D01*
X177906287Y-129459500D01*
X177693713Y-129459500D01*
X177645042Y-129467208D01*
X177483760Y-129492753D01*
X177281585Y-129558444D01*
X177092179Y-129654951D01*
X176920213Y-129779890D01*
X176769890Y-129930213D01*
X176644949Y-130102182D01*
X176640484Y-130110946D01*
X176592509Y-130161742D01*
X176524688Y-130178536D01*
X176458553Y-130155998D01*
X176419516Y-130110946D01*
X176415050Y-130102182D01*
X176290109Y-129930213D01*
X176139786Y-129779890D01*
X175967820Y-129654951D01*
X175778414Y-129558444D01*
X175778413Y-129558443D01*
X175778412Y-129558443D01*
X175576243Y-129492754D01*
X175576241Y-129492753D01*
X175576240Y-129492753D01*
X175414957Y-129467208D01*
X175366287Y-129459500D01*
X175153713Y-129459500D01*
X175105042Y-129467208D01*
X174943760Y-129492753D01*
X174741585Y-129558444D01*
X174552179Y-129654951D01*
X174380213Y-129779890D01*
X174229890Y-129930213D01*
X174104949Y-130102182D01*
X174100484Y-130110946D01*
X174052509Y-130161742D01*
X173984688Y-130178536D01*
X173918553Y-130155998D01*
X173879516Y-130110946D01*
X173875050Y-130102182D01*
X173750109Y-129930213D01*
X173599786Y-129779890D01*
X173427820Y-129654951D01*
X173238414Y-129558444D01*
X173238413Y-129558443D01*
X173238412Y-129558443D01*
X173036243Y-129492754D01*
X173036241Y-129492753D01*
X173036240Y-129492753D01*
X172874957Y-129467208D01*
X172826287Y-129459500D01*
X172613713Y-129459500D01*
X172565042Y-129467208D01*
X172403760Y-129492753D01*
X172201585Y-129558444D01*
X172012179Y-129654951D01*
X171840213Y-129779890D01*
X171689890Y-129930213D01*
X171564949Y-130102182D01*
X171560484Y-130110946D01*
X171512509Y-130161742D01*
X171444688Y-130178536D01*
X171378553Y-130155998D01*
X171339516Y-130110946D01*
X171335050Y-130102182D01*
X171210109Y-129930213D01*
X171059786Y-129779890D01*
X170887820Y-129654951D01*
X170698414Y-129558444D01*
X170698413Y-129558443D01*
X170698412Y-129558443D01*
X170496243Y-129492754D01*
X170496241Y-129492753D01*
X170496240Y-129492753D01*
X170334957Y-129467208D01*
X170286287Y-129459500D01*
X170073713Y-129459500D01*
X170025042Y-129467208D01*
X169863760Y-129492753D01*
X169661585Y-129558444D01*
X169472179Y-129654951D01*
X169300213Y-129779890D01*
X169149890Y-129930213D01*
X169024949Y-130102182D01*
X169020484Y-130110946D01*
X168972509Y-130161742D01*
X168904688Y-130178536D01*
X168838553Y-130155998D01*
X168799516Y-130110946D01*
X168795050Y-130102182D01*
X168670109Y-129930213D01*
X168519786Y-129779890D01*
X168347820Y-129654951D01*
X168158414Y-129558444D01*
X168158413Y-129558443D01*
X168158412Y-129558443D01*
X167956243Y-129492754D01*
X167956241Y-129492753D01*
X167956240Y-129492753D01*
X167794957Y-129467208D01*
X167746287Y-129459500D01*
X167533713Y-129459500D01*
X167485042Y-129467208D01*
X167323760Y-129492753D01*
X167121585Y-129558444D01*
X166932179Y-129654951D01*
X166760213Y-129779890D01*
X166609890Y-129930213D01*
X166484949Y-130102182D01*
X166480484Y-130110946D01*
X166432509Y-130161742D01*
X166364688Y-130178536D01*
X166298553Y-130155998D01*
X166259516Y-130110946D01*
X166255050Y-130102182D01*
X166130109Y-129930213D01*
X165979786Y-129779890D01*
X165807820Y-129654951D01*
X165618414Y-129558444D01*
X165618413Y-129558443D01*
X165618412Y-129558443D01*
X165416243Y-129492754D01*
X165416241Y-129492753D01*
X165416240Y-129492753D01*
X165254957Y-129467208D01*
X165206287Y-129459500D01*
X164993713Y-129459500D01*
X164945042Y-129467208D01*
X164783760Y-129492753D01*
X164581585Y-129558444D01*
X164392179Y-129654951D01*
X164220213Y-129779890D01*
X164069890Y-129930213D01*
X163944949Y-130102182D01*
X163940484Y-130110946D01*
X163892509Y-130161742D01*
X163824688Y-130178536D01*
X163758553Y-130155998D01*
X163719516Y-130110946D01*
X163715050Y-130102182D01*
X163590109Y-129930213D01*
X163439786Y-129779890D01*
X163267820Y-129654951D01*
X163078414Y-129558444D01*
X163078413Y-129558443D01*
X163078412Y-129558443D01*
X162876243Y-129492754D01*
X162876241Y-129492753D01*
X162876240Y-129492753D01*
X162714957Y-129467208D01*
X162666287Y-129459500D01*
X162453713Y-129459500D01*
X162405042Y-129467208D01*
X162243760Y-129492753D01*
X162041585Y-129558444D01*
X161852179Y-129654951D01*
X161680213Y-129779890D01*
X161529890Y-129930213D01*
X161404949Y-130102182D01*
X161400484Y-130110946D01*
X161352509Y-130161742D01*
X161284688Y-130178536D01*
X161218553Y-130155998D01*
X161179516Y-130110946D01*
X161175050Y-130102182D01*
X161050109Y-129930213D01*
X160899786Y-129779890D01*
X160727820Y-129654951D01*
X160538414Y-129558444D01*
X160538413Y-129558443D01*
X160538412Y-129558443D01*
X160336243Y-129492754D01*
X160336241Y-129492753D01*
X160336240Y-129492753D01*
X160174957Y-129467208D01*
X160126287Y-129459500D01*
X159913713Y-129459500D01*
X159865042Y-129467208D01*
X159703760Y-129492753D01*
X159501585Y-129558444D01*
X159312179Y-129654951D01*
X159140213Y-129779890D01*
X158989890Y-129930213D01*
X158864949Y-130102182D01*
X158860484Y-130110946D01*
X158812509Y-130161742D01*
X158744688Y-130178536D01*
X158678553Y-130155998D01*
X158639516Y-130110946D01*
X158635050Y-130102182D01*
X158510109Y-129930213D01*
X158359786Y-129779890D01*
X158187820Y-129654951D01*
X157998414Y-129558444D01*
X157998413Y-129558443D01*
X157998412Y-129558443D01*
X157796243Y-129492754D01*
X157796241Y-129492753D01*
X157796240Y-129492753D01*
X157634957Y-129467208D01*
X157586287Y-129459500D01*
X157373713Y-129459500D01*
X157325042Y-129467208D01*
X157163760Y-129492753D01*
X156961585Y-129558444D01*
X156772179Y-129654951D01*
X156600213Y-129779890D01*
X156449890Y-129930213D01*
X156324949Y-130102182D01*
X156320484Y-130110946D01*
X156272509Y-130161742D01*
X156204688Y-130178536D01*
X156138553Y-130155998D01*
X156099516Y-130110946D01*
X156095050Y-130102182D01*
X155970109Y-129930213D01*
X155819786Y-129779890D01*
X155647820Y-129654951D01*
X155458414Y-129558444D01*
X155458413Y-129558443D01*
X155458412Y-129558443D01*
X155256243Y-129492754D01*
X155256241Y-129492753D01*
X155256240Y-129492753D01*
X155094957Y-129467208D01*
X155046287Y-129459500D01*
X154833713Y-129459500D01*
X154785042Y-129467208D01*
X154623760Y-129492753D01*
X154421585Y-129558444D01*
X154232179Y-129654951D01*
X154060215Y-129779889D01*
X153946673Y-129893431D01*
X153885350Y-129926915D01*
X153815658Y-129921931D01*
X153759725Y-129880059D01*
X153742810Y-129849082D01*
X153693797Y-129717671D01*
X153693793Y-129717664D01*
X153607547Y-129602455D01*
X153607544Y-129602452D01*
X153492335Y-129516206D01*
X153492328Y-129516202D01*
X153357482Y-129465908D01*
X153357483Y-129465908D01*
X153297883Y-129459501D01*
X153297881Y-129459500D01*
X153297873Y-129459500D01*
X153297864Y-129459500D01*
X151502129Y-129459500D01*
X151502123Y-129459501D01*
X151442516Y-129465908D01*
X151307671Y-129516202D01*
X151307664Y-129516206D01*
X151192455Y-129602452D01*
X151192452Y-129602455D01*
X151106206Y-129717664D01*
X151106202Y-129717671D01*
X151055908Y-129852517D01*
X151049501Y-129912116D01*
X151049500Y-129912135D01*
X151049500Y-131707870D01*
X151049501Y-131707876D01*
X151055908Y-131767483D01*
X151056909Y-131770165D01*
X151057068Y-131772391D01*
X151057692Y-131775031D01*
X151057264Y-131775132D01*
X151061894Y-131839857D01*
X151028410Y-131901180D01*
X150967087Y-131934666D01*
X150940728Y-131937500D01*
X141921929Y-131937500D01*
X141796261Y-131962497D01*
X141796255Y-131962499D01*
X141677874Y-132011534D01*
X141571326Y-132082726D01*
X141571325Y-132082727D01*
X126512873Y-147141181D01*
X126451550Y-147174666D01*
X126425192Y-147177500D01*
X114620807Y-147177500D01*
X114553768Y-147157815D01*
X114533126Y-147141181D01*
X113847015Y-146455070D01*
X113813530Y-146393747D01*
X113813095Y-146391660D01*
X113799737Y-146324503D01*
X113765975Y-146242993D01*
X113739397Y-146178827D01*
X113739390Y-146178814D01*
X113651789Y-146047711D01*
X113651786Y-146047707D01*
X113540292Y-145936213D01*
X113540288Y-145936210D01*
X113409185Y-145848609D01*
X113409172Y-145848602D01*
X113263501Y-145788264D01*
X113263489Y-145788261D01*
X113108845Y-145757500D01*
X113108842Y-145757500D01*
X112951158Y-145757500D01*
X112951155Y-145757500D01*
X112796510Y-145788261D01*
X112796498Y-145788264D01*
X112650827Y-145848602D01*
X112650814Y-145848609D01*
X112519711Y-145936210D01*
X112519707Y-145936213D01*
X112408213Y-146047707D01*
X112408210Y-146047711D01*
X112320609Y-146178814D01*
X112320602Y-146178827D01*
X112260264Y-146324498D01*
X112260261Y-146324510D01*
X112229500Y-146479153D01*
X112229500Y-146636846D01*
X112260261Y-146791489D01*
X112260264Y-146791501D01*
X112320602Y-146937172D01*
X112320609Y-146937185D01*
X112408210Y-147068288D01*
X112408213Y-147068292D01*
X112519707Y-147179786D01*
X112519711Y-147179789D01*
X112650814Y-147267390D01*
X112650827Y-147267397D01*
X112729539Y-147300000D01*
X112796503Y-147327737D01*
X112863581Y-147341079D01*
X112925490Y-147373463D01*
X112927070Y-147375015D01*
X113794724Y-148242669D01*
X113885327Y-148333272D01*
X113885332Y-148333277D01*
X113991866Y-148404461D01*
X113991872Y-148404464D01*
X113991873Y-148404465D01*
X114110256Y-148453501D01*
X114110260Y-148453501D01*
X114110261Y-148453502D01*
X114237854Y-148478883D01*
X114299765Y-148511268D01*
X114334339Y-148571984D01*
X114330598Y-148641754D01*
X114289732Y-148698425D01*
X114224714Y-148724007D01*
X114213662Y-148724500D01*
X75554500Y-148724500D01*
X75487461Y-148704815D01*
X75441706Y-148652011D01*
X75430500Y-148600500D01*
X75430500Y-124590000D01*
X87004840Y-124590000D01*
X87815856Y-124590000D01*
X87800000Y-124649174D01*
X87800000Y-124780826D01*
X87815856Y-124840000D01*
X87004840Y-124840000D01*
X87029548Y-124996002D01*
X87087914Y-125175637D01*
X87173670Y-125343940D01*
X87284685Y-125496741D01*
X87284689Y-125496746D01*
X87418253Y-125630310D01*
X87418258Y-125630314D01*
X87571059Y-125741329D01*
X87739362Y-125827085D01*
X87918997Y-125885451D01*
X88105553Y-125915000D01*
X88775000Y-125915000D01*
X88775000Y-125215000D01*
X89025000Y-125215000D01*
X89025000Y-125915000D01*
X89694447Y-125915000D01*
X89881002Y-125885451D01*
X90060637Y-125827085D01*
X90228940Y-125741329D01*
X90381741Y-125630314D01*
X90381746Y-125630310D01*
X90515310Y-125496746D01*
X90515314Y-125496741D01*
X90626329Y-125343940D01*
X90712085Y-125175637D01*
X90770451Y-124996002D01*
X90795160Y-124840000D01*
X89984144Y-124840000D01*
X90000000Y-124780826D01*
X90000000Y-124649174D01*
X89984144Y-124590000D01*
X90795160Y-124590000D01*
X90770451Y-124433997D01*
X90712085Y-124254362D01*
X90626329Y-124086059D01*
X90515314Y-123933258D01*
X90515310Y-123933253D01*
X90381746Y-123799689D01*
X90381741Y-123799685D01*
X90228940Y-123688670D01*
X90060637Y-123602914D01*
X89881002Y-123544548D01*
X89694447Y-123515000D01*
X89025000Y-123515000D01*
X89025000Y-124215000D01*
X88775000Y-124215000D01*
X88775000Y-123515000D01*
X88105553Y-123515000D01*
X87918997Y-123544548D01*
X87739362Y-123602914D01*
X87571059Y-123688670D01*
X87418258Y-123799685D01*
X87418253Y-123799689D01*
X87284689Y-123933253D01*
X87284685Y-123933258D01*
X87173670Y-124086059D01*
X87087914Y-124254362D01*
X87029548Y-124433997D01*
X87004840Y-124590000D01*
X75430500Y-124590000D01*
X75430500Y-119912648D01*
X86899500Y-119912648D01*
X86899500Y-120117351D01*
X86931522Y-120319534D01*
X86994781Y-120514223D01*
X87087715Y-120696613D01*
X87208028Y-120862213D01*
X87352786Y-121006971D01*
X87507749Y-121119556D01*
X87518390Y-121127287D01*
X87634607Y-121186503D01*
X87700776Y-121220218D01*
X87700778Y-121220218D01*
X87700781Y-121220220D01*
X87805137Y-121254127D01*
X87895465Y-121283477D01*
X87996557Y-121299488D01*
X88097648Y-121315500D01*
X88097649Y-121315500D01*
X89702351Y-121315500D01*
X89702352Y-121315500D01*
X89904534Y-121283477D01*
X90099219Y-121220220D01*
X90281610Y-121127287D01*
X90374590Y-121059732D01*
X90447213Y-121006971D01*
X90447215Y-121006968D01*
X90447219Y-121006966D01*
X90591966Y-120862219D01*
X90591968Y-120862215D01*
X90591971Y-120862213D01*
X90644732Y-120789590D01*
X90712287Y-120696610D01*
X90805220Y-120514219D01*
X90868477Y-120319534D01*
X90900500Y-120117352D01*
X90900500Y-119912648D01*
X90868477Y-119710466D01*
X90805220Y-119515781D01*
X90805218Y-119515778D01*
X90805218Y-119515776D01*
X90771503Y-119449607D01*
X90712287Y-119333390D01*
X90704556Y-119322749D01*
X90591971Y-119167786D01*
X90447213Y-119023028D01*
X90281613Y-118902715D01*
X90281612Y-118902714D01*
X90281610Y-118902713D01*
X90224653Y-118873691D01*
X90099223Y-118809781D01*
X89904534Y-118746522D01*
X89729995Y-118718878D01*
X89702352Y-118714500D01*
X88097648Y-118714500D01*
X88073329Y-118718351D01*
X87895465Y-118746522D01*
X87700776Y-118809781D01*
X87518386Y-118902715D01*
X87352786Y-119023028D01*
X87208028Y-119167786D01*
X87087715Y-119333386D01*
X86994781Y-119515776D01*
X86931522Y-119710465D01*
X86899500Y-119912648D01*
X75430500Y-119912648D01*
X75430500Y-106569778D01*
X77339500Y-106569778D01*
X77339500Y-106790221D01*
X77373985Y-107007952D01*
X77442103Y-107217603D01*
X77442104Y-107217606D01*
X77542187Y-107414025D01*
X77671752Y-107592358D01*
X77671756Y-107592363D01*
X77827636Y-107748243D01*
X77827641Y-107748247D01*
X77967254Y-107849682D01*
X78009920Y-107905012D01*
X78015899Y-107974625D01*
X77983293Y-108036420D01*
X77967254Y-108050318D01*
X77827641Y-108151752D01*
X77827636Y-108151756D01*
X77671756Y-108307636D01*
X77671752Y-108307641D01*
X77542187Y-108485974D01*
X77442104Y-108682393D01*
X77442103Y-108682396D01*
X77373985Y-108892047D01*
X77339500Y-109109778D01*
X77339500Y-109330221D01*
X77373985Y-109547952D01*
X77442103Y-109757603D01*
X77442104Y-109757606D01*
X77481637Y-109835192D01*
X77537129Y-109944100D01*
X77542187Y-109954025D01*
X77671752Y-110132358D01*
X77671756Y-110132363D01*
X77827636Y-110288243D01*
X77827641Y-110288247D01*
X77967254Y-110389682D01*
X78009920Y-110445012D01*
X78015899Y-110514625D01*
X77983293Y-110576420D01*
X77967254Y-110590318D01*
X77827641Y-110691752D01*
X77827636Y-110691756D01*
X77671756Y-110847636D01*
X77671752Y-110847641D01*
X77542187Y-111025974D01*
X77442104Y-111222393D01*
X77442103Y-111222396D01*
X77373985Y-111432047D01*
X77339500Y-111649778D01*
X77339500Y-111870221D01*
X77373985Y-112087952D01*
X77442103Y-112297603D01*
X77442104Y-112297606D01*
X77510122Y-112431096D01*
X77537129Y-112484100D01*
X77542187Y-112494025D01*
X77671752Y-112672358D01*
X77671756Y-112672363D01*
X77827636Y-112828243D01*
X77827641Y-112828247D01*
X78005976Y-112957814D01*
X78005978Y-112957815D01*
X78021900Y-112965928D01*
X78042979Y-112976668D01*
X78093775Y-113024642D01*
X78110571Y-113092463D01*
X78088034Y-113158598D01*
X78059571Y-113187471D01*
X77893105Y-113308416D01*
X77748417Y-113453104D01*
X77748417Y-113453105D01*
X77628140Y-113618650D01*
X77535244Y-113800970D01*
X77472009Y-113995586D01*
X77443593Y-114175000D01*
X78204092Y-114175000D01*
X78190000Y-114227591D01*
X78190000Y-114372409D01*
X78204092Y-114425000D01*
X77443593Y-114425000D01*
X77472009Y-114604413D01*
X77535244Y-114799029D01*
X77628140Y-114981349D01*
X77748417Y-115146894D01*
X77748417Y-115146895D01*
X77893104Y-115291582D01*
X78059571Y-115412528D01*
X78102236Y-115467858D01*
X78108215Y-115537471D01*
X78075609Y-115599266D01*
X78042981Y-115623330D01*
X78005976Y-115642185D01*
X77827641Y-115771752D01*
X77827636Y-115771756D01*
X77671756Y-115927636D01*
X77671752Y-115927641D01*
X77542187Y-116105974D01*
X77442104Y-116302393D01*
X77442103Y-116302396D01*
X77373985Y-116512047D01*
X77339500Y-116729778D01*
X77339500Y-116950221D01*
X77373985Y-117167952D01*
X77442103Y-117377603D01*
X77442104Y-117377606D01*
X77542187Y-117574025D01*
X77671752Y-117752358D01*
X77671756Y-117752363D01*
X77827636Y-117908243D01*
X77827641Y-117908247D01*
X77929606Y-117982328D01*
X78005978Y-118037815D01*
X78134375Y-118103237D01*
X78202393Y-118137895D01*
X78202396Y-118137896D01*
X78307221Y-118171955D01*
X78412049Y-118206015D01*
X78629778Y-118240500D01*
X78629779Y-118240500D01*
X78850221Y-118240500D01*
X78850222Y-118240500D01*
X79067951Y-118206015D01*
X79277606Y-118137895D01*
X79474022Y-118037815D01*
X79652365Y-117908242D01*
X79702536Y-117858070D01*
X79763857Y-117824586D01*
X79833548Y-117829570D01*
X79889482Y-117871441D01*
X79906398Y-117902419D01*
X79936202Y-117982328D01*
X79936206Y-117982335D01*
X80022452Y-118097544D01*
X80022455Y-118097547D01*
X80137664Y-118183793D01*
X80137671Y-118183797D01*
X80272517Y-118234091D01*
X80272516Y-118234091D01*
X80279444Y-118234835D01*
X80332127Y-118240500D01*
X82227872Y-118240499D01*
X82287483Y-118234091D01*
X82422331Y-118183796D01*
X82537546Y-118097546D01*
X82623796Y-117982331D01*
X82674091Y-117847483D01*
X82680500Y-117787873D01*
X82680499Y-115892128D01*
X82674091Y-115832517D01*
X82667266Y-115814219D01*
X82623797Y-115697671D01*
X82623793Y-115697664D01*
X82537547Y-115582455D01*
X82537544Y-115582452D01*
X82422335Y-115496206D01*
X82422328Y-115496202D01*
X82342419Y-115466398D01*
X82318691Y-115448636D01*
X82293484Y-115433057D01*
X82291033Y-115427931D01*
X82286485Y-115424527D01*
X82276128Y-115396760D01*
X82263344Y-115370023D01*
X82264053Y-115364385D01*
X82262068Y-115359062D01*
X82268367Y-115330102D01*
X82272068Y-115300700D01*
X82276028Y-115294887D01*
X82276920Y-115290789D01*
X82290623Y-115270677D01*
X82294158Y-115266448D01*
X82347959Y-115212648D01*
X86899500Y-115212648D01*
X86899500Y-115417352D01*
X86903008Y-115439500D01*
X86931522Y-115619534D01*
X86994781Y-115814223D01*
X87087715Y-115996613D01*
X87208028Y-116162213D01*
X87352786Y-116306971D01*
X87507749Y-116419556D01*
X87518390Y-116427287D01*
X87634607Y-116486503D01*
X87700776Y-116520218D01*
X87700778Y-116520218D01*
X87700781Y-116520220D01*
X87805137Y-116554127D01*
X87895465Y-116583477D01*
X87996557Y-116599488D01*
X88097648Y-116615500D01*
X88097649Y-116615500D01*
X89702351Y-116615500D01*
X89702352Y-116615500D01*
X89904534Y-116583477D01*
X90099219Y-116520220D01*
X90281610Y-116427287D01*
X90374590Y-116359732D01*
X90447213Y-116306971D01*
X90447215Y-116306968D01*
X90447219Y-116306966D01*
X90591966Y-116162219D01*
X90591968Y-116162215D01*
X90591971Y-116162213D01*
X90644732Y-116089590D01*
X90712287Y-115996610D01*
X90805220Y-115814219D01*
X90868477Y-115619534D01*
X90900500Y-115417352D01*
X90900500Y-115212648D01*
X90887644Y-115131482D01*
X90868477Y-115010465D01*
X90805218Y-114815776D01*
X90766664Y-114740110D01*
X90712287Y-114633390D01*
X90691234Y-114604413D01*
X90591971Y-114467786D01*
X90447213Y-114323028D01*
X90281613Y-114202715D01*
X90281612Y-114202714D01*
X90281610Y-114202713D01*
X90224653Y-114173691D01*
X90099223Y-114109781D01*
X89904534Y-114046522D01*
X89729995Y-114018878D01*
X89702352Y-114014500D01*
X88097648Y-114014500D01*
X88073329Y-114018351D01*
X87895465Y-114046522D01*
X87700776Y-114109781D01*
X87518386Y-114202715D01*
X87352786Y-114323028D01*
X87208028Y-114467786D01*
X87087715Y-114633386D01*
X86994781Y-114815776D01*
X86931522Y-115010465D01*
X86909914Y-115146895D01*
X86899500Y-115212648D01*
X82347959Y-115212648D01*
X82348242Y-115212365D01*
X82477815Y-115034022D01*
X82577895Y-114837606D01*
X82646015Y-114627951D01*
X82680500Y-114410222D01*
X82680500Y-114189778D01*
X82646015Y-113972049D01*
X82590429Y-113800970D01*
X82577896Y-113762396D01*
X82577895Y-113762393D01*
X82522551Y-113653777D01*
X82477815Y-113565978D01*
X82442323Y-113517127D01*
X82348247Y-113387641D01*
X82348243Y-113387636D01*
X82192363Y-113231756D01*
X82192358Y-113231752D01*
X82052745Y-113130318D01*
X82010079Y-113074989D01*
X82004100Y-113005375D01*
X82036705Y-112943580D01*
X82052745Y-112929682D01*
X82192358Y-112828247D01*
X82192356Y-112828247D01*
X82192365Y-112828242D01*
X82348242Y-112672365D01*
X82477815Y-112494022D01*
X82577895Y-112297606D01*
X82646015Y-112087951D01*
X82680500Y-111870222D01*
X82680500Y-111649778D01*
X82646015Y-111432049D01*
X82577895Y-111222394D01*
X82577895Y-111222393D01*
X82543237Y-111154375D01*
X82477815Y-111025978D01*
X82449681Y-110987254D01*
X82348247Y-110847641D01*
X82348243Y-110847636D01*
X82192363Y-110691756D01*
X82192358Y-110691752D01*
X82052745Y-110590318D01*
X82010079Y-110534989D01*
X82004100Y-110465375D01*
X82036705Y-110403580D01*
X82052745Y-110389682D01*
X82192358Y-110288247D01*
X82192356Y-110288247D01*
X82192365Y-110288242D01*
X82348242Y-110132365D01*
X82477815Y-109954022D01*
X82577895Y-109757606D01*
X82646015Y-109547951D01*
X82680500Y-109330222D01*
X82680500Y-109109778D01*
X82646015Y-108892049D01*
X82596327Y-108739123D01*
X82577896Y-108682396D01*
X82577895Y-108682393D01*
X82527338Y-108583172D01*
X82477815Y-108485978D01*
X82469506Y-108474542D01*
X82407651Y-108389404D01*
X82384171Y-108323598D01*
X82399997Y-108255544D01*
X82420284Y-108228842D01*
X83055276Y-107593852D01*
X83126465Y-107487309D01*
X83175501Y-107368926D01*
X83180559Y-107343499D01*
X83194384Y-107273999D01*
X83200500Y-107243253D01*
X83200500Y-105660935D01*
X83205265Y-105644254D01*
X83205023Y-105627750D01*
X83218169Y-105599082D01*
X83219212Y-105595434D01*
X83220280Y-105593716D01*
X83226002Y-105585153D01*
X86321500Y-105585153D01*
X86321500Y-105742846D01*
X86352261Y-105897489D01*
X86352264Y-105897501D01*
X86412602Y-106043172D01*
X86412609Y-106043185D01*
X86500210Y-106174288D01*
X86500213Y-106174292D01*
X86611707Y-106285786D01*
X86611711Y-106285789D01*
X86742814Y-106373390D01*
X86742827Y-106373397D01*
X86888498Y-106433735D01*
X86888503Y-106433737D01*
X87043153Y-106464499D01*
X87043156Y-106464500D01*
X87043158Y-106464500D01*
X87200844Y-106464500D01*
X87200845Y-106464499D01*
X87355497Y-106433737D01*
X87501179Y-106373394D01*
X87632289Y-106285789D01*
X87743789Y-106174289D01*
X87831394Y-106043179D01*
X87891737Y-105897497D01*
X87905079Y-105830417D01*
X87937462Y-105768508D01*
X87938955Y-105766988D01*
X88625126Y-105080819D01*
X88686449Y-105047334D01*
X88712807Y-105044500D01*
X92955662Y-105044500D01*
X93022701Y-105064185D01*
X93068456Y-105116989D01*
X93078400Y-105186147D01*
X93049375Y-105249703D01*
X92998995Y-105284682D01*
X92887671Y-105326202D01*
X92887664Y-105326206D01*
X92772455Y-105412452D01*
X92772452Y-105412455D01*
X92686206Y-105527664D01*
X92686202Y-105527671D01*
X92635908Y-105662517D01*
X92629501Y-105722116D01*
X92629500Y-105722135D01*
X92629500Y-107517870D01*
X92629501Y-107517876D01*
X92635908Y-107577483D01*
X92686202Y-107712328D01*
X92686206Y-107712335D01*
X92772452Y-107827544D01*
X92772455Y-107827547D01*
X92887664Y-107913793D01*
X92887671Y-107913797D01*
X93022517Y-107964091D01*
X93022516Y-107964091D01*
X93029444Y-107964835D01*
X93082127Y-107970500D01*
X94877872Y-107970499D01*
X94937483Y-107964091D01*
X95072331Y-107913796D01*
X95187546Y-107827546D01*
X95273796Y-107712331D01*
X95322810Y-107580916D01*
X95364681Y-107524984D01*
X95430145Y-107500566D01*
X95498418Y-107515417D01*
X95526673Y-107536569D01*
X95640213Y-107650109D01*
X95747732Y-107728225D01*
X95790398Y-107783554D01*
X95796377Y-107853168D01*
X95789409Y-107875995D01*
X95750263Y-107970503D01*
X95750262Y-107970506D01*
X95750262Y-107970507D01*
X95750261Y-107970510D01*
X95719500Y-108125153D01*
X95719500Y-108287191D01*
X95699815Y-108354230D01*
X95683181Y-108374872D01*
X91442720Y-112615333D01*
X91413882Y-112658496D01*
X91413880Y-112658499D01*
X91371538Y-112721867D01*
X91371533Y-112721875D01*
X91322499Y-112840255D01*
X91322497Y-112840261D01*
X91297500Y-112965928D01*
X91297500Y-112965931D01*
X91297500Y-140780069D01*
X91297500Y-140780071D01*
X91297499Y-140780071D01*
X91319750Y-140891929D01*
X91319751Y-140891929D01*
X91319751Y-140891931D01*
X91321661Y-140901534D01*
X91322500Y-140905747D01*
X91371533Y-141024125D01*
X91417668Y-141093171D01*
X91421438Y-141098814D01*
X91442726Y-141130673D01*
X94327325Y-144015272D01*
X94327332Y-144015278D01*
X94433159Y-144085989D01*
X94433160Y-144085989D01*
X94433871Y-144086464D01*
X94433877Y-144086467D01*
X94552251Y-144135499D01*
X94552256Y-144135501D01*
X94552260Y-144135501D01*
X94552261Y-144135502D01*
X94677928Y-144160500D01*
X94677931Y-144160500D01*
X96416409Y-144160500D01*
X96483448Y-144180185D01*
X96526894Y-144228205D01*
X96561658Y-144296433D01*
X96700484Y-144487510D01*
X96867491Y-144654517D01*
X97058568Y-144793343D01*
X97137899Y-144833764D01*
X97269004Y-144900566D01*
X97269006Y-144900566D01*
X97269009Y-144900568D01*
X97389413Y-144939689D01*
X97493632Y-144973553D01*
X97726904Y-145010500D01*
X97726909Y-145010500D01*
X97963098Y-145010500D01*
X98196369Y-144973553D01*
X98215946Y-144967192D01*
X98420993Y-144900568D01*
X98631434Y-144793343D01*
X98822511Y-144654517D01*
X98989518Y-144487510D01*
X99128344Y-144296433D01*
X99163108Y-144228205D01*
X99211083Y-144177409D01*
X99273593Y-144160500D01*
X104616408Y-144160500D01*
X104683447Y-144180185D01*
X104726893Y-144228205D01*
X104761657Y-144296433D01*
X104900483Y-144487510D01*
X105067490Y-144654517D01*
X105258567Y-144793343D01*
X105337898Y-144833764D01*
X105469003Y-144900566D01*
X105469005Y-144900566D01*
X105469008Y-144900568D01*
X105589412Y-144939689D01*
X105693631Y-144973553D01*
X105926903Y-145010500D01*
X105926908Y-145010500D01*
X106163097Y-145010500D01*
X106396368Y-144973553D01*
X106415945Y-144967192D01*
X106620992Y-144900568D01*
X106831433Y-144793343D01*
X107022510Y-144654517D01*
X107189517Y-144487510D01*
X107328343Y-144296433D01*
X107435568Y-144085992D01*
X107508553Y-143861368D01*
X107508997Y-143858565D01*
X107545500Y-143628097D01*
X107545500Y-143391902D01*
X107508553Y-143158631D01*
X107435566Y-142934003D01*
X107328342Y-142723566D01*
X107189517Y-142532490D01*
X107022510Y-142365483D01*
X106831433Y-142226657D01*
X106801643Y-142211478D01*
X106620996Y-142119433D01*
X106396368Y-142046446D01*
X106163097Y-142009500D01*
X106163092Y-142009500D01*
X105926908Y-142009500D01*
X105926903Y-142009500D01*
X105693631Y-142046446D01*
X105469003Y-142119433D01*
X105258566Y-142226657D01*
X105149550Y-142305862D01*
X105067490Y-142365483D01*
X105067488Y-142365485D01*
X105067487Y-142365485D01*
X104900485Y-142532487D01*
X104900485Y-142532488D01*
X104900483Y-142532490D01*
X104847288Y-142605706D01*
X104761657Y-142723566D01*
X104726893Y-142791795D01*
X104678918Y-142842591D01*
X104616408Y-142859500D01*
X99273593Y-142859500D01*
X99206554Y-142839815D01*
X99163108Y-142791795D01*
X99128343Y-142723566D01*
X98989518Y-142532490D01*
X98822511Y-142365483D01*
X98631434Y-142226657D01*
X98601644Y-142211478D01*
X98420997Y-142119433D01*
X98196369Y-142046446D01*
X97963098Y-142009500D01*
X97963093Y-142009500D01*
X97726909Y-142009500D01*
X97726904Y-142009500D01*
X97493632Y-142046446D01*
X97269004Y-142119433D01*
X97058567Y-142226657D01*
X96949551Y-142305862D01*
X96867491Y-142365483D01*
X96867489Y-142365485D01*
X96867488Y-142365485D01*
X96700486Y-142532487D01*
X96700486Y-142532488D01*
X96700484Y-142532490D01*
X96647289Y-142605706D01*
X96561658Y-142723566D01*
X96526894Y-142791795D01*
X96478919Y-142842591D01*
X96416409Y-142859500D01*
X95062808Y-142859500D01*
X94995769Y-142839815D01*
X94975127Y-142823181D01*
X92634819Y-140482873D01*
X92601334Y-140421550D01*
X92598500Y-140395192D01*
X92598500Y-138013807D01*
X92618185Y-137946768D01*
X92670989Y-137901013D01*
X92740147Y-137891069D01*
X92803703Y-137920094D01*
X92810181Y-137926126D01*
X94236724Y-139352669D01*
X94327331Y-139443276D01*
X94327332Y-139443277D01*
X94433866Y-139514461D01*
X94433872Y-139514464D01*
X94433873Y-139514465D01*
X94552256Y-139563501D01*
X94552260Y-139563501D01*
X94552261Y-139563502D01*
X94677928Y-139588500D01*
X94677931Y-139588500D01*
X96750112Y-139588500D01*
X96817151Y-139608185D01*
X96837793Y-139624819D01*
X96867491Y-139654517D01*
X97058568Y-139793343D01*
X97140325Y-139835000D01*
X97269004Y-139900566D01*
X97269006Y-139900566D01*
X97269009Y-139900568D01*
X97374675Y-139934901D01*
X97493632Y-139973553D01*
X97726904Y-140010500D01*
X97726909Y-140010500D01*
X97963098Y-140010500D01*
X98196369Y-139973553D01*
X98420993Y-139900568D01*
X98631434Y-139793343D01*
X98822511Y-139654517D01*
X98989518Y-139487510D01*
X99128344Y-139296433D01*
X99163108Y-139228205D01*
X99211083Y-139177409D01*
X99273593Y-139160500D01*
X104616408Y-139160500D01*
X104683447Y-139180185D01*
X104726893Y-139228205D01*
X104761657Y-139296433D01*
X104900483Y-139487510D01*
X105067490Y-139654517D01*
X105258567Y-139793343D01*
X105340324Y-139835000D01*
X105469003Y-139900566D01*
X105469005Y-139900566D01*
X105469008Y-139900568D01*
X105574674Y-139934901D01*
X105693631Y-139973553D01*
X105926903Y-140010500D01*
X105926908Y-140010500D01*
X106163097Y-140010500D01*
X106396368Y-139973553D01*
X106620992Y-139900568D01*
X106831433Y-139793343D01*
X107022510Y-139654517D01*
X107189517Y-139487510D01*
X107328343Y-139296433D01*
X107435568Y-139085992D01*
X107508553Y-138861368D01*
X107521668Y-138778565D01*
X107545500Y-138628097D01*
X107545500Y-138391902D01*
X107508553Y-138158631D01*
X107474689Y-138054412D01*
X107435568Y-137934008D01*
X107435566Y-137934005D01*
X107435566Y-137934003D01*
X107363107Y-137791795D01*
X107328343Y-137723567D01*
X107189517Y-137532490D01*
X107022510Y-137365483D01*
X106831433Y-137226657D01*
X106826354Y-137224069D01*
X106620996Y-137119433D01*
X106396368Y-137046446D01*
X106163097Y-137009500D01*
X106163092Y-137009500D01*
X105926908Y-137009500D01*
X105926903Y-137009500D01*
X105693631Y-137046446D01*
X105469003Y-137119433D01*
X105258566Y-137226657D01*
X105164501Y-137295000D01*
X105067490Y-137365483D01*
X105067488Y-137365485D01*
X105067487Y-137365485D01*
X104900485Y-137532487D01*
X104900485Y-137532488D01*
X104900483Y-137532490D01*
X104849976Y-137602007D01*
X104761657Y-137723566D01*
X104726893Y-137791795D01*
X104678918Y-137842591D01*
X104616408Y-137859500D01*
X99273593Y-137859500D01*
X99206554Y-137839815D01*
X99163108Y-137791795D01*
X99151072Y-137768174D01*
X99128344Y-137723567D01*
X98989518Y-137532490D01*
X98822511Y-137365483D01*
X98631434Y-137226657D01*
X98626355Y-137224069D01*
X98420997Y-137119433D01*
X98196369Y-137046446D01*
X97963098Y-137009500D01*
X97963093Y-137009500D01*
X97726909Y-137009500D01*
X97726904Y-137009500D01*
X97493632Y-137046446D01*
X97269004Y-137119433D01*
X97058567Y-137226657D01*
X96964502Y-137295000D01*
X96867491Y-137365483D01*
X96867489Y-137365485D01*
X96867488Y-137365485D01*
X96700486Y-137532487D01*
X96700486Y-137532488D01*
X96700484Y-137532490D01*
X96649977Y-137602007D01*
X96561658Y-137723566D01*
X96454434Y-137934005D01*
X96381447Y-138158633D01*
X96377604Y-138182900D01*
X96347673Y-138246034D01*
X96288361Y-138282964D01*
X96255131Y-138287500D01*
X95062807Y-138287500D01*
X94995768Y-138267815D01*
X94975126Y-138251181D01*
X93142819Y-136418873D01*
X93109334Y-136357550D01*
X93106500Y-136331192D01*
X93106500Y-133399817D01*
X96445001Y-133399817D01*
X96445001Y-133620180D01*
X96479474Y-133837834D01*
X96547568Y-134047409D01*
X96647616Y-134243762D01*
X96768321Y-134409899D01*
X96768322Y-134409900D01*
X97305570Y-133872652D01*
X97340113Y-133924350D01*
X97430650Y-134014887D01*
X97482346Y-134049428D01*
X96945098Y-134586676D01*
X96945099Y-134586678D01*
X97111237Y-134707383D01*
X97307590Y-134807431D01*
X97517165Y-134875525D01*
X97734820Y-134909999D01*
X97955182Y-134909999D01*
X98172836Y-134875525D01*
X98382411Y-134807431D01*
X98578761Y-134707385D01*
X98744901Y-134586676D01*
X98744902Y-134586675D01*
X98207655Y-134049428D01*
X98259352Y-134014887D01*
X98349889Y-133924350D01*
X98384431Y-133872653D01*
X98921677Y-134409900D01*
X98921678Y-134409899D01*
X99042387Y-134243759D01*
X99142433Y-134047409D01*
X99210527Y-133837834D01*
X99245001Y-133620180D01*
X99245001Y-133399817D01*
X104645000Y-133399817D01*
X104645000Y-133620180D01*
X104679473Y-133837834D01*
X104747567Y-134047409D01*
X104847615Y-134243762D01*
X104968320Y-134409899D01*
X104968321Y-134409900D01*
X105505569Y-133872652D01*
X105540112Y-133924350D01*
X105630649Y-134014887D01*
X105682345Y-134049428D01*
X105145097Y-134586676D01*
X105145098Y-134586678D01*
X105311236Y-134707383D01*
X105507589Y-134807431D01*
X105717164Y-134875525D01*
X105934819Y-134909999D01*
X106155181Y-134909999D01*
X106372835Y-134875525D01*
X106582410Y-134807431D01*
X106778760Y-134707385D01*
X106944900Y-134586676D01*
X106944901Y-134586675D01*
X106407654Y-134049428D01*
X106459351Y-134014887D01*
X106549888Y-133924350D01*
X106584430Y-133872653D01*
X107121676Y-134409900D01*
X107121677Y-134409899D01*
X107242386Y-134243759D01*
X107342432Y-134047409D01*
X107410526Y-133837834D01*
X107445000Y-133620180D01*
X107445000Y-133399817D01*
X107410526Y-133182163D01*
X107342432Y-132972588D01*
X107242384Y-132776235D01*
X107121679Y-132610097D01*
X107121677Y-132610096D01*
X106584429Y-133147343D01*
X106549888Y-133095648D01*
X106459351Y-133005111D01*
X106407653Y-132970568D01*
X106944901Y-132433320D01*
X106944900Y-132433319D01*
X106778763Y-132312614D01*
X106582410Y-132212566D01*
X106372835Y-132144472D01*
X106155181Y-132109999D01*
X105934819Y-132109999D01*
X105717164Y-132144472D01*
X105507589Y-132212566D01*
X105311236Y-132312614D01*
X105145098Y-132433319D01*
X105145098Y-132433321D01*
X105682346Y-132970568D01*
X105630649Y-133005111D01*
X105540112Y-133095648D01*
X105505569Y-133147344D01*
X104968322Y-132610097D01*
X104968320Y-132610097D01*
X104847615Y-132776235D01*
X104747567Y-132972588D01*
X104679473Y-133182163D01*
X104645000Y-133399817D01*
X99245001Y-133399817D01*
X99210527Y-133182163D01*
X99142433Y-132972588D01*
X99042385Y-132776235D01*
X98921680Y-132610097D01*
X98921678Y-132610096D01*
X98384430Y-133147343D01*
X98349889Y-133095648D01*
X98259352Y-133005111D01*
X98207654Y-132970568D01*
X98744902Y-132433320D01*
X98744901Y-132433319D01*
X98578764Y-132312614D01*
X98382411Y-132212566D01*
X98172836Y-132144472D01*
X97955182Y-132109999D01*
X97734820Y-132109999D01*
X97517165Y-132144472D01*
X97307590Y-132212566D01*
X97111237Y-132312614D01*
X96945099Y-132433319D01*
X96945099Y-132433321D01*
X97482347Y-132970568D01*
X97430650Y-133005111D01*
X97340113Y-133095648D01*
X97305570Y-133147344D01*
X96768323Y-132610097D01*
X96768321Y-132610097D01*
X96647616Y-132776235D01*
X96547568Y-132972588D01*
X96479474Y-133182163D01*
X96445001Y-133399817D01*
X93106500Y-133399817D01*
X93106500Y-128391901D01*
X96344501Y-128391901D01*
X96344501Y-128628096D01*
X96381447Y-128861367D01*
X96454434Y-129085995D01*
X96510902Y-129196818D01*
X96561658Y-129296432D01*
X96700484Y-129487509D01*
X96867491Y-129654516D01*
X97058568Y-129793342D01*
X97151533Y-129840710D01*
X97269004Y-129900565D01*
X97269006Y-129900565D01*
X97269009Y-129900567D01*
X97360250Y-129930213D01*
X97493632Y-129973552D01*
X97726904Y-130010499D01*
X97726909Y-130010499D01*
X97963098Y-130010499D01*
X98196369Y-129973552D01*
X98235446Y-129960855D01*
X98420993Y-129900567D01*
X98631434Y-129793342D01*
X98822511Y-129654516D01*
X98989518Y-129487509D01*
X99128344Y-129296432D01*
X99235569Y-129085991D01*
X99308554Y-128861367D01*
X99345501Y-128628096D01*
X99345501Y-128391901D01*
X104544500Y-128391901D01*
X104544500Y-128628096D01*
X104581446Y-128861367D01*
X104654433Y-129085995D01*
X104710901Y-129196818D01*
X104761657Y-129296432D01*
X104900483Y-129487509D01*
X105067490Y-129654516D01*
X105258567Y-129793342D01*
X105351532Y-129840710D01*
X105469003Y-129900565D01*
X105469005Y-129900565D01*
X105469008Y-129900567D01*
X105560249Y-129930213D01*
X105693631Y-129973552D01*
X105926903Y-130010499D01*
X105926908Y-130010499D01*
X106163097Y-130010499D01*
X106396368Y-129973552D01*
X106435445Y-129960855D01*
X106620992Y-129900567D01*
X106831433Y-129793342D01*
X107022510Y-129654516D01*
X107189517Y-129487509D01*
X107328343Y-129296432D01*
X107363107Y-129228204D01*
X107411082Y-129177408D01*
X107473592Y-129160499D01*
X231059191Y-129160499D01*
X231126230Y-129180184D01*
X231146872Y-129196818D01*
X234771181Y-132821127D01*
X234804666Y-132882450D01*
X234807500Y-132908808D01*
X234807500Y-137224069D01*
X234807500Y-137224071D01*
X234807499Y-137224071D01*
X234832497Y-137349738D01*
X234832499Y-137349744D01*
X234881535Y-137468127D01*
X234952723Y-137574669D01*
X234952726Y-137574673D01*
X234952727Y-137574674D01*
X237942983Y-140564929D01*
X237949972Y-140576336D01*
X237957667Y-140582629D01*
X237966059Y-140602588D01*
X237973237Y-140614303D01*
X237975493Y-140621250D01*
X237990263Y-140695497D01*
X238033574Y-140800060D01*
X238035079Y-140804693D01*
X238035939Y-140834935D01*
X238039174Y-140865017D01*
X238037006Y-140872399D01*
X238037067Y-140874534D01*
X238035727Y-140876755D01*
X238031705Y-140890450D01*
X238025371Y-140905744D01*
X237990263Y-140990502D01*
X237990261Y-140990510D01*
X237959500Y-141145153D01*
X237959500Y-141302846D01*
X237990261Y-141457489D01*
X237990264Y-141457501D01*
X238050602Y-141603172D01*
X238050609Y-141603185D01*
X238138210Y-141734288D01*
X238138213Y-141734292D01*
X238249707Y-141845786D01*
X238249711Y-141845789D01*
X238380814Y-141933390D01*
X238380827Y-141933397D01*
X238526498Y-141993735D01*
X238526503Y-141993737D01*
X238653895Y-142019077D01*
X238681153Y-142024499D01*
X238681156Y-142024500D01*
X238681158Y-142024500D01*
X238838844Y-142024500D01*
X238838845Y-142024499D01*
X238993497Y-141993737D01*
X238993509Y-141993731D01*
X238999324Y-141991969D01*
X238999998Y-141994191D01*
X239059196Y-141987815D01*
X239121681Y-142019077D01*
X239133306Y-142031488D01*
X239243890Y-142167109D01*
X239308260Y-142219595D01*
X239401593Y-142295698D01*
X239581951Y-142389909D01*
X239777582Y-142445886D01*
X239896963Y-142456500D01*
X242013036Y-142456499D01*
X242132418Y-142445886D01*
X242328049Y-142389909D01*
X242508407Y-142295698D01*
X242666109Y-142167109D01*
X242794698Y-142009407D01*
X242888909Y-141829049D01*
X242944886Y-141633418D01*
X242955500Y-141514037D01*
X242955499Y-140397964D01*
X242944886Y-140278582D01*
X242900012Y-140121756D01*
X242888910Y-140082954D01*
X242888909Y-140082953D01*
X242888909Y-140082951D01*
X242794698Y-139902593D01*
X242733874Y-139827998D01*
X242666109Y-139744890D01*
X242508409Y-139616304D01*
X242508410Y-139616304D01*
X242508407Y-139616302D01*
X242328049Y-139522091D01*
X242328048Y-139522090D01*
X242328045Y-139522089D01*
X242207194Y-139487510D01*
X242132418Y-139466114D01*
X242132415Y-139466113D01*
X242132413Y-139466113D01*
X242066102Y-139460217D01*
X242013037Y-139455500D01*
X242013032Y-139455500D01*
X239896971Y-139455500D01*
X239896965Y-139455500D01*
X239896964Y-139455501D01*
X239885316Y-139456536D01*
X239777584Y-139466113D01*
X239581954Y-139522089D01*
X239491772Y-139569196D01*
X239401593Y-139616302D01*
X239401591Y-139616303D01*
X239401590Y-139616304D01*
X239259737Y-139731970D01*
X239250671Y-139735786D01*
X239243918Y-139742941D01*
X239218997Y-139749119D01*
X239195340Y-139759079D01*
X239183842Y-139757836D01*
X239176101Y-139759756D01*
X239151725Y-139754365D01*
X239141412Y-139753251D01*
X239137616Y-139751958D01*
X238993497Y-139692263D01*
X238918397Y-139677323D01*
X238910646Y-139674685D01*
X238888508Y-139659088D01*
X238864507Y-139646534D01*
X238862929Y-139644983D01*
X236144819Y-136926873D01*
X236111334Y-136865550D01*
X236108500Y-136839192D01*
X236108500Y-135130000D01*
X264285463Y-135130000D01*
X264945856Y-135130000D01*
X264930000Y-135189174D01*
X264930000Y-135320826D01*
X264945856Y-135380000D01*
X264285463Y-135380000D01*
X264308317Y-135524293D01*
X264364251Y-135696444D01*
X264364252Y-135696447D01*
X264446434Y-135857734D01*
X264552823Y-136004169D01*
X264680830Y-136132176D01*
X264827265Y-136238565D01*
X264988552Y-136320747D01*
X264988555Y-136320748D01*
X265160704Y-136376682D01*
X265160709Y-136376683D01*
X265304999Y-136399535D01*
X265305000Y-136399535D01*
X265305000Y-135739144D01*
X265364174Y-135755000D01*
X265495826Y-135755000D01*
X265555000Y-135739144D01*
X265555000Y-136399535D01*
X265699291Y-136376683D01*
X265699295Y-136376682D01*
X265871444Y-136320748D01*
X265871447Y-136320747D01*
X266032734Y-136238565D01*
X266179169Y-136132176D01*
X266307176Y-136004169D01*
X266413565Y-135857734D01*
X266495747Y-135696447D01*
X266495748Y-135696444D01*
X266551682Y-135524293D01*
X266574537Y-135380000D01*
X265914144Y-135380000D01*
X265930000Y-135320826D01*
X265930000Y-135189174D01*
X265914144Y-135130000D01*
X266574537Y-135130000D01*
X266551682Y-134985706D01*
X266495748Y-134813555D01*
X266495747Y-134813552D01*
X266413565Y-134652265D01*
X266307176Y-134505830D01*
X266179169Y-134377823D01*
X266032734Y-134271434D01*
X265871447Y-134189252D01*
X265871444Y-134189251D01*
X265699293Y-134133317D01*
X265555000Y-134110462D01*
X265555000Y-134770855D01*
X265495826Y-134755000D01*
X265364174Y-134755000D01*
X265305000Y-134770855D01*
X265305000Y-134110462D01*
X265160706Y-134133317D01*
X264988555Y-134189251D01*
X264988552Y-134189252D01*
X264827265Y-134271434D01*
X264680830Y-134377823D01*
X264552823Y-134505830D01*
X264446434Y-134652265D01*
X264364252Y-134813552D01*
X264364251Y-134813555D01*
X264308317Y-134985706D01*
X264285463Y-135130000D01*
X236108500Y-135130000D01*
X236108500Y-134033864D01*
X239753909Y-134033864D01*
X239813436Y-134049815D01*
X239892012Y-134055999D01*
X239892024Y-134056000D01*
X242017976Y-134056000D01*
X242017987Y-134055999D01*
X242096567Y-134049815D01*
X242156088Y-134033865D01*
X242156089Y-134033864D01*
X240955000Y-132832776D01*
X239753909Y-134033864D01*
X236108500Y-134033864D01*
X236108500Y-132523928D01*
X236083502Y-132398261D01*
X236083501Y-132398260D01*
X236083501Y-132398256D01*
X236034465Y-132279873D01*
X236034464Y-132279870D01*
X235963278Y-132173333D01*
X235963269Y-132173322D01*
X235882959Y-132093012D01*
X239055000Y-132093012D01*
X239055000Y-133218987D01*
X239061184Y-133297563D01*
X239061184Y-133297564D01*
X239110150Y-133480307D01*
X239196037Y-133648873D01*
X239196038Y-133648875D01*
X239315099Y-133795900D01*
X239462124Y-133914961D01*
X239462126Y-133914962D01*
X239499976Y-133934247D01*
X239525099Y-133909125D01*
X240778224Y-132656000D01*
X240778222Y-132655998D01*
X241131776Y-132655998D01*
X241131776Y-132656000D01*
X242410022Y-133934246D01*
X242410023Y-133934246D01*
X242447873Y-133914961D01*
X242447874Y-133914961D01*
X242594900Y-133795900D01*
X242713961Y-133648875D01*
X242713962Y-133648873D01*
X242799849Y-133480307D01*
X242848815Y-133297564D01*
X242848815Y-133297563D01*
X242854999Y-133218987D01*
X242855000Y-133218975D01*
X242855000Y-132093024D01*
X242854999Y-132093012D01*
X242848815Y-132014436D01*
X242848815Y-132014435D01*
X242799849Y-131831692D01*
X242713962Y-131663126D01*
X242713961Y-131663124D01*
X242594900Y-131516099D01*
X242447872Y-131397037D01*
X242410023Y-131377752D01*
X242410021Y-131377752D01*
X241131776Y-132655998D01*
X240778222Y-132655998D01*
X239499976Y-131377752D01*
X239499974Y-131377752D01*
X239462128Y-131397036D01*
X239315099Y-131516099D01*
X239196038Y-131663124D01*
X239196037Y-131663126D01*
X239110150Y-131831692D01*
X239061184Y-132014435D01*
X239061184Y-132014436D01*
X239055000Y-132093012D01*
X235882959Y-132093012D01*
X235068081Y-131278134D01*
X239753910Y-131278134D01*
X240955000Y-132479224D01*
X240955001Y-132479224D01*
X242156088Y-131278134D01*
X242156088Y-131278133D01*
X242096564Y-131262184D01*
X242017987Y-131256000D01*
X239892012Y-131256000D01*
X239813436Y-131262184D01*
X239813435Y-131262184D01*
X239753910Y-131278134D01*
X235068081Y-131278134D01*
X233866524Y-130076577D01*
X264179500Y-130076577D01*
X264179500Y-130273422D01*
X264210290Y-130467826D01*
X264271117Y-130655029D01*
X264316539Y-130744174D01*
X264360476Y-130830405D01*
X264476172Y-130989646D01*
X264615354Y-131128828D01*
X264774595Y-131244524D01*
X264840557Y-131278133D01*
X264949970Y-131333882D01*
X264949972Y-131333882D01*
X264949975Y-131333884D01*
X265067171Y-131371963D01*
X265091612Y-131379905D01*
X265149287Y-131419343D01*
X265176485Y-131483702D01*
X265164570Y-131552548D01*
X265117326Y-131604024D01*
X265091611Y-131615767D01*
X264988555Y-131649251D01*
X264988552Y-131649252D01*
X264827265Y-131731434D01*
X264680830Y-131837823D01*
X264552823Y-131965830D01*
X264446434Y-132112265D01*
X264364252Y-132273552D01*
X264364251Y-132273555D01*
X264308317Y-132445706D01*
X264285463Y-132590000D01*
X264945856Y-132590000D01*
X264930000Y-132649174D01*
X264930000Y-132780826D01*
X264945856Y-132840000D01*
X264285463Y-132840000D01*
X264308317Y-132984293D01*
X264364251Y-133156444D01*
X264364252Y-133156447D01*
X264446434Y-133317734D01*
X264552823Y-133464169D01*
X264680830Y-133592176D01*
X264827265Y-133698565D01*
X264988552Y-133780747D01*
X264988555Y-133780748D01*
X265160704Y-133836682D01*
X265160709Y-133836683D01*
X265304999Y-133859535D01*
X265305000Y-133859535D01*
X265305000Y-133199144D01*
X265364174Y-133215000D01*
X265495826Y-133215000D01*
X265555000Y-133199144D01*
X265555000Y-133859535D01*
X265699291Y-133836683D01*
X265699295Y-133836682D01*
X265871444Y-133780748D01*
X265871447Y-133780747D01*
X266032734Y-133698565D01*
X266179169Y-133592176D01*
X266307176Y-133464169D01*
X266413565Y-133317734D01*
X266495747Y-133156447D01*
X266495748Y-133156444D01*
X266551682Y-132984293D01*
X266574537Y-132840000D01*
X265914144Y-132840000D01*
X265930000Y-132780826D01*
X265930000Y-132649174D01*
X265914144Y-132590000D01*
X266574537Y-132590000D01*
X266551682Y-132445706D01*
X266495748Y-132273555D01*
X266495747Y-132273552D01*
X266413565Y-132112265D01*
X266307176Y-131965830D01*
X266179169Y-131837823D01*
X266032734Y-131731434D01*
X265871447Y-131649252D01*
X265871444Y-131649251D01*
X265768388Y-131615767D01*
X265710713Y-131576330D01*
X265683514Y-131511971D01*
X265695428Y-131443125D01*
X265742672Y-131391649D01*
X265768385Y-131379905D01*
X265910025Y-131333884D01*
X266085405Y-131244524D01*
X266244646Y-131128828D01*
X266383828Y-130989646D01*
X266499524Y-130830405D01*
X266588884Y-130655025D01*
X266649709Y-130467826D01*
X266680500Y-130273422D01*
X266680500Y-130076577D01*
X266649709Y-129882173D01*
X266596258Y-129717671D01*
X266588884Y-129694975D01*
X266588882Y-129694972D01*
X266588882Y-129694970D01*
X266499523Y-129519594D01*
X266383828Y-129360354D01*
X266244646Y-129221172D01*
X266085405Y-129105476D01*
X265910029Y-129016117D01*
X265722826Y-128955290D01*
X265528422Y-128924500D01*
X265528417Y-128924500D01*
X265331583Y-128924500D01*
X265331578Y-128924500D01*
X265137173Y-128955290D01*
X264949970Y-129016117D01*
X264774594Y-129105476D01*
X264698863Y-129160499D01*
X264615354Y-129221172D01*
X264615352Y-129221174D01*
X264615351Y-129221174D01*
X264476174Y-129360351D01*
X264476174Y-129360352D01*
X264476172Y-129360354D01*
X264426485Y-129428741D01*
X264360476Y-129519594D01*
X264271117Y-129694970D01*
X264210290Y-129882173D01*
X264179500Y-130076577D01*
X233866524Y-130076577D01*
X231794672Y-128004725D01*
X231794668Y-128004722D01*
X231688126Y-127933534D01*
X231569743Y-127884498D01*
X231569737Y-127884496D01*
X231444070Y-127859499D01*
X231444068Y-127859499D01*
X107473592Y-127859499D01*
X107406553Y-127839814D01*
X107363107Y-127791794D01*
X107328342Y-127723565D01*
X107189517Y-127532489D01*
X107022510Y-127365482D01*
X106831433Y-127226656D01*
X106620996Y-127119432D01*
X106396368Y-127046445D01*
X106163097Y-127009499D01*
X106163092Y-127009499D01*
X105926908Y-127009499D01*
X105926903Y-127009499D01*
X105693631Y-127046445D01*
X105469003Y-127119432D01*
X105258566Y-127226656D01*
X105149550Y-127305861D01*
X105067490Y-127365482D01*
X105067488Y-127365484D01*
X105067487Y-127365484D01*
X104900485Y-127532486D01*
X104900485Y-127532487D01*
X104900483Y-127532489D01*
X104840862Y-127614549D01*
X104761657Y-127723565D01*
X104654433Y-127934002D01*
X104581446Y-128158630D01*
X104544500Y-128391901D01*
X99345501Y-128391901D01*
X99308554Y-128158630D01*
X99235567Y-127934002D01*
X99128343Y-127723565D01*
X98989518Y-127532489D01*
X98822511Y-127365482D01*
X98631434Y-127226656D01*
X98420997Y-127119432D01*
X98196369Y-127046445D01*
X97963098Y-127009499D01*
X97963093Y-127009499D01*
X97726909Y-127009499D01*
X97726904Y-127009499D01*
X97493632Y-127046445D01*
X97269004Y-127119432D01*
X97058567Y-127226656D01*
X96949551Y-127305861D01*
X96867491Y-127365482D01*
X96867489Y-127365484D01*
X96867488Y-127365484D01*
X96700486Y-127532486D01*
X96700486Y-127532487D01*
X96700484Y-127532489D01*
X96640863Y-127614549D01*
X96561658Y-127723565D01*
X96454434Y-127934002D01*
X96381447Y-128158630D01*
X96344501Y-128391901D01*
X93106500Y-128391901D01*
X93106500Y-124590000D01*
X112404840Y-124590000D01*
X113215856Y-124590000D01*
X113200000Y-124649174D01*
X113200000Y-124780826D01*
X113215856Y-124840000D01*
X112404840Y-124840000D01*
X112429548Y-124996002D01*
X112487914Y-125175637D01*
X112573670Y-125343940D01*
X112684685Y-125496741D01*
X112684689Y-125496746D01*
X112818253Y-125630310D01*
X112818258Y-125630314D01*
X112971059Y-125741329D01*
X113139362Y-125827085D01*
X113318997Y-125885451D01*
X113505553Y-125915000D01*
X114175000Y-125915000D01*
X114175000Y-125215000D01*
X114425000Y-125215000D01*
X114425000Y-125915000D01*
X115094447Y-125915000D01*
X115281002Y-125885451D01*
X115460637Y-125827085D01*
X115628940Y-125741329D01*
X115781741Y-125630314D01*
X115781746Y-125630310D01*
X115915310Y-125496746D01*
X115915314Y-125496741D01*
X116026329Y-125343940D01*
X116112085Y-125175637D01*
X116170451Y-124996002D01*
X116195160Y-124840000D01*
X115384144Y-124840000D01*
X115400000Y-124780826D01*
X115400000Y-124649174D01*
X115384144Y-124590000D01*
X116195160Y-124590000D01*
X137804840Y-124590000D01*
X138615856Y-124590000D01*
X138600000Y-124649174D01*
X138600000Y-124780826D01*
X138615856Y-124840000D01*
X137804840Y-124840000D01*
X137829548Y-124996002D01*
X137887914Y-125175637D01*
X137973670Y-125343940D01*
X138084685Y-125496741D01*
X138084689Y-125496746D01*
X138218253Y-125630310D01*
X138218258Y-125630314D01*
X138371059Y-125741329D01*
X138539362Y-125827085D01*
X138718997Y-125885451D01*
X138905553Y-125915000D01*
X139575000Y-125915000D01*
X139575000Y-125215000D01*
X139825000Y-125215000D01*
X139825000Y-125915000D01*
X140494447Y-125915000D01*
X140681002Y-125885451D01*
X140860637Y-125827085D01*
X141028940Y-125741329D01*
X141181741Y-125630314D01*
X141181746Y-125630310D01*
X141315310Y-125496746D01*
X141315314Y-125496741D01*
X141426329Y-125343940D01*
X141512085Y-125175637D01*
X141570451Y-124996002D01*
X141595160Y-124840000D01*
X140784144Y-124840000D01*
X140800000Y-124780826D01*
X140800000Y-124649174D01*
X140784144Y-124590000D01*
X141595160Y-124590000D01*
X163204840Y-124590000D01*
X164015856Y-124590000D01*
X164000000Y-124649174D01*
X164000000Y-124780826D01*
X164015856Y-124840000D01*
X163204840Y-124840000D01*
X163229548Y-124996002D01*
X163287914Y-125175637D01*
X163373670Y-125343940D01*
X163484685Y-125496741D01*
X163484689Y-125496746D01*
X163618253Y-125630310D01*
X163618258Y-125630314D01*
X163771059Y-125741329D01*
X163939362Y-125827085D01*
X164118997Y-125885451D01*
X164305553Y-125915000D01*
X164975000Y-125915000D01*
X164975000Y-125215000D01*
X165225000Y-125215000D01*
X165225000Y-125915000D01*
X165894447Y-125915000D01*
X166081002Y-125885451D01*
X166260637Y-125827085D01*
X166428940Y-125741329D01*
X166581741Y-125630314D01*
X166581746Y-125630310D01*
X166715310Y-125496746D01*
X166715314Y-125496741D01*
X166826329Y-125343940D01*
X166912085Y-125175637D01*
X166970451Y-124996002D01*
X166995160Y-124840000D01*
X166184144Y-124840000D01*
X166200000Y-124780826D01*
X166200000Y-124649174D01*
X166190213Y-124612648D01*
X188499500Y-124612648D01*
X188499500Y-124817351D01*
X188531522Y-125019534D01*
X188594781Y-125214223D01*
X188687715Y-125396613D01*
X188808028Y-125562213D01*
X188952786Y-125706971D01*
X189107749Y-125819556D01*
X189118390Y-125827287D01*
X189232543Y-125885451D01*
X189300776Y-125920218D01*
X189300778Y-125920218D01*
X189300781Y-125920220D01*
X189405137Y-125954127D01*
X189495465Y-125983477D01*
X189596557Y-125999488D01*
X189697648Y-126015500D01*
X189697649Y-126015500D01*
X191302351Y-126015500D01*
X191302352Y-126015500D01*
X191504534Y-125983477D01*
X191699219Y-125920220D01*
X191881610Y-125827287D01*
X191999922Y-125741329D01*
X192047213Y-125706971D01*
X192047215Y-125706968D01*
X192047219Y-125706966D01*
X192191966Y-125562219D01*
X192191968Y-125562215D01*
X192191971Y-125562213D01*
X192244732Y-125489590D01*
X192312287Y-125396610D01*
X192405220Y-125214219D01*
X192468477Y-125019534D01*
X192500500Y-124817352D01*
X192500500Y-124612648D01*
X192496913Y-124590000D01*
X214004840Y-124590000D01*
X214815856Y-124590000D01*
X214800000Y-124649174D01*
X214800000Y-124780826D01*
X214815856Y-124840000D01*
X214004840Y-124840000D01*
X214029548Y-124996002D01*
X214087914Y-125175637D01*
X214173670Y-125343940D01*
X214284685Y-125496741D01*
X214284689Y-125496746D01*
X214418253Y-125630310D01*
X214418258Y-125630314D01*
X214571059Y-125741329D01*
X214739362Y-125827085D01*
X214918997Y-125885451D01*
X215105553Y-125915000D01*
X215775000Y-125915000D01*
X215775000Y-125215000D01*
X216025000Y-125215000D01*
X216025000Y-125915000D01*
X216694447Y-125915000D01*
X216881002Y-125885451D01*
X217060637Y-125827085D01*
X217228940Y-125741329D01*
X217381741Y-125630314D01*
X217381746Y-125630310D01*
X217515310Y-125496746D01*
X217515314Y-125496741D01*
X217626329Y-125343940D01*
X217712085Y-125175637D01*
X217770451Y-124996002D01*
X217795160Y-124840000D01*
X216984144Y-124840000D01*
X217000000Y-124780826D01*
X217000000Y-124649174D01*
X216984144Y-124590000D01*
X217795160Y-124590000D01*
X239404840Y-124590000D01*
X240215856Y-124590000D01*
X240200000Y-124649174D01*
X240200000Y-124780826D01*
X240215856Y-124840000D01*
X239404840Y-124840000D01*
X239429548Y-124996002D01*
X239487914Y-125175637D01*
X239573670Y-125343940D01*
X239684685Y-125496741D01*
X239684689Y-125496746D01*
X239818253Y-125630310D01*
X239818258Y-125630314D01*
X239971059Y-125741329D01*
X240139362Y-125827085D01*
X240318997Y-125885451D01*
X240505553Y-125915000D01*
X241175000Y-125915000D01*
X241175000Y-125215000D01*
X241425000Y-125215000D01*
X241425000Y-125915000D01*
X242094447Y-125915000D01*
X242281002Y-125885451D01*
X242460637Y-125827085D01*
X242628940Y-125741329D01*
X242781741Y-125630314D01*
X242781746Y-125630310D01*
X242915310Y-125496746D01*
X242915314Y-125496741D01*
X243026329Y-125343940D01*
X243112085Y-125175637D01*
X243170451Y-124996002D01*
X243195160Y-124840000D01*
X242384144Y-124840000D01*
X242400000Y-124780826D01*
X242400000Y-124649174D01*
X242384144Y-124590000D01*
X243195160Y-124590000D01*
X264804840Y-124590000D01*
X265615856Y-124590000D01*
X265600000Y-124649174D01*
X265600000Y-124780826D01*
X265615856Y-124840000D01*
X264804840Y-124840000D01*
X264829548Y-124996002D01*
X264887914Y-125175637D01*
X264973670Y-125343940D01*
X265084685Y-125496741D01*
X265084689Y-125496746D01*
X265218253Y-125630310D01*
X265218258Y-125630314D01*
X265371059Y-125741329D01*
X265539362Y-125827085D01*
X265718997Y-125885451D01*
X265905553Y-125915000D01*
X266575000Y-125915000D01*
X266575000Y-125215000D01*
X266825000Y-125215000D01*
X266825000Y-125915000D01*
X267494447Y-125915000D01*
X267681002Y-125885451D01*
X267860637Y-125827085D01*
X268028940Y-125741329D01*
X268181741Y-125630314D01*
X268181746Y-125630310D01*
X268315310Y-125496746D01*
X268315314Y-125496741D01*
X268426329Y-125343940D01*
X268512085Y-125175637D01*
X268570451Y-124996002D01*
X268595160Y-124840000D01*
X267784144Y-124840000D01*
X267800000Y-124780826D01*
X267800000Y-124649174D01*
X267784144Y-124590000D01*
X268595160Y-124590000D01*
X268570451Y-124433997D01*
X268512085Y-124254362D01*
X268426329Y-124086059D01*
X268315314Y-123933258D01*
X268315310Y-123933253D01*
X268181746Y-123799689D01*
X268181741Y-123799685D01*
X268028940Y-123688670D01*
X267860637Y-123602914D01*
X267681002Y-123544548D01*
X267494447Y-123515000D01*
X266825000Y-123515000D01*
X266825000Y-124215000D01*
X266575000Y-124215000D01*
X266575000Y-123515000D01*
X265905553Y-123515000D01*
X265718997Y-123544548D01*
X265539362Y-123602914D01*
X265371059Y-123688670D01*
X265218258Y-123799685D01*
X265218253Y-123799689D01*
X265084689Y-123933253D01*
X265084685Y-123933258D01*
X264973670Y-124086059D01*
X264887914Y-124254362D01*
X264829548Y-124433997D01*
X264804840Y-124590000D01*
X243195160Y-124590000D01*
X243170451Y-124433997D01*
X243112085Y-124254362D01*
X243026329Y-124086059D01*
X242915314Y-123933258D01*
X242915310Y-123933253D01*
X242781746Y-123799689D01*
X242781741Y-123799685D01*
X242628940Y-123688670D01*
X242460637Y-123602914D01*
X242281002Y-123544548D01*
X242094447Y-123515000D01*
X241425000Y-123515000D01*
X241425000Y-124215000D01*
X241175000Y-124215000D01*
X241175000Y-123515000D01*
X240505553Y-123515000D01*
X240318997Y-123544548D01*
X240139362Y-123602914D01*
X239971059Y-123688670D01*
X239818258Y-123799685D01*
X239818253Y-123799689D01*
X239684689Y-123933253D01*
X239684685Y-123933258D01*
X239573670Y-124086059D01*
X239487914Y-124254362D01*
X239429548Y-124433997D01*
X239404840Y-124590000D01*
X217795160Y-124590000D01*
X217770451Y-124433997D01*
X217712085Y-124254362D01*
X217626329Y-124086059D01*
X217515314Y-123933258D01*
X217515310Y-123933253D01*
X217381746Y-123799689D01*
X217381741Y-123799685D01*
X217228940Y-123688670D01*
X217060637Y-123602914D01*
X216881002Y-123544548D01*
X216694447Y-123515000D01*
X216025000Y-123515000D01*
X216025000Y-124215000D01*
X215775000Y-124215000D01*
X215775000Y-123515000D01*
X215105553Y-123515000D01*
X214918997Y-123544548D01*
X214739362Y-123602914D01*
X214571059Y-123688670D01*
X214418258Y-123799685D01*
X214418253Y-123799689D01*
X214284689Y-123933253D01*
X214284685Y-123933258D01*
X214173670Y-124086059D01*
X214087914Y-124254362D01*
X214029548Y-124433997D01*
X214004840Y-124590000D01*
X192496913Y-124590000D01*
X192468477Y-124410466D01*
X192467673Y-124407993D01*
X192437426Y-124314901D01*
X192405220Y-124215781D01*
X192405218Y-124215778D01*
X192405218Y-124215776D01*
X192339123Y-124086059D01*
X192312287Y-124033390D01*
X192304556Y-124022749D01*
X192191971Y-123867786D01*
X192047213Y-123723028D01*
X191881613Y-123602715D01*
X191881612Y-123602714D01*
X191881610Y-123602713D01*
X191824653Y-123573691D01*
X191699223Y-123509781D01*
X191504534Y-123446522D01*
X191329995Y-123418878D01*
X191302352Y-123414500D01*
X189697648Y-123414500D01*
X189673329Y-123418351D01*
X189495465Y-123446522D01*
X189300776Y-123509781D01*
X189118386Y-123602715D01*
X188952786Y-123723028D01*
X188808028Y-123867786D01*
X188687715Y-124033386D01*
X188594781Y-124215776D01*
X188531522Y-124410465D01*
X188499500Y-124612648D01*
X166190213Y-124612648D01*
X166184144Y-124590000D01*
X166995160Y-124590000D01*
X166970451Y-124433997D01*
X166912085Y-124254362D01*
X166826329Y-124086059D01*
X166715314Y-123933258D01*
X166715310Y-123933253D01*
X166581746Y-123799689D01*
X166581741Y-123799685D01*
X166428940Y-123688670D01*
X166260637Y-123602914D01*
X166081002Y-123544548D01*
X165894447Y-123515000D01*
X165225000Y-123515000D01*
X165225000Y-124215000D01*
X164975000Y-124215000D01*
X164975000Y-123515000D01*
X164305553Y-123515000D01*
X164118997Y-123544548D01*
X163939362Y-123602914D01*
X163771059Y-123688670D01*
X163618258Y-123799685D01*
X163618253Y-123799689D01*
X163484689Y-123933253D01*
X163484685Y-123933258D01*
X163373670Y-124086059D01*
X163287914Y-124254362D01*
X163229548Y-124433997D01*
X163204840Y-124590000D01*
X141595160Y-124590000D01*
X141570451Y-124433997D01*
X141512085Y-124254362D01*
X141426329Y-124086059D01*
X141315314Y-123933258D01*
X141315310Y-123933253D01*
X141181746Y-123799689D01*
X141181741Y-123799685D01*
X141028940Y-123688670D01*
X140860637Y-123602914D01*
X140681002Y-123544548D01*
X140494447Y-123515000D01*
X139825000Y-123515000D01*
X139825000Y-124215000D01*
X139575000Y-124215000D01*
X139575000Y-123515000D01*
X138905553Y-123515000D01*
X138718997Y-123544548D01*
X138539362Y-123602914D01*
X138371059Y-123688670D01*
X138218258Y-123799685D01*
X138218253Y-123799689D01*
X138084689Y-123933253D01*
X138084685Y-123933258D01*
X137973670Y-124086059D01*
X137887914Y-124254362D01*
X137829548Y-124433997D01*
X137804840Y-124590000D01*
X116195160Y-124590000D01*
X116170451Y-124433997D01*
X116112085Y-124254362D01*
X116026329Y-124086059D01*
X115915314Y-123933258D01*
X115915310Y-123933253D01*
X115781746Y-123799689D01*
X115781741Y-123799685D01*
X115628940Y-123688670D01*
X115460637Y-123602914D01*
X115281002Y-123544548D01*
X115094447Y-123515000D01*
X114425000Y-123515000D01*
X114425000Y-124215000D01*
X114175000Y-124215000D01*
X114175000Y-123515000D01*
X113505553Y-123515000D01*
X113318997Y-123544548D01*
X113139362Y-123602914D01*
X112971059Y-123688670D01*
X112818258Y-123799685D01*
X112818253Y-123799689D01*
X112684689Y-123933253D01*
X112684685Y-123933258D01*
X112573670Y-124086059D01*
X112487914Y-124254362D01*
X112429548Y-124433997D01*
X112404840Y-124590000D01*
X93106500Y-124590000D01*
X93106500Y-119912648D01*
X112299500Y-119912648D01*
X112299500Y-120117351D01*
X112331522Y-120319534D01*
X112394781Y-120514223D01*
X112487715Y-120696613D01*
X112608028Y-120862213D01*
X112752786Y-121006971D01*
X112907749Y-121119556D01*
X112918390Y-121127287D01*
X113034607Y-121186503D01*
X113100776Y-121220218D01*
X113100778Y-121220218D01*
X113100781Y-121220220D01*
X113205137Y-121254127D01*
X113295465Y-121283477D01*
X113396557Y-121299488D01*
X113497648Y-121315500D01*
X113497649Y-121315500D01*
X115102351Y-121315500D01*
X115102352Y-121315500D01*
X115304534Y-121283477D01*
X115499219Y-121220220D01*
X115681610Y-121127287D01*
X115774590Y-121059732D01*
X115847213Y-121006971D01*
X115847215Y-121006968D01*
X115847219Y-121006966D01*
X115991966Y-120862219D01*
X115991968Y-120862215D01*
X115991971Y-120862213D01*
X116044732Y-120789590D01*
X116112287Y-120696610D01*
X116205220Y-120514219D01*
X116268477Y-120319534D01*
X116300500Y-120117352D01*
X116300500Y-119912648D01*
X137699500Y-119912648D01*
X137699500Y-120117351D01*
X137731522Y-120319534D01*
X137794781Y-120514223D01*
X137887715Y-120696613D01*
X138008028Y-120862213D01*
X138152786Y-121006971D01*
X138307749Y-121119556D01*
X138318390Y-121127287D01*
X138434607Y-121186503D01*
X138500776Y-121220218D01*
X138500778Y-121220218D01*
X138500781Y-121220220D01*
X138605137Y-121254127D01*
X138695465Y-121283477D01*
X138796557Y-121299488D01*
X138897648Y-121315500D01*
X138897649Y-121315500D01*
X140502351Y-121315500D01*
X140502352Y-121315500D01*
X140704534Y-121283477D01*
X140899219Y-121220220D01*
X141081610Y-121127287D01*
X141174590Y-121059732D01*
X141247213Y-121006971D01*
X141247215Y-121006968D01*
X141247219Y-121006966D01*
X141391966Y-120862219D01*
X141391968Y-120862215D01*
X141391971Y-120862213D01*
X141444732Y-120789590D01*
X141512287Y-120696610D01*
X141605220Y-120514219D01*
X141668477Y-120319534D01*
X141700500Y-120117352D01*
X141700500Y-119912648D01*
X163099500Y-119912648D01*
X163099500Y-120117351D01*
X163131522Y-120319534D01*
X163194781Y-120514223D01*
X163287715Y-120696613D01*
X163408028Y-120862213D01*
X163552786Y-121006971D01*
X163707749Y-121119556D01*
X163718390Y-121127287D01*
X163834607Y-121186503D01*
X163900776Y-121220218D01*
X163900778Y-121220218D01*
X163900781Y-121220220D01*
X164005137Y-121254127D01*
X164095465Y-121283477D01*
X164196557Y-121299488D01*
X164297648Y-121315500D01*
X164297649Y-121315500D01*
X165902351Y-121315500D01*
X165902352Y-121315500D01*
X166104534Y-121283477D01*
X166299219Y-121220220D01*
X166481610Y-121127287D01*
X166574590Y-121059732D01*
X166647213Y-121006971D01*
X166647215Y-121006968D01*
X166647219Y-121006966D01*
X166791966Y-120862219D01*
X166791968Y-120862215D01*
X166791971Y-120862213D01*
X166844732Y-120789590D01*
X166912287Y-120696610D01*
X167005220Y-120514219D01*
X167068477Y-120319534D01*
X167100500Y-120117352D01*
X167100500Y-119912648D01*
X188499500Y-119912648D01*
X188499500Y-120117351D01*
X188531522Y-120319534D01*
X188594781Y-120514223D01*
X188687715Y-120696613D01*
X188808028Y-120862213D01*
X188952786Y-121006971D01*
X189107749Y-121119556D01*
X189118390Y-121127287D01*
X189234607Y-121186503D01*
X189300776Y-121220218D01*
X189300778Y-121220218D01*
X189300781Y-121220220D01*
X189405137Y-121254127D01*
X189495465Y-121283477D01*
X189596557Y-121299488D01*
X189697648Y-121315500D01*
X189697649Y-121315500D01*
X191302351Y-121315500D01*
X191302352Y-121315500D01*
X191504534Y-121283477D01*
X191699219Y-121220220D01*
X191881610Y-121127287D01*
X191974590Y-121059732D01*
X192047213Y-121006971D01*
X192047215Y-121006968D01*
X192047219Y-121006966D01*
X192191966Y-120862219D01*
X192191968Y-120862215D01*
X192191971Y-120862213D01*
X192244732Y-120789590D01*
X192312287Y-120696610D01*
X192405220Y-120514219D01*
X192468477Y-120319534D01*
X192500500Y-120117352D01*
X192500500Y-119912648D01*
X213899500Y-119912648D01*
X213899500Y-120117351D01*
X213931522Y-120319534D01*
X213994781Y-120514223D01*
X214087715Y-120696613D01*
X214208028Y-120862213D01*
X214352786Y-121006971D01*
X214507749Y-121119556D01*
X214518390Y-121127287D01*
X214634607Y-121186503D01*
X214700776Y-121220218D01*
X214700778Y-121220218D01*
X214700781Y-121220220D01*
X214805137Y-121254127D01*
X214895465Y-121283477D01*
X214996557Y-121299488D01*
X215097648Y-121315500D01*
X215097649Y-121315500D01*
X216702351Y-121315500D01*
X216702352Y-121315500D01*
X216904534Y-121283477D01*
X217099219Y-121220220D01*
X217281610Y-121127287D01*
X217374590Y-121059732D01*
X217447213Y-121006971D01*
X217447215Y-121006968D01*
X217447219Y-121006966D01*
X217591966Y-120862219D01*
X217591968Y-120862215D01*
X217591971Y-120862213D01*
X217644732Y-120789590D01*
X217712287Y-120696610D01*
X217805220Y-120514219D01*
X217868477Y-120319534D01*
X217900500Y-120117352D01*
X217900500Y-119912648D01*
X239299500Y-119912648D01*
X239299500Y-120117351D01*
X239331522Y-120319534D01*
X239394781Y-120514223D01*
X239487715Y-120696613D01*
X239608028Y-120862213D01*
X239752786Y-121006971D01*
X239907749Y-121119556D01*
X239918390Y-121127287D01*
X240034607Y-121186503D01*
X240100776Y-121220218D01*
X240100778Y-121220218D01*
X240100781Y-121220220D01*
X240205137Y-121254127D01*
X240295465Y-121283477D01*
X240396557Y-121299488D01*
X240497648Y-121315500D01*
X240497649Y-121315500D01*
X242102351Y-121315500D01*
X242102352Y-121315500D01*
X242304534Y-121283477D01*
X242499219Y-121220220D01*
X242681610Y-121127287D01*
X242774590Y-121059732D01*
X242847213Y-121006971D01*
X242847215Y-121006968D01*
X242847219Y-121006966D01*
X242991966Y-120862219D01*
X242991968Y-120862215D01*
X242991971Y-120862213D01*
X243044732Y-120789590D01*
X243112287Y-120696610D01*
X243205220Y-120514219D01*
X243268477Y-120319534D01*
X243300500Y-120117352D01*
X243300500Y-119912648D01*
X264699500Y-119912648D01*
X264699500Y-120117351D01*
X264731522Y-120319534D01*
X264794781Y-120514223D01*
X264887715Y-120696613D01*
X265008028Y-120862213D01*
X265152786Y-121006971D01*
X265307749Y-121119556D01*
X265318390Y-121127287D01*
X265434607Y-121186503D01*
X265500776Y-121220218D01*
X265500778Y-121220218D01*
X265500781Y-121220220D01*
X265605137Y-121254127D01*
X265695465Y-121283477D01*
X265796557Y-121299488D01*
X265897648Y-121315500D01*
X265897649Y-121315500D01*
X267502351Y-121315500D01*
X267502352Y-121315500D01*
X267704534Y-121283477D01*
X267899219Y-121220220D01*
X268081610Y-121127287D01*
X268174590Y-121059732D01*
X268247213Y-121006971D01*
X268247215Y-121006968D01*
X268247219Y-121006966D01*
X268391966Y-120862219D01*
X268391968Y-120862215D01*
X268391971Y-120862213D01*
X268444732Y-120789590D01*
X268512287Y-120696610D01*
X268605220Y-120514219D01*
X268668477Y-120319534D01*
X268700500Y-120117352D01*
X268700500Y-119912648D01*
X268668477Y-119710466D01*
X268605220Y-119515781D01*
X268605218Y-119515778D01*
X268605218Y-119515776D01*
X268571503Y-119449607D01*
X268512287Y-119333390D01*
X268504556Y-119322749D01*
X268391971Y-119167786D01*
X268247213Y-119023028D01*
X268081613Y-118902715D01*
X268081612Y-118902714D01*
X268081610Y-118902713D01*
X268024653Y-118873691D01*
X267899223Y-118809781D01*
X267704534Y-118746522D01*
X267529995Y-118718878D01*
X267502352Y-118714500D01*
X265897648Y-118714500D01*
X265873329Y-118718351D01*
X265695465Y-118746522D01*
X265500776Y-118809781D01*
X265318386Y-118902715D01*
X265152786Y-119023028D01*
X265008028Y-119167786D01*
X264887715Y-119333386D01*
X264794781Y-119515776D01*
X264731522Y-119710465D01*
X264699500Y-119912648D01*
X243300500Y-119912648D01*
X243268477Y-119710466D01*
X243205220Y-119515781D01*
X243205218Y-119515778D01*
X243205218Y-119515776D01*
X243171503Y-119449607D01*
X243112287Y-119333390D01*
X243104556Y-119322749D01*
X242991971Y-119167786D01*
X242847213Y-119023028D01*
X242681613Y-118902715D01*
X242681612Y-118902714D01*
X242681610Y-118902713D01*
X242624653Y-118873691D01*
X242499223Y-118809781D01*
X242304534Y-118746522D01*
X242129995Y-118718878D01*
X242102352Y-118714500D01*
X240497648Y-118714500D01*
X240473329Y-118718351D01*
X240295465Y-118746522D01*
X240100776Y-118809781D01*
X239918386Y-118902715D01*
X239752786Y-119023028D01*
X239608028Y-119167786D01*
X239487715Y-119333386D01*
X239394781Y-119515776D01*
X239331522Y-119710465D01*
X239299500Y-119912648D01*
X217900500Y-119912648D01*
X217868477Y-119710466D01*
X217805220Y-119515781D01*
X217805218Y-119515778D01*
X217805218Y-119515776D01*
X217771503Y-119449607D01*
X217712287Y-119333390D01*
X217704556Y-119322749D01*
X217591971Y-119167786D01*
X217447213Y-119023028D01*
X217281613Y-118902715D01*
X217281612Y-118902714D01*
X217281610Y-118902713D01*
X217224653Y-118873691D01*
X217099223Y-118809781D01*
X216904534Y-118746522D01*
X216729995Y-118718878D01*
X216702352Y-118714500D01*
X215097648Y-118714500D01*
X215073329Y-118718351D01*
X214895465Y-118746522D01*
X214700776Y-118809781D01*
X214518386Y-118902715D01*
X214352786Y-119023028D01*
X214208028Y-119167786D01*
X214087715Y-119333386D01*
X213994781Y-119515776D01*
X213931522Y-119710465D01*
X213899500Y-119912648D01*
X192500500Y-119912648D01*
X192468477Y-119710466D01*
X192405220Y-119515781D01*
X192405218Y-119515778D01*
X192405218Y-119515776D01*
X192371503Y-119449607D01*
X192312287Y-119333390D01*
X192304556Y-119322749D01*
X192191971Y-119167786D01*
X192047213Y-119023028D01*
X191881613Y-118902715D01*
X191881612Y-118902714D01*
X191881610Y-118902713D01*
X191824653Y-118873691D01*
X191699223Y-118809781D01*
X191504534Y-118746522D01*
X191329995Y-118718878D01*
X191302352Y-118714500D01*
X189697648Y-118714500D01*
X189673329Y-118718351D01*
X189495465Y-118746522D01*
X189300776Y-118809781D01*
X189118386Y-118902715D01*
X188952786Y-119023028D01*
X188808028Y-119167786D01*
X188687715Y-119333386D01*
X188594781Y-119515776D01*
X188531522Y-119710465D01*
X188499500Y-119912648D01*
X167100500Y-119912648D01*
X167068477Y-119710466D01*
X167005220Y-119515781D01*
X167005218Y-119515778D01*
X167005218Y-119515776D01*
X166971503Y-119449607D01*
X166912287Y-119333390D01*
X166904556Y-119322749D01*
X166791971Y-119167786D01*
X166647213Y-119023028D01*
X166481613Y-118902715D01*
X166481612Y-118902714D01*
X166481610Y-118902713D01*
X166424653Y-118873691D01*
X166299223Y-118809781D01*
X166104534Y-118746522D01*
X165929995Y-118718878D01*
X165902352Y-118714500D01*
X164297648Y-118714500D01*
X164273329Y-118718351D01*
X164095465Y-118746522D01*
X163900776Y-118809781D01*
X163718386Y-118902715D01*
X163552786Y-119023028D01*
X163408028Y-119167786D01*
X163287715Y-119333386D01*
X163194781Y-119515776D01*
X163131522Y-119710465D01*
X163099500Y-119912648D01*
X141700500Y-119912648D01*
X141668477Y-119710466D01*
X141605220Y-119515781D01*
X141605218Y-119515778D01*
X141605218Y-119515776D01*
X141571503Y-119449607D01*
X141512287Y-119333390D01*
X141504556Y-119322749D01*
X141391971Y-119167786D01*
X141247213Y-119023028D01*
X141081613Y-118902715D01*
X141081612Y-118902714D01*
X141081610Y-118902713D01*
X141024653Y-118873691D01*
X140899223Y-118809781D01*
X140704534Y-118746522D01*
X140529995Y-118718878D01*
X140502352Y-118714500D01*
X138897648Y-118714500D01*
X138873329Y-118718351D01*
X138695465Y-118746522D01*
X138500776Y-118809781D01*
X138318386Y-118902715D01*
X138152786Y-119023028D01*
X138008028Y-119167786D01*
X137887715Y-119333386D01*
X137794781Y-119515776D01*
X137731522Y-119710465D01*
X137699500Y-119912648D01*
X116300500Y-119912648D01*
X116268477Y-119710466D01*
X116205220Y-119515781D01*
X116205218Y-119515778D01*
X116205218Y-119515776D01*
X116171503Y-119449607D01*
X116112287Y-119333390D01*
X116104556Y-119322749D01*
X115991971Y-119167786D01*
X115847213Y-119023028D01*
X115681613Y-118902715D01*
X115681612Y-118902714D01*
X115681610Y-118902713D01*
X115624653Y-118873691D01*
X115499223Y-118809781D01*
X115304534Y-118746522D01*
X115129995Y-118718878D01*
X115102352Y-118714500D01*
X113497648Y-118714500D01*
X113473329Y-118718351D01*
X113295465Y-118746522D01*
X113100776Y-118809781D01*
X112918386Y-118902715D01*
X112752786Y-119023028D01*
X112608028Y-119167786D01*
X112487715Y-119333386D01*
X112394781Y-119515776D01*
X112331522Y-119710465D01*
X112299500Y-119912648D01*
X93106500Y-119912648D01*
X93106500Y-115212648D01*
X112299500Y-115212648D01*
X112299500Y-115417352D01*
X112303008Y-115439500D01*
X112331522Y-115619534D01*
X112394781Y-115814223D01*
X112487715Y-115996613D01*
X112608028Y-116162213D01*
X112752786Y-116306971D01*
X112907749Y-116419556D01*
X112918390Y-116427287D01*
X113034607Y-116486503D01*
X113100776Y-116520218D01*
X113100778Y-116520218D01*
X113100781Y-116520220D01*
X113205137Y-116554127D01*
X113295465Y-116583477D01*
X113396557Y-116599488D01*
X113497648Y-116615500D01*
X113497649Y-116615500D01*
X115102351Y-116615500D01*
X115102352Y-116615500D01*
X115304534Y-116583477D01*
X115499219Y-116520220D01*
X115681610Y-116427287D01*
X115774590Y-116359732D01*
X115847213Y-116306971D01*
X115847215Y-116306968D01*
X115847219Y-116306966D01*
X115991966Y-116162219D01*
X115991968Y-116162215D01*
X115991971Y-116162213D01*
X116044732Y-116089590D01*
X116112287Y-115996610D01*
X116205220Y-115814219D01*
X116268477Y-115619534D01*
X116300500Y-115417352D01*
X116300500Y-115212648D01*
X137699500Y-115212648D01*
X137699500Y-115417352D01*
X137703008Y-115439500D01*
X137731522Y-115619534D01*
X137794781Y-115814223D01*
X137887715Y-115996613D01*
X138008028Y-116162213D01*
X138152786Y-116306971D01*
X138307749Y-116419556D01*
X138318390Y-116427287D01*
X138434607Y-116486503D01*
X138500776Y-116520218D01*
X138500778Y-116520218D01*
X138500781Y-116520220D01*
X138605137Y-116554127D01*
X138695465Y-116583477D01*
X138796557Y-116599488D01*
X138897648Y-116615500D01*
X138897649Y-116615500D01*
X140502351Y-116615500D01*
X140502352Y-116615500D01*
X140704534Y-116583477D01*
X140899219Y-116520220D01*
X141081610Y-116427287D01*
X141174590Y-116359732D01*
X141247213Y-116306971D01*
X141247215Y-116306968D01*
X141247219Y-116306966D01*
X141391966Y-116162219D01*
X141391968Y-116162215D01*
X141391971Y-116162213D01*
X141444732Y-116089590D01*
X141512287Y-115996610D01*
X141605220Y-115814219D01*
X141668477Y-115619534D01*
X141700500Y-115417352D01*
X141700500Y-115212648D01*
X163099500Y-115212648D01*
X163099500Y-115417352D01*
X163103008Y-115439500D01*
X163131522Y-115619534D01*
X163194781Y-115814223D01*
X163287715Y-115996613D01*
X163408028Y-116162213D01*
X163552786Y-116306971D01*
X163707749Y-116419556D01*
X163718390Y-116427287D01*
X163834607Y-116486503D01*
X163900776Y-116520218D01*
X163900778Y-116520218D01*
X163900781Y-116520220D01*
X164005137Y-116554127D01*
X164095465Y-116583477D01*
X164196557Y-116599488D01*
X164297648Y-116615500D01*
X164297649Y-116615500D01*
X165902351Y-116615500D01*
X165902352Y-116615500D01*
X166104534Y-116583477D01*
X166299219Y-116520220D01*
X166481610Y-116427287D01*
X166574590Y-116359732D01*
X166647213Y-116306971D01*
X166647215Y-116306968D01*
X166647219Y-116306966D01*
X166791966Y-116162219D01*
X166791968Y-116162215D01*
X166791971Y-116162213D01*
X166844732Y-116089590D01*
X166912287Y-115996610D01*
X167005220Y-115814219D01*
X167068477Y-115619534D01*
X167100500Y-115417352D01*
X167100500Y-115212648D01*
X188499500Y-115212648D01*
X188499500Y-115417352D01*
X188503008Y-115439500D01*
X188531522Y-115619534D01*
X188594781Y-115814223D01*
X188687715Y-115996613D01*
X188808028Y-116162213D01*
X188952786Y-116306971D01*
X189107749Y-116419556D01*
X189118390Y-116427287D01*
X189234607Y-116486503D01*
X189300776Y-116520218D01*
X189300778Y-116520218D01*
X189300781Y-116520220D01*
X189405137Y-116554127D01*
X189495465Y-116583477D01*
X189596557Y-116599488D01*
X189697648Y-116615500D01*
X189697649Y-116615500D01*
X191302351Y-116615500D01*
X191302352Y-116615500D01*
X191504534Y-116583477D01*
X191699219Y-116520220D01*
X191881610Y-116427287D01*
X191974590Y-116359732D01*
X192047213Y-116306971D01*
X192047215Y-116306968D01*
X192047219Y-116306966D01*
X192191966Y-116162219D01*
X192191968Y-116162215D01*
X192191971Y-116162213D01*
X192244732Y-116089590D01*
X192312287Y-115996610D01*
X192405220Y-115814219D01*
X192468477Y-115619534D01*
X192500500Y-115417352D01*
X192500500Y-115212648D01*
X213899500Y-115212648D01*
X213899500Y-115417352D01*
X213903008Y-115439500D01*
X213931522Y-115619534D01*
X213994781Y-115814223D01*
X214087715Y-115996613D01*
X214208028Y-116162213D01*
X214352786Y-116306971D01*
X214507749Y-116419556D01*
X214518390Y-116427287D01*
X214634607Y-116486503D01*
X214700776Y-116520218D01*
X214700778Y-116520218D01*
X214700781Y-116520220D01*
X214805137Y-116554127D01*
X214895465Y-116583477D01*
X214996557Y-116599488D01*
X215097648Y-116615500D01*
X215097649Y-116615500D01*
X216702351Y-116615500D01*
X216702352Y-116615500D01*
X216904534Y-116583477D01*
X217099219Y-116520220D01*
X217281610Y-116427287D01*
X217374590Y-116359732D01*
X217447213Y-116306971D01*
X217447215Y-116306968D01*
X217447219Y-116306966D01*
X217591966Y-116162219D01*
X217591968Y-116162215D01*
X217591971Y-116162213D01*
X217644732Y-116089590D01*
X217712287Y-115996610D01*
X217805220Y-115814219D01*
X217868477Y-115619534D01*
X217900500Y-115417352D01*
X217900500Y-115212648D01*
X239299500Y-115212648D01*
X239299500Y-115417352D01*
X239303008Y-115439500D01*
X239331522Y-115619534D01*
X239394781Y-115814223D01*
X239487715Y-115996613D01*
X239608028Y-116162213D01*
X239752786Y-116306971D01*
X239907749Y-116419556D01*
X239918390Y-116427287D01*
X240034607Y-116486503D01*
X240100776Y-116520218D01*
X240100778Y-116520218D01*
X240100781Y-116520220D01*
X240205137Y-116554127D01*
X240295465Y-116583477D01*
X240396557Y-116599488D01*
X240497648Y-116615500D01*
X240497649Y-116615500D01*
X242102351Y-116615500D01*
X242102352Y-116615500D01*
X242304534Y-116583477D01*
X242499219Y-116520220D01*
X242681610Y-116427287D01*
X242774590Y-116359732D01*
X242847213Y-116306971D01*
X242847215Y-116306968D01*
X242847219Y-116306966D01*
X242991966Y-116162219D01*
X242991968Y-116162215D01*
X242991971Y-116162213D01*
X243044732Y-116089590D01*
X243112287Y-115996610D01*
X243205220Y-115814219D01*
X243268477Y-115619534D01*
X243300500Y-115417352D01*
X243300500Y-115212648D01*
X264699500Y-115212648D01*
X264699500Y-115417352D01*
X264703008Y-115439500D01*
X264731522Y-115619534D01*
X264794781Y-115814223D01*
X264887715Y-115996613D01*
X265008028Y-116162213D01*
X265152786Y-116306971D01*
X265307749Y-116419556D01*
X265318390Y-116427287D01*
X265434607Y-116486503D01*
X265500776Y-116520218D01*
X265500778Y-116520218D01*
X265500781Y-116520220D01*
X265605137Y-116554127D01*
X265695465Y-116583477D01*
X265796557Y-116599488D01*
X265897648Y-116615500D01*
X265897649Y-116615500D01*
X267502351Y-116615500D01*
X267502352Y-116615500D01*
X267704534Y-116583477D01*
X267899219Y-116520220D01*
X268081610Y-116427287D01*
X268174590Y-116359732D01*
X268247213Y-116306971D01*
X268247215Y-116306968D01*
X268247219Y-116306966D01*
X268391966Y-116162219D01*
X268391968Y-116162215D01*
X268391971Y-116162213D01*
X268444732Y-116089590D01*
X268512287Y-115996610D01*
X268605220Y-115814219D01*
X268668477Y-115619534D01*
X268700500Y-115417352D01*
X268700500Y-115212648D01*
X268687644Y-115131482D01*
X268668477Y-115010465D01*
X268605218Y-114815776D01*
X268566664Y-114740110D01*
X268512287Y-114633390D01*
X268491234Y-114604413D01*
X268391971Y-114467786D01*
X268247213Y-114323028D01*
X268081613Y-114202715D01*
X268081612Y-114202714D01*
X268081610Y-114202713D01*
X268024653Y-114173691D01*
X267899223Y-114109781D01*
X267704534Y-114046522D01*
X267529995Y-114018878D01*
X267502352Y-114014500D01*
X265897648Y-114014500D01*
X265873329Y-114018351D01*
X265695465Y-114046522D01*
X265500776Y-114109781D01*
X265318386Y-114202715D01*
X265152786Y-114323028D01*
X265008028Y-114467786D01*
X264887715Y-114633386D01*
X264794781Y-114815776D01*
X264731522Y-115010465D01*
X264709914Y-115146895D01*
X264699500Y-115212648D01*
X243300500Y-115212648D01*
X243287644Y-115131482D01*
X243268477Y-115010465D01*
X243205218Y-114815776D01*
X243166664Y-114740110D01*
X243112287Y-114633390D01*
X243091234Y-114604413D01*
X242991971Y-114467786D01*
X242847213Y-114323028D01*
X242681613Y-114202715D01*
X242681612Y-114202714D01*
X242681610Y-114202713D01*
X242624653Y-114173691D01*
X242499223Y-114109781D01*
X242304534Y-114046522D01*
X242129995Y-114018878D01*
X242102352Y-114014500D01*
X240497648Y-114014500D01*
X240473329Y-114018351D01*
X240295465Y-114046522D01*
X240100776Y-114109781D01*
X239918386Y-114202715D01*
X239752786Y-114323028D01*
X239608028Y-114467786D01*
X239487715Y-114633386D01*
X239394781Y-114815776D01*
X239331522Y-115010465D01*
X239309914Y-115146895D01*
X239299500Y-115212648D01*
X217900500Y-115212648D01*
X217887644Y-115131482D01*
X217868477Y-115010465D01*
X217805218Y-114815776D01*
X217766664Y-114740110D01*
X217712287Y-114633390D01*
X217691234Y-114604413D01*
X217591971Y-114467786D01*
X217447213Y-114323028D01*
X217281613Y-114202715D01*
X217281612Y-114202714D01*
X217281610Y-114202713D01*
X217224653Y-114173691D01*
X217099223Y-114109781D01*
X216904534Y-114046522D01*
X216729995Y-114018878D01*
X216702352Y-114014500D01*
X215097648Y-114014500D01*
X215073329Y-114018351D01*
X214895465Y-114046522D01*
X214700776Y-114109781D01*
X214518386Y-114202715D01*
X214352786Y-114323028D01*
X214208028Y-114467786D01*
X214087715Y-114633386D01*
X213994781Y-114815776D01*
X213931522Y-115010465D01*
X213909914Y-115146895D01*
X213899500Y-115212648D01*
X192500500Y-115212648D01*
X192487644Y-115131482D01*
X192468477Y-115010465D01*
X192405218Y-114815776D01*
X192366664Y-114740110D01*
X192312287Y-114633390D01*
X192291234Y-114604413D01*
X192191971Y-114467786D01*
X192047213Y-114323028D01*
X191881613Y-114202715D01*
X191881612Y-114202714D01*
X191881610Y-114202713D01*
X191824653Y-114173691D01*
X191699223Y-114109781D01*
X191504534Y-114046522D01*
X191329995Y-114018878D01*
X191302352Y-114014500D01*
X189697648Y-114014500D01*
X189673329Y-114018351D01*
X189495465Y-114046522D01*
X189300776Y-114109781D01*
X189118386Y-114202715D01*
X188952786Y-114323028D01*
X188808028Y-114467786D01*
X188687715Y-114633386D01*
X188594781Y-114815776D01*
X188531522Y-115010465D01*
X188509914Y-115146895D01*
X188499500Y-115212648D01*
X167100500Y-115212648D01*
X167087644Y-115131482D01*
X167068477Y-115010465D01*
X167005218Y-114815776D01*
X166966664Y-114740110D01*
X166912287Y-114633390D01*
X166891234Y-114604413D01*
X166791971Y-114467786D01*
X166647213Y-114323028D01*
X166481613Y-114202715D01*
X166481612Y-114202714D01*
X166481610Y-114202713D01*
X166424653Y-114173691D01*
X166299223Y-114109781D01*
X166104534Y-114046522D01*
X165929995Y-114018878D01*
X165902352Y-114014500D01*
X164297648Y-114014500D01*
X164273329Y-114018351D01*
X164095465Y-114046522D01*
X163900776Y-114109781D01*
X163718386Y-114202715D01*
X163552786Y-114323028D01*
X163408028Y-114467786D01*
X163287715Y-114633386D01*
X163194781Y-114815776D01*
X163131522Y-115010465D01*
X163109914Y-115146895D01*
X163099500Y-115212648D01*
X141700500Y-115212648D01*
X141687644Y-115131482D01*
X141668477Y-115010465D01*
X141605218Y-114815776D01*
X141566664Y-114740110D01*
X141512287Y-114633390D01*
X141491234Y-114604413D01*
X141391971Y-114467786D01*
X141247213Y-114323028D01*
X141081613Y-114202715D01*
X141081612Y-114202714D01*
X141081610Y-114202713D01*
X141024653Y-114173691D01*
X140899223Y-114109781D01*
X140704534Y-114046522D01*
X140529995Y-114018878D01*
X140502352Y-114014500D01*
X138897648Y-114014500D01*
X138873329Y-114018351D01*
X138695465Y-114046522D01*
X138500776Y-114109781D01*
X138318386Y-114202715D01*
X138152786Y-114323028D01*
X138008028Y-114467786D01*
X137887715Y-114633386D01*
X137794781Y-114815776D01*
X137731522Y-115010465D01*
X137709914Y-115146895D01*
X137699500Y-115212648D01*
X116300500Y-115212648D01*
X116287644Y-115131482D01*
X116268477Y-115010465D01*
X116205218Y-114815776D01*
X116166664Y-114740110D01*
X116112287Y-114633390D01*
X116091234Y-114604413D01*
X115991971Y-114467786D01*
X115847213Y-114323028D01*
X115681613Y-114202715D01*
X115681612Y-114202714D01*
X115681610Y-114202713D01*
X115624653Y-114173691D01*
X115499223Y-114109781D01*
X115304534Y-114046522D01*
X115129995Y-114018878D01*
X115102352Y-114014500D01*
X113497648Y-114014500D01*
X113473329Y-114018351D01*
X113295465Y-114046522D01*
X113100776Y-114109781D01*
X112918386Y-114202715D01*
X112752786Y-114323028D01*
X112608028Y-114467786D01*
X112487715Y-114633386D01*
X112394781Y-114815776D01*
X112331522Y-115010465D01*
X112309914Y-115146895D01*
X112299500Y-115212648D01*
X93106500Y-115212648D01*
X93106500Y-113604808D01*
X93126185Y-113537769D01*
X93142819Y-113517127D01*
X93705127Y-112954819D01*
X93766450Y-112921334D01*
X93792808Y-112918500D01*
X98108071Y-112918500D01*
X98192615Y-112901682D01*
X98233744Y-112893501D01*
X98352127Y-112844465D01*
X98358418Y-112840261D01*
X98358427Y-112840258D01*
X98358426Y-112840257D01*
X98433438Y-112790135D01*
X98458669Y-112773277D01*
X100661277Y-110570669D01*
X100732465Y-110464127D01*
X100781501Y-110345744D01*
X100796468Y-110270500D01*
X100806500Y-110220069D01*
X100806500Y-109724935D01*
X100826185Y-109657896D01*
X100827366Y-109656090D01*
X100865394Y-109599179D01*
X100925737Y-109453497D01*
X100956500Y-109298842D01*
X100956500Y-109141158D01*
X100956500Y-109141155D01*
X100956499Y-109141153D01*
X100925738Y-108986510D01*
X100925737Y-108986503D01*
X100925735Y-108986498D01*
X100865397Y-108840827D01*
X100865390Y-108840814D01*
X100777789Y-108709711D01*
X100777786Y-108709707D01*
X100666292Y-108598213D01*
X100666288Y-108598210D01*
X100535185Y-108510609D01*
X100535172Y-108510602D01*
X100389501Y-108450264D01*
X100389489Y-108450261D01*
X100234845Y-108419500D01*
X100234842Y-108419500D01*
X100077158Y-108419500D01*
X100077155Y-108419500D01*
X99922510Y-108450261D01*
X99922498Y-108450264D01*
X99776827Y-108510602D01*
X99776814Y-108510609D01*
X99645711Y-108598210D01*
X99645707Y-108598213D01*
X99534213Y-108709707D01*
X99534210Y-108709711D01*
X99446609Y-108840814D01*
X99446602Y-108840827D01*
X99386264Y-108986498D01*
X99386261Y-108986510D01*
X99355500Y-109141153D01*
X99355500Y-109298846D01*
X99386261Y-109453489D01*
X99386264Y-109453501D01*
X99446602Y-109599172D01*
X99446606Y-109599179D01*
X99484602Y-109656044D01*
X99490253Y-109674091D01*
X99500477Y-109690000D01*
X99504928Y-109720959D01*
X99505480Y-109722721D01*
X99505500Y-109724935D01*
X99505500Y-109835192D01*
X99485815Y-109902231D01*
X99469181Y-109922873D01*
X97810873Y-111581181D01*
X97749550Y-111614666D01*
X97723192Y-111617500D01*
X94579808Y-111617500D01*
X94512769Y-111597815D01*
X94467014Y-111545011D01*
X94457070Y-111475853D01*
X94486095Y-111412297D01*
X94492127Y-111405819D01*
X97025272Y-108872674D01*
X97025276Y-108872670D01*
X97096465Y-108766127D01*
X97096466Y-108766123D01*
X97099849Y-108761061D01*
X97100407Y-108761434D01*
X97116954Y-108739123D01*
X97141788Y-108714290D01*
X97141789Y-108714289D01*
X97229390Y-108583185D01*
X97229390Y-108583184D01*
X97229394Y-108583179D01*
X97289737Y-108437497D01*
X97320500Y-108282842D01*
X97320500Y-108125158D01*
X97320500Y-108125155D01*
X97320499Y-108125153D01*
X97289738Y-107970510D01*
X97289737Y-107970503D01*
X97287081Y-107964091D01*
X97250591Y-107875995D01*
X97243122Y-107806526D01*
X97274397Y-107744047D01*
X97292268Y-107728224D01*
X97399788Y-107650107D01*
X97399788Y-107650106D01*
X97399792Y-107650104D01*
X97550104Y-107499792D01*
X97550106Y-107499788D01*
X97550109Y-107499786D01*
X97675048Y-107327820D01*
X97675047Y-107327820D01*
X97675051Y-107327816D01*
X97679514Y-107319054D01*
X97727488Y-107268259D01*
X97795308Y-107251463D01*
X97861444Y-107273999D01*
X97900486Y-107319056D01*
X97904951Y-107327820D01*
X98029890Y-107499786D01*
X98180213Y-107650109D01*
X98352179Y-107775048D01*
X98352181Y-107775049D01*
X98352184Y-107775051D01*
X98541588Y-107871557D01*
X98743757Y-107937246D01*
X98953713Y-107970500D01*
X98953714Y-107970500D01*
X99166286Y-107970500D01*
X99166287Y-107970500D01*
X99376243Y-107937246D01*
X99578412Y-107871557D01*
X99767816Y-107775051D01*
X99832267Y-107728225D01*
X99939786Y-107650109D01*
X99939788Y-107650106D01*
X99939792Y-107650104D01*
X100090104Y-107499792D01*
X100090106Y-107499788D01*
X100090109Y-107499786D01*
X100215048Y-107327820D01*
X100215047Y-107327820D01*
X100215051Y-107327816D01*
X100311557Y-107138412D01*
X100377246Y-106936243D01*
X100410500Y-106726287D01*
X100410500Y-106513713D01*
X100377246Y-106303757D01*
X100311557Y-106101588D01*
X100215051Y-105912184D01*
X100215049Y-105912181D01*
X100215048Y-105912179D01*
X100090109Y-105740213D01*
X99939786Y-105589890D01*
X99767820Y-105464951D01*
X99578414Y-105368444D01*
X99578413Y-105368443D01*
X99578412Y-105368443D01*
X99376243Y-105302754D01*
X99376241Y-105302753D01*
X99376240Y-105302753D01*
X99301861Y-105290973D01*
X99238726Y-105261044D01*
X99201795Y-105201732D01*
X99202793Y-105131870D01*
X99241403Y-105073637D01*
X99305366Y-105045523D01*
X99321259Y-105044500D01*
X111185192Y-105044500D01*
X111252231Y-105064185D01*
X111272873Y-105080819D01*
X111704984Y-105512930D01*
X111738469Y-105574253D01*
X111738920Y-105576420D01*
X111752261Y-105643489D01*
X111752264Y-105643501D01*
X111812602Y-105789172D01*
X111812609Y-105789185D01*
X111900210Y-105920288D01*
X111900213Y-105920292D01*
X112011707Y-106031786D01*
X112011711Y-106031789D01*
X112142814Y-106119390D01*
X112142827Y-106119397D01*
X112288498Y-106179735D01*
X112288503Y-106179737D01*
X112443153Y-106210499D01*
X112443156Y-106210500D01*
X112443158Y-106210500D01*
X112600844Y-106210500D01*
X112600845Y-106210499D01*
X112755497Y-106179737D01*
X112901179Y-106119394D01*
X113032289Y-106031789D01*
X113143789Y-105920289D01*
X113231394Y-105789179D01*
X113291737Y-105643497D01*
X113322500Y-105488842D01*
X113322500Y-105331158D01*
X113322500Y-105331155D01*
X113322499Y-105331153D01*
X113294958Y-105192691D01*
X113301185Y-105123100D01*
X113344048Y-105067922D01*
X113409938Y-105044678D01*
X113416575Y-105044500D01*
X137027425Y-105044500D01*
X137094464Y-105064185D01*
X137140219Y-105116989D01*
X137150163Y-105186147D01*
X137149042Y-105192691D01*
X137121500Y-105331153D01*
X137121500Y-105488846D01*
X137152261Y-105643489D01*
X137152264Y-105643501D01*
X137212602Y-105789172D01*
X137212609Y-105789185D01*
X137300210Y-105920288D01*
X137300213Y-105920292D01*
X137411707Y-106031786D01*
X137411711Y-106031789D01*
X137542814Y-106119390D01*
X137542827Y-106119397D01*
X137688498Y-106179735D01*
X137688503Y-106179737D01*
X137843153Y-106210499D01*
X137843156Y-106210500D01*
X137843158Y-106210500D01*
X138000844Y-106210500D01*
X138000845Y-106210499D01*
X138155497Y-106179737D01*
X138301179Y-106119394D01*
X138432289Y-106031789D01*
X138543789Y-105920289D01*
X138631394Y-105789179D01*
X138691737Y-105643497D01*
X138722500Y-105488842D01*
X138722500Y-105331158D01*
X138722500Y-105331155D01*
X138722499Y-105331153D01*
X138694958Y-105192691D01*
X138701185Y-105123100D01*
X138744048Y-105067922D01*
X138809938Y-105044678D01*
X138816575Y-105044500D01*
X161985192Y-105044500D01*
X162052231Y-105064185D01*
X162072873Y-105080819D01*
X162504984Y-105512930D01*
X162538469Y-105574253D01*
X162538920Y-105576420D01*
X162552261Y-105643489D01*
X162552264Y-105643501D01*
X162612602Y-105789172D01*
X162612609Y-105789185D01*
X162700210Y-105920288D01*
X162700213Y-105920292D01*
X162811707Y-106031786D01*
X162811711Y-106031789D01*
X162942814Y-106119390D01*
X162942827Y-106119397D01*
X163088498Y-106179735D01*
X163088503Y-106179737D01*
X163243153Y-106210499D01*
X163243156Y-106210500D01*
X163243158Y-106210500D01*
X163400844Y-106210500D01*
X163400845Y-106210499D01*
X163555497Y-106179737D01*
X163701179Y-106119394D01*
X163832289Y-106031789D01*
X163943789Y-105920289D01*
X164031394Y-105789179D01*
X164091737Y-105643497D01*
X164122500Y-105488842D01*
X164122500Y-105331158D01*
X164122500Y-105331155D01*
X164122499Y-105331153D01*
X164094958Y-105192691D01*
X164101185Y-105123100D01*
X164144048Y-105067922D01*
X164209938Y-105044678D01*
X164216575Y-105044500D01*
X187385192Y-105044500D01*
X187452231Y-105064185D01*
X187472873Y-105080819D01*
X187904984Y-105512930D01*
X187938469Y-105574253D01*
X187938920Y-105576420D01*
X187952261Y-105643489D01*
X187952264Y-105643501D01*
X188012602Y-105789172D01*
X188012609Y-105789185D01*
X188100210Y-105920288D01*
X188100213Y-105920292D01*
X188211707Y-106031786D01*
X188211711Y-106031789D01*
X188342814Y-106119390D01*
X188342827Y-106119397D01*
X188488498Y-106179735D01*
X188488503Y-106179737D01*
X188643153Y-106210499D01*
X188643156Y-106210500D01*
X188643158Y-106210500D01*
X188800844Y-106210500D01*
X188800845Y-106210499D01*
X188955497Y-106179737D01*
X189101179Y-106119394D01*
X189232289Y-106031789D01*
X189343789Y-105920289D01*
X189431394Y-105789179D01*
X189491737Y-105643497D01*
X189522500Y-105488842D01*
X189522500Y-105331158D01*
X189522500Y-105331155D01*
X189522499Y-105331153D01*
X189494958Y-105192691D01*
X189501185Y-105123100D01*
X189544048Y-105067922D01*
X189609938Y-105044678D01*
X189616575Y-105044500D01*
X212785192Y-105044500D01*
X212852231Y-105064185D01*
X212872873Y-105080819D01*
X213304984Y-105512930D01*
X213338469Y-105574253D01*
X213338920Y-105576420D01*
X213352261Y-105643489D01*
X213352264Y-105643501D01*
X213412602Y-105789172D01*
X213412609Y-105789185D01*
X213500210Y-105920288D01*
X213500213Y-105920292D01*
X213611707Y-106031786D01*
X213611711Y-106031789D01*
X213742814Y-106119390D01*
X213742827Y-106119397D01*
X213888498Y-106179735D01*
X213888503Y-106179737D01*
X214043153Y-106210499D01*
X214043156Y-106210500D01*
X214043158Y-106210500D01*
X214200844Y-106210500D01*
X214200845Y-106210499D01*
X214355497Y-106179737D01*
X214501179Y-106119394D01*
X214632289Y-106031789D01*
X214743789Y-105920289D01*
X214831394Y-105789179D01*
X214891737Y-105643497D01*
X214922500Y-105488842D01*
X214922500Y-105331158D01*
X214922500Y-105331155D01*
X214922499Y-105331153D01*
X214894958Y-105192691D01*
X214901185Y-105123100D01*
X214944048Y-105067922D01*
X215009938Y-105044678D01*
X215016575Y-105044500D01*
X238185192Y-105044500D01*
X238252231Y-105064185D01*
X238272873Y-105080819D01*
X238704984Y-105512930D01*
X238738469Y-105574253D01*
X238738920Y-105576420D01*
X238752261Y-105643489D01*
X238752264Y-105643501D01*
X238812602Y-105789172D01*
X238812609Y-105789185D01*
X238900210Y-105920288D01*
X238900213Y-105920292D01*
X239011707Y-106031786D01*
X239011711Y-106031789D01*
X239142814Y-106119390D01*
X239142827Y-106119397D01*
X239288498Y-106179735D01*
X239288503Y-106179737D01*
X239443153Y-106210499D01*
X239443156Y-106210500D01*
X239443158Y-106210500D01*
X239600844Y-106210500D01*
X239600845Y-106210499D01*
X239755497Y-106179737D01*
X239901179Y-106119394D01*
X240032289Y-106031789D01*
X240143789Y-105920289D01*
X240231394Y-105789179D01*
X240291737Y-105643497D01*
X240322500Y-105488842D01*
X240322500Y-105331158D01*
X240322500Y-105331155D01*
X240322499Y-105331153D01*
X240294958Y-105192691D01*
X240301185Y-105123100D01*
X240344048Y-105067922D01*
X240409938Y-105044678D01*
X240416575Y-105044500D01*
X263585192Y-105044500D01*
X263652231Y-105064185D01*
X263672873Y-105080819D01*
X264104984Y-105512930D01*
X264138469Y-105574253D01*
X264138920Y-105576420D01*
X264152261Y-105643489D01*
X264152264Y-105643501D01*
X264212602Y-105789172D01*
X264212609Y-105789185D01*
X264300210Y-105920288D01*
X264300213Y-105920292D01*
X264411707Y-106031786D01*
X264411711Y-106031789D01*
X264542814Y-106119390D01*
X264542827Y-106119397D01*
X264688498Y-106179735D01*
X264688503Y-106179737D01*
X264843153Y-106210499D01*
X264843156Y-106210500D01*
X264843158Y-106210500D01*
X265000844Y-106210500D01*
X265000845Y-106210499D01*
X265155497Y-106179737D01*
X265301179Y-106119394D01*
X265432289Y-106031789D01*
X265543789Y-105920289D01*
X265631394Y-105789179D01*
X265691737Y-105643497D01*
X265722500Y-105488842D01*
X265722500Y-105331158D01*
X265722500Y-105331155D01*
X265722499Y-105331153D01*
X265713283Y-105284821D01*
X265691737Y-105176503D01*
X265652104Y-105080819D01*
X265631397Y-105030827D01*
X265631390Y-105030814D01*
X265543789Y-104899711D01*
X265543786Y-104899707D01*
X265432292Y-104788213D01*
X265432288Y-104788210D01*
X265301185Y-104700609D01*
X265301172Y-104700602D01*
X265155501Y-104640264D01*
X265155489Y-104640261D01*
X265088420Y-104626920D01*
X265026509Y-104594535D01*
X265024930Y-104592984D01*
X264320674Y-103888727D01*
X264320673Y-103888726D01*
X264214131Y-103817538D01*
X264214127Y-103817535D01*
X264214122Y-103817533D01*
X264095744Y-103768499D01*
X264095738Y-103768497D01*
X263970071Y-103743500D01*
X263970069Y-103743500D01*
X238570069Y-103743500D01*
X213170069Y-103743500D01*
X187770069Y-103743500D01*
X162370069Y-103743500D01*
X111570069Y-103743500D01*
X88327931Y-103743500D01*
X88327929Y-103743500D01*
X88202261Y-103768497D01*
X88202255Y-103768499D01*
X88083875Y-103817533D01*
X88083866Y-103817538D01*
X87977331Y-103888723D01*
X87977327Y-103888726D01*
X87019069Y-104846984D01*
X86957746Y-104880469D01*
X86955580Y-104880920D01*
X86888508Y-104894261D01*
X86888498Y-104894264D01*
X86742827Y-104954602D01*
X86742814Y-104954609D01*
X86611711Y-105042210D01*
X86611707Y-105042213D01*
X86500213Y-105153707D01*
X86500210Y-105153711D01*
X86412609Y-105284814D01*
X86412602Y-105284827D01*
X86352264Y-105430498D01*
X86352261Y-105430510D01*
X86321500Y-105585153D01*
X83226002Y-105585153D01*
X83259394Y-105535179D01*
X83319737Y-105389497D01*
X83350500Y-105234842D01*
X83350500Y-105077158D01*
X83350500Y-105077155D01*
X83350499Y-105077153D01*
X83343549Y-105042213D01*
X83319737Y-104922503D01*
X83302326Y-104880469D01*
X83259397Y-104776827D01*
X83259390Y-104776814D01*
X83171789Y-104645711D01*
X83171786Y-104645707D01*
X83060292Y-104534213D01*
X83060288Y-104534210D01*
X82929185Y-104446609D01*
X82929172Y-104446602D01*
X82783501Y-104386264D01*
X82783489Y-104386261D01*
X82628845Y-104355500D01*
X82628842Y-104355500D01*
X82471158Y-104355500D01*
X82471155Y-104355500D01*
X82316510Y-104386261D01*
X82316498Y-104386264D01*
X82170827Y-104446602D01*
X82170814Y-104446609D01*
X82039711Y-104534210D01*
X82039707Y-104534213D01*
X81928213Y-104645707D01*
X81928210Y-104645711D01*
X81840609Y-104776814D01*
X81840602Y-104776827D01*
X81780264Y-104922498D01*
X81780261Y-104922510D01*
X81749500Y-105077153D01*
X81749500Y-105191219D01*
X81729815Y-105258258D01*
X81677011Y-105304013D01*
X81607853Y-105313957D01*
X81606102Y-105313692D01*
X81462659Y-105290973D01*
X81390222Y-105279500D01*
X81169778Y-105279500D01*
X81097341Y-105290973D01*
X80952047Y-105313985D01*
X80742396Y-105382103D01*
X80742393Y-105382104D01*
X80545974Y-105482187D01*
X80367641Y-105611752D01*
X80367636Y-105611756D01*
X80211756Y-105767636D01*
X80211752Y-105767641D01*
X80110318Y-105907254D01*
X80054988Y-105949920D01*
X79985375Y-105955899D01*
X79923580Y-105923293D01*
X79909682Y-105907254D01*
X79808247Y-105767641D01*
X79808243Y-105767636D01*
X79652363Y-105611756D01*
X79652358Y-105611752D01*
X79474025Y-105482187D01*
X79474024Y-105482186D01*
X79474022Y-105482185D01*
X79411096Y-105450122D01*
X79277606Y-105382104D01*
X79277603Y-105382103D01*
X79067952Y-105313985D01*
X78922659Y-105290973D01*
X78850222Y-105279500D01*
X78629778Y-105279500D01*
X78557341Y-105290973D01*
X78412047Y-105313985D01*
X78202396Y-105382103D01*
X78202393Y-105382104D01*
X78005974Y-105482187D01*
X77827641Y-105611752D01*
X77827636Y-105611756D01*
X77671756Y-105767636D01*
X77671752Y-105767641D01*
X77542187Y-105945974D01*
X77442104Y-106142393D01*
X77442103Y-106142396D01*
X77373985Y-106352047D01*
X77339500Y-106569778D01*
X75430500Y-106569778D01*
X75430500Y-101589500D01*
X75450185Y-101522461D01*
X75502989Y-101476706D01*
X75554500Y-101465500D01*
X274330500Y-101465500D01*
X274397539Y-101485185D01*
G37*
%TD.AperFunction*%
%TA.AperFunction,Conductor*%
G36*
X141951900Y-133644558D02*
G01*
X142007833Y-133686430D01*
X142032250Y-133751894D01*
X142023127Y-133808192D01*
X141978264Y-133916501D01*
X141978261Y-133916513D01*
X141947500Y-134071156D01*
X141947500Y-134228849D01*
X141978261Y-134383492D01*
X141978264Y-134383504D01*
X142038602Y-134529175D01*
X142038609Y-134529188D01*
X142126210Y-134660291D01*
X142126213Y-134660295D01*
X142237707Y-134771789D01*
X142237711Y-134771792D01*
X142368814Y-134859393D01*
X142368827Y-134859400D01*
X142490986Y-134909999D01*
X142514503Y-134919740D01*
X142669153Y-134950502D01*
X142669156Y-134950503D01*
X142669158Y-134950503D01*
X142826844Y-134950503D01*
X142826845Y-134950502D01*
X142981497Y-134919740D01*
X143127179Y-134859397D01*
X143184044Y-134821400D01*
X143250721Y-134800523D01*
X143252935Y-134800503D01*
X154657195Y-134800503D01*
X154724234Y-134820188D01*
X154744876Y-134836822D01*
X164543652Y-144635598D01*
X164577137Y-144696921D01*
X164572153Y-144766613D01*
X164530281Y-144822546D01*
X164512266Y-144833764D01*
X164392180Y-144894951D01*
X164220213Y-145019890D01*
X164069890Y-145170213D01*
X163944949Y-145342182D01*
X163940484Y-145350946D01*
X163892509Y-145401742D01*
X163824688Y-145418536D01*
X163758553Y-145395998D01*
X163719516Y-145350946D01*
X163715050Y-145342182D01*
X163590109Y-145170213D01*
X163439786Y-145019890D01*
X163267820Y-144894951D01*
X163078414Y-144798444D01*
X163078413Y-144798443D01*
X163078412Y-144798443D01*
X162876243Y-144732754D01*
X162876241Y-144732753D01*
X162876240Y-144732753D01*
X162714957Y-144707208D01*
X162666287Y-144699500D01*
X162453713Y-144699500D01*
X162405042Y-144707208D01*
X162243760Y-144732753D01*
X162041585Y-144798444D01*
X161852179Y-144894951D01*
X161680213Y-145019890D01*
X161529890Y-145170213D01*
X161404949Y-145342182D01*
X161400484Y-145350946D01*
X161352509Y-145401742D01*
X161284688Y-145418536D01*
X161218553Y-145395998D01*
X161179516Y-145350946D01*
X161175050Y-145342182D01*
X161050109Y-145170213D01*
X160899786Y-145019890D01*
X160727820Y-144894951D01*
X160538414Y-144798444D01*
X160538413Y-144798443D01*
X160538412Y-144798443D01*
X160336243Y-144732754D01*
X160336241Y-144732753D01*
X160336240Y-144732753D01*
X160174957Y-144707208D01*
X160126287Y-144699500D01*
X159913713Y-144699500D01*
X159865042Y-144707208D01*
X159703760Y-144732753D01*
X159501585Y-144798444D01*
X159312179Y-144894951D01*
X159140213Y-145019890D01*
X158989890Y-145170213D01*
X158864949Y-145342182D01*
X158860484Y-145350946D01*
X158812509Y-145401742D01*
X158744688Y-145418536D01*
X158678553Y-145395998D01*
X158639516Y-145350946D01*
X158635050Y-145342182D01*
X158510109Y-145170213D01*
X158359786Y-145019890D01*
X158187820Y-144894951D01*
X157998414Y-144798444D01*
X157998413Y-144798443D01*
X157998412Y-144798443D01*
X157796243Y-144732754D01*
X157796241Y-144732753D01*
X157796240Y-144732753D01*
X157634957Y-144707208D01*
X157586287Y-144699500D01*
X157373713Y-144699500D01*
X157325042Y-144707208D01*
X157163760Y-144732753D01*
X156961585Y-144798444D01*
X156772179Y-144894951D01*
X156600213Y-145019890D01*
X156449890Y-145170213D01*
X156324951Y-145342180D01*
X156264088Y-145461630D01*
X156216113Y-145512426D01*
X156148292Y-145529221D01*
X156082157Y-145506683D01*
X156043118Y-145461629D01*
X156009102Y-145394868D01*
X156009095Y-145394858D01*
X155909288Y-145257487D01*
X155909288Y-145257486D01*
X155370728Y-145796045D01*
X155340099Y-145742993D01*
X155247007Y-145649901D01*
X155193953Y-145619270D01*
X155732512Y-145080711D01*
X155732511Y-145080710D01*
X155595141Y-144980904D01*
X155595135Y-144980900D01*
X155419835Y-144891581D01*
X155232705Y-144830778D01*
X155038382Y-144800000D01*
X154841618Y-144800000D01*
X154647294Y-144830778D01*
X154460164Y-144891581D01*
X154284856Y-144980904D01*
X154147487Y-145080710D01*
X154147486Y-145080710D01*
X154686046Y-145619270D01*
X154632993Y-145649901D01*
X154539901Y-145742993D01*
X154509270Y-145796046D01*
X153970710Y-145257486D01*
X153970710Y-145257487D01*
X153870904Y-145394856D01*
X153780485Y-145572315D01*
X153732511Y-145623111D01*
X153664690Y-145639906D01*
X153598555Y-145617369D01*
X153559515Y-145572315D01*
X153469099Y-145394864D01*
X153469095Y-145394858D01*
X153369288Y-145257487D01*
X153369288Y-145257486D01*
X152830728Y-145796045D01*
X152800099Y-145742993D01*
X152707007Y-145649901D01*
X152653953Y-145619270D01*
X153192512Y-145080711D01*
X153192511Y-145080710D01*
X153055141Y-144980904D01*
X153055135Y-144980900D01*
X152879835Y-144891581D01*
X152692705Y-144830778D01*
X152498382Y-144800000D01*
X152301618Y-144800000D01*
X152107294Y-144830778D01*
X151920164Y-144891581D01*
X151744856Y-144980904D01*
X151607487Y-145080710D01*
X151607486Y-145080710D01*
X152146046Y-145619270D01*
X152092993Y-145649901D01*
X151999901Y-145742993D01*
X151969270Y-145796046D01*
X151430710Y-145257486D01*
X151430710Y-145257487D01*
X151330904Y-145394856D01*
X151241581Y-145570164D01*
X151180778Y-145757294D01*
X151150000Y-145951617D01*
X151150000Y-146148382D01*
X151180778Y-146342705D01*
X151241581Y-146529835D01*
X151330900Y-146705135D01*
X151330904Y-146705141D01*
X151430710Y-146842511D01*
X151430711Y-146842512D01*
X151969270Y-146303952D01*
X151999901Y-146357007D01*
X152092993Y-146450099D01*
X152146046Y-146480729D01*
X151607486Y-147019288D01*
X151744858Y-147119095D01*
X151744864Y-147119099D01*
X151920164Y-147208418D01*
X152107294Y-147269221D01*
X152301618Y-147300000D01*
X152498382Y-147300000D01*
X152692705Y-147269221D01*
X152879835Y-147208418D01*
X153055143Y-147119095D01*
X153192511Y-147019288D01*
X153192512Y-147019287D01*
X152653954Y-146480729D01*
X152707007Y-146450099D01*
X152800099Y-146357007D01*
X152830729Y-146303953D01*
X153369287Y-146842512D01*
X153369288Y-146842511D01*
X153469097Y-146705141D01*
X153469097Y-146705140D01*
X153559515Y-146527685D01*
X153607489Y-146476888D01*
X153675310Y-146460093D01*
X153741445Y-146482630D01*
X153780485Y-146527685D01*
X153870897Y-146705130D01*
X153870904Y-146705141D01*
X153970710Y-146842511D01*
X153970710Y-146842512D01*
X154509270Y-146303952D01*
X154539901Y-146357007D01*
X154632993Y-146450099D01*
X154686046Y-146480729D01*
X154147486Y-147019288D01*
X154284858Y-147119095D01*
X154284864Y-147119099D01*
X154460164Y-147208418D01*
X154647294Y-147269221D01*
X154841618Y-147300000D01*
X155038382Y-147300000D01*
X155232705Y-147269221D01*
X155419835Y-147208418D01*
X155595143Y-147119095D01*
X155732511Y-147019288D01*
X155732512Y-147019287D01*
X155193954Y-146480729D01*
X155247007Y-146450099D01*
X155340099Y-146357007D01*
X155370729Y-146303953D01*
X155909287Y-146842512D01*
X155909288Y-146842511D01*
X156009097Y-146705141D01*
X156009097Y-146705140D01*
X156043118Y-146638370D01*
X156091091Y-146587574D01*
X156158912Y-146570778D01*
X156225047Y-146593315D01*
X156264087Y-146638368D01*
X156286045Y-146681463D01*
X156324951Y-146757820D01*
X156449890Y-146929786D01*
X156600213Y-147080109D01*
X156772179Y-147205048D01*
X156772181Y-147205049D01*
X156772184Y-147205051D01*
X156961588Y-147301557D01*
X157163757Y-147367246D01*
X157373713Y-147400500D01*
X157373714Y-147400500D01*
X157586286Y-147400500D01*
X157586287Y-147400500D01*
X157796243Y-147367246D01*
X157998412Y-147301557D01*
X158187816Y-147205051D01*
X158252831Y-147157815D01*
X158359786Y-147080109D01*
X158359788Y-147080106D01*
X158359792Y-147080104D01*
X158510104Y-146929792D01*
X158510106Y-146929788D01*
X158510109Y-146929786D01*
X158635048Y-146757820D01*
X158635047Y-146757820D01*
X158635051Y-146757816D01*
X158639514Y-146749054D01*
X158687488Y-146698259D01*
X158755308Y-146681463D01*
X158821444Y-146703999D01*
X158860486Y-146749056D01*
X158864951Y-146757820D01*
X158989890Y-146929786D01*
X159140213Y-147080109D01*
X159312179Y-147205048D01*
X159312181Y-147205049D01*
X159312184Y-147205051D01*
X159501588Y-147301557D01*
X159703757Y-147367246D01*
X159913713Y-147400500D01*
X159913714Y-147400500D01*
X160126286Y-147400500D01*
X160126287Y-147400500D01*
X160336243Y-147367246D01*
X160538412Y-147301557D01*
X160727816Y-147205051D01*
X160792831Y-147157815D01*
X160899786Y-147080109D01*
X160899788Y-147080106D01*
X160899792Y-147080104D01*
X161050104Y-146929792D01*
X161050106Y-146929788D01*
X161050109Y-146929786D01*
X161175048Y-146757820D01*
X161175047Y-146757820D01*
X161175051Y-146757816D01*
X161179514Y-146749054D01*
X161227488Y-146698259D01*
X161295308Y-146681463D01*
X161361444Y-146703999D01*
X161400486Y-146749056D01*
X161404951Y-146757820D01*
X161529890Y-146929786D01*
X161680213Y-147080109D01*
X161852179Y-147205048D01*
X161852181Y-147205049D01*
X161852184Y-147205051D01*
X162041588Y-147301557D01*
X162243757Y-147367246D01*
X162453713Y-147400500D01*
X162453714Y-147400500D01*
X162666286Y-147400500D01*
X162666287Y-147400500D01*
X162876243Y-147367246D01*
X163078412Y-147301557D01*
X163267816Y-147205051D01*
X163332831Y-147157815D01*
X163439786Y-147080109D01*
X163439788Y-147080106D01*
X163439792Y-147080104D01*
X163590104Y-146929792D01*
X163590106Y-146929788D01*
X163590109Y-146929786D01*
X163715048Y-146757820D01*
X163715047Y-146757820D01*
X163715051Y-146757816D01*
X163719514Y-146749054D01*
X163767488Y-146698259D01*
X163835308Y-146681463D01*
X163901444Y-146703999D01*
X163940486Y-146749056D01*
X163944951Y-146757820D01*
X164069890Y-146929786D01*
X164220213Y-147080109D01*
X164392179Y-147205048D01*
X164392181Y-147205049D01*
X164392184Y-147205051D01*
X164581588Y-147301557D01*
X164783757Y-147367246D01*
X164993713Y-147400500D01*
X164993714Y-147400500D01*
X165206286Y-147400500D01*
X165206287Y-147400500D01*
X165416243Y-147367246D01*
X165557185Y-147321450D01*
X165627022Y-147319456D01*
X165686855Y-147355536D01*
X165717684Y-147418237D01*
X165719500Y-147439382D01*
X165719500Y-147638071D01*
X165738715Y-147734667D01*
X165738715Y-147734668D01*
X165744497Y-147763737D01*
X165744498Y-147763741D01*
X165744499Y-147763744D01*
X165793535Y-147882127D01*
X165819286Y-147920666D01*
X165864726Y-147988673D01*
X166209327Y-148333274D01*
X166209330Y-148333276D01*
X166280945Y-148381127D01*
X166315873Y-148404465D01*
X166434256Y-148453501D01*
X166434260Y-148453501D01*
X166434261Y-148453502D01*
X166561854Y-148478883D01*
X166623765Y-148511268D01*
X166658339Y-148571984D01*
X166654598Y-148641754D01*
X166613732Y-148698425D01*
X166548714Y-148724007D01*
X166537662Y-148724500D01*
X126832338Y-148724500D01*
X126765299Y-148704815D01*
X126719544Y-148652011D01*
X126709600Y-148582853D01*
X126738625Y-148519297D01*
X126797403Y-148481523D01*
X126808146Y-148478883D01*
X126899132Y-148460783D01*
X126935744Y-148453501D01*
X127054127Y-148404465D01*
X127089055Y-148381127D01*
X127160669Y-148333277D01*
X141820887Y-133673057D01*
X141882208Y-133639574D01*
X141951900Y-133644558D01*
G37*
%TD.AperFunction*%
%TD*%
%TA.AperFunction,NonConductor*%
G36*
X191841444Y-131463999D02*
G01*
X191880486Y-131509056D01*
X191884951Y-131517820D01*
X192009890Y-131689786D01*
X192045923Y-131725819D01*
X192079408Y-131787142D01*
X192074424Y-131856834D01*
X192032552Y-131912767D01*
X191967088Y-131937184D01*
X191958242Y-131937500D01*
X191581758Y-131937500D01*
X191514719Y-131917815D01*
X191468964Y-131865011D01*
X191459020Y-131795853D01*
X191488045Y-131732297D01*
X191494077Y-131725819D01*
X191512026Y-131707870D01*
X191530104Y-131689792D01*
X191530106Y-131689788D01*
X191530109Y-131689786D01*
X191655048Y-131517820D01*
X191655050Y-131517817D01*
X191655051Y-131517816D01*
X191659514Y-131509054D01*
X191707488Y-131458259D01*
X191775308Y-131441463D01*
X191841444Y-131463999D01*
G37*
%TD.AperFunction*%
%TA.AperFunction,NonConductor*%
G36*
X189301444Y-131463999D02*
G01*
X189340486Y-131509056D01*
X189344951Y-131517820D01*
X189469890Y-131689786D01*
X189505923Y-131725819D01*
X189539408Y-131787142D01*
X189534424Y-131856834D01*
X189492552Y-131912767D01*
X189427088Y-131937184D01*
X189418242Y-131937500D01*
X189041758Y-131937500D01*
X188974719Y-131917815D01*
X188928964Y-131865011D01*
X188919020Y-131795853D01*
X188948045Y-131732297D01*
X188954077Y-131725819D01*
X188972026Y-131707870D01*
X188990104Y-131689792D01*
X188990106Y-131689788D01*
X188990109Y-131689786D01*
X189115048Y-131517820D01*
X189115050Y-131517817D01*
X189115051Y-131517816D01*
X189119514Y-131509054D01*
X189167488Y-131458259D01*
X189235308Y-131441463D01*
X189301444Y-131463999D01*
G37*
%TD.AperFunction*%
%TA.AperFunction,NonConductor*%
G36*
X186761444Y-131463999D02*
G01*
X186800486Y-131509056D01*
X186804951Y-131517820D01*
X186929890Y-131689786D01*
X186965923Y-131725819D01*
X186999408Y-131787142D01*
X186994424Y-131856834D01*
X186952552Y-131912767D01*
X186887088Y-131937184D01*
X186878242Y-131937500D01*
X186501758Y-131937500D01*
X186434719Y-131917815D01*
X186388964Y-131865011D01*
X186379020Y-131795853D01*
X186408045Y-131732297D01*
X186414077Y-131725819D01*
X186432026Y-131707870D01*
X186450104Y-131689792D01*
X186450106Y-131689788D01*
X186450109Y-131689786D01*
X186575048Y-131517820D01*
X186575050Y-131517817D01*
X186575051Y-131517816D01*
X186579514Y-131509054D01*
X186627488Y-131458259D01*
X186695308Y-131441463D01*
X186761444Y-131463999D01*
G37*
%TD.AperFunction*%
%TA.AperFunction,NonConductor*%
G36*
X184221444Y-131463999D02*
G01*
X184260486Y-131509056D01*
X184264951Y-131517820D01*
X184389890Y-131689786D01*
X184425923Y-131725819D01*
X184459408Y-131787142D01*
X184454424Y-131856834D01*
X184412552Y-131912767D01*
X184347088Y-131937184D01*
X184338242Y-131937500D01*
X183961758Y-131937500D01*
X183894719Y-131917815D01*
X183848964Y-131865011D01*
X183839020Y-131795853D01*
X183868045Y-131732297D01*
X183874077Y-131725819D01*
X183892026Y-131707870D01*
X183910104Y-131689792D01*
X183910106Y-131689788D01*
X183910109Y-131689786D01*
X184035048Y-131517820D01*
X184035050Y-131517817D01*
X184035051Y-131517816D01*
X184039514Y-131509054D01*
X184087488Y-131458259D01*
X184155308Y-131441463D01*
X184221444Y-131463999D01*
G37*
%TD.AperFunction*%
%TA.AperFunction,NonConductor*%
G36*
X181681444Y-131463999D02*
G01*
X181720486Y-131509056D01*
X181724951Y-131517820D01*
X181849890Y-131689786D01*
X181885923Y-131725819D01*
X181919408Y-131787142D01*
X181914424Y-131856834D01*
X181872552Y-131912767D01*
X181807088Y-131937184D01*
X181798242Y-131937500D01*
X181421758Y-131937500D01*
X181354719Y-131917815D01*
X181308964Y-131865011D01*
X181299020Y-131795853D01*
X181328045Y-131732297D01*
X181334077Y-131725819D01*
X181352026Y-131707870D01*
X181370104Y-131689792D01*
X181370106Y-131689788D01*
X181370109Y-131689786D01*
X181495048Y-131517820D01*
X181495050Y-131517817D01*
X181495051Y-131517816D01*
X181499514Y-131509054D01*
X181547488Y-131458259D01*
X181615308Y-131441463D01*
X181681444Y-131463999D01*
G37*
%TD.AperFunction*%
%TA.AperFunction,NonConductor*%
G36*
X179141444Y-131463999D02*
G01*
X179180486Y-131509056D01*
X179184951Y-131517820D01*
X179309890Y-131689786D01*
X179345923Y-131725819D01*
X179379408Y-131787142D01*
X179374424Y-131856834D01*
X179332552Y-131912767D01*
X179267088Y-131937184D01*
X179258242Y-131937500D01*
X178881758Y-131937500D01*
X178814719Y-131917815D01*
X178768964Y-131865011D01*
X178759020Y-131795853D01*
X178788045Y-131732297D01*
X178794077Y-131725819D01*
X178812026Y-131707870D01*
X178830104Y-131689792D01*
X178830106Y-131689788D01*
X178830109Y-131689786D01*
X178955048Y-131517820D01*
X178955050Y-131517817D01*
X178955051Y-131517816D01*
X178959514Y-131509054D01*
X179007488Y-131458259D01*
X179075308Y-131441463D01*
X179141444Y-131463999D01*
G37*
%TD.AperFunction*%
%TA.AperFunction,NonConductor*%
G36*
X176601444Y-131463999D02*
G01*
X176640486Y-131509056D01*
X176644951Y-131517820D01*
X176769890Y-131689786D01*
X176805923Y-131725819D01*
X176839408Y-131787142D01*
X176834424Y-131856834D01*
X176792552Y-131912767D01*
X176727088Y-131937184D01*
X176718242Y-131937500D01*
X176341758Y-131937500D01*
X176274719Y-131917815D01*
X176228964Y-131865011D01*
X176219020Y-131795853D01*
X176248045Y-131732297D01*
X176254077Y-131725819D01*
X176272026Y-131707870D01*
X176290104Y-131689792D01*
X176290106Y-131689788D01*
X176290109Y-131689786D01*
X176415048Y-131517820D01*
X176415050Y-131517817D01*
X176415051Y-131517816D01*
X176419514Y-131509054D01*
X176467488Y-131458259D01*
X176535308Y-131441463D01*
X176601444Y-131463999D01*
G37*
%TD.AperFunction*%
%TA.AperFunction,NonConductor*%
G36*
X174061444Y-131463999D02*
G01*
X174100486Y-131509056D01*
X174104951Y-131517820D01*
X174229890Y-131689786D01*
X174265923Y-131725819D01*
X174299408Y-131787142D01*
X174294424Y-131856834D01*
X174252552Y-131912767D01*
X174187088Y-131937184D01*
X174178242Y-131937500D01*
X173801758Y-131937500D01*
X173734719Y-131917815D01*
X173688964Y-131865011D01*
X173679020Y-131795853D01*
X173708045Y-131732297D01*
X173714077Y-131725819D01*
X173732026Y-131707870D01*
X173750104Y-131689792D01*
X173750106Y-131689788D01*
X173750109Y-131689786D01*
X173875048Y-131517820D01*
X173875050Y-131517817D01*
X173875051Y-131517816D01*
X173879514Y-131509054D01*
X173927488Y-131458259D01*
X173995308Y-131441463D01*
X174061444Y-131463999D01*
G37*
%TD.AperFunction*%
%TA.AperFunction,NonConductor*%
G36*
X171521444Y-131463999D02*
G01*
X171560486Y-131509056D01*
X171564951Y-131517820D01*
X171689890Y-131689786D01*
X171725923Y-131725819D01*
X171759408Y-131787142D01*
X171754424Y-131856834D01*
X171712552Y-131912767D01*
X171647088Y-131937184D01*
X171638242Y-131937500D01*
X171261758Y-131937500D01*
X171194719Y-131917815D01*
X171148964Y-131865011D01*
X171139020Y-131795853D01*
X171168045Y-131732297D01*
X171174077Y-131725819D01*
X171192026Y-131707870D01*
X171210104Y-131689792D01*
X171210106Y-131689788D01*
X171210109Y-131689786D01*
X171335048Y-131517820D01*
X171335050Y-131517817D01*
X171335051Y-131517816D01*
X171339514Y-131509054D01*
X171387488Y-131458259D01*
X171455308Y-131441463D01*
X171521444Y-131463999D01*
G37*
%TD.AperFunction*%
%TA.AperFunction,NonConductor*%
G36*
X168981444Y-131463999D02*
G01*
X169020486Y-131509056D01*
X169024951Y-131517820D01*
X169149890Y-131689786D01*
X169185923Y-131725819D01*
X169219408Y-131787142D01*
X169214424Y-131856834D01*
X169172552Y-131912767D01*
X169107088Y-131937184D01*
X169098242Y-131937500D01*
X168721758Y-131937500D01*
X168654719Y-131917815D01*
X168608964Y-131865011D01*
X168599020Y-131795853D01*
X168628045Y-131732297D01*
X168634077Y-131725819D01*
X168652026Y-131707870D01*
X168670104Y-131689792D01*
X168670106Y-131689788D01*
X168670109Y-131689786D01*
X168795048Y-131517820D01*
X168795050Y-131517817D01*
X168795051Y-131517816D01*
X168799514Y-131509054D01*
X168847488Y-131458259D01*
X168915308Y-131441463D01*
X168981444Y-131463999D01*
G37*
%TD.AperFunction*%
%TA.AperFunction,NonConductor*%
G36*
X166441444Y-131463999D02*
G01*
X166480486Y-131509056D01*
X166484951Y-131517820D01*
X166609890Y-131689786D01*
X166645923Y-131725819D01*
X166679408Y-131787142D01*
X166674424Y-131856834D01*
X166632552Y-131912767D01*
X166567088Y-131937184D01*
X166558242Y-131937500D01*
X166181758Y-131937500D01*
X166114719Y-131917815D01*
X166068964Y-131865011D01*
X166059020Y-131795853D01*
X166088045Y-131732297D01*
X166094077Y-131725819D01*
X166112026Y-131707870D01*
X166130104Y-131689792D01*
X166130106Y-131689788D01*
X166130109Y-131689786D01*
X166255048Y-131517820D01*
X166255050Y-131517817D01*
X166255051Y-131517816D01*
X166259514Y-131509054D01*
X166307488Y-131458259D01*
X166375308Y-131441463D01*
X166441444Y-131463999D01*
G37*
%TD.AperFunction*%
%TA.AperFunction,NonConductor*%
G36*
X163901444Y-131463999D02*
G01*
X163940486Y-131509056D01*
X163944951Y-131517820D01*
X164069890Y-131689786D01*
X164105923Y-131725819D01*
X164139408Y-131787142D01*
X164134424Y-131856834D01*
X164092552Y-131912767D01*
X164027088Y-131937184D01*
X164018242Y-131937500D01*
X163641758Y-131937500D01*
X163574719Y-131917815D01*
X163528964Y-131865011D01*
X163519020Y-131795853D01*
X163548045Y-131732297D01*
X163554077Y-131725819D01*
X163572026Y-131707870D01*
X163590104Y-131689792D01*
X163590106Y-131689788D01*
X163590109Y-131689786D01*
X163715048Y-131517820D01*
X163715050Y-131517817D01*
X163715051Y-131517816D01*
X163719514Y-131509054D01*
X163767488Y-131458259D01*
X163835308Y-131441463D01*
X163901444Y-131463999D01*
G37*
%TD.AperFunction*%
%TA.AperFunction,NonConductor*%
G36*
X161361444Y-131463999D02*
G01*
X161400486Y-131509056D01*
X161404951Y-131517820D01*
X161529890Y-131689786D01*
X161565923Y-131725819D01*
X161599408Y-131787142D01*
X161594424Y-131856834D01*
X161552552Y-131912767D01*
X161487088Y-131937184D01*
X161478242Y-131937500D01*
X161101758Y-131937500D01*
X161034719Y-131917815D01*
X160988964Y-131865011D01*
X160979020Y-131795853D01*
X161008045Y-131732297D01*
X161014077Y-131725819D01*
X161032026Y-131707870D01*
X161050104Y-131689792D01*
X161050106Y-131689788D01*
X161050109Y-131689786D01*
X161175048Y-131517820D01*
X161175050Y-131517817D01*
X161175051Y-131517816D01*
X161179514Y-131509054D01*
X161227488Y-131458259D01*
X161295308Y-131441463D01*
X161361444Y-131463999D01*
G37*
%TD.AperFunction*%
%TA.AperFunction,NonConductor*%
G36*
X158821444Y-131463999D02*
G01*
X158860486Y-131509056D01*
X158864951Y-131517820D01*
X158989890Y-131689786D01*
X159025923Y-131725819D01*
X159059408Y-131787142D01*
X159054424Y-131856834D01*
X159012552Y-131912767D01*
X158947088Y-131937184D01*
X158938242Y-131937500D01*
X158561758Y-131937500D01*
X158494719Y-131917815D01*
X158448964Y-131865011D01*
X158439020Y-131795853D01*
X158468045Y-131732297D01*
X158474077Y-131725819D01*
X158492026Y-131707870D01*
X158510104Y-131689792D01*
X158510106Y-131689788D01*
X158510109Y-131689786D01*
X158635048Y-131517820D01*
X158635050Y-131517817D01*
X158635051Y-131517816D01*
X158639514Y-131509054D01*
X158687488Y-131458259D01*
X158755308Y-131441463D01*
X158821444Y-131463999D01*
G37*
%TD.AperFunction*%
%TA.AperFunction,NonConductor*%
G36*
X156281444Y-131463999D02*
G01*
X156320486Y-131509056D01*
X156324951Y-131517820D01*
X156449890Y-131689786D01*
X156485923Y-131725819D01*
X156519408Y-131787142D01*
X156514424Y-131856834D01*
X156472552Y-131912767D01*
X156407088Y-131937184D01*
X156398242Y-131937500D01*
X156021758Y-131937500D01*
X155954719Y-131917815D01*
X155908964Y-131865011D01*
X155899020Y-131795853D01*
X155928045Y-131732297D01*
X155934077Y-131725819D01*
X155952026Y-131707870D01*
X155970104Y-131689792D01*
X155970106Y-131689788D01*
X155970109Y-131689786D01*
X156095048Y-131517820D01*
X156095050Y-131517817D01*
X156095051Y-131517816D01*
X156099514Y-131509054D01*
X156147488Y-131458259D01*
X156215308Y-131441463D01*
X156281444Y-131463999D01*
G37*
%TD.AperFunction*%
%TA.AperFunction,NonConductor*%
G36*
X274385212Y-130570724D02*
G01*
X274436688Y-130617968D01*
X274454500Y-130682001D01*
X274454500Y-132207998D01*
X274434815Y-132275037D01*
X274382011Y-132320792D01*
X274312853Y-132330736D01*
X274249297Y-132301711D01*
X274212570Y-132246319D01*
X274208883Y-132234973D01*
X274177476Y-132173333D01*
X274119524Y-132059595D01*
X274003828Y-131900354D01*
X273864646Y-131761172D01*
X273785025Y-131703324D01*
X273705403Y-131645474D01*
X273528787Y-131555485D01*
X273477990Y-131507511D01*
X273461195Y-131439690D01*
X273483732Y-131373555D01*
X273528787Y-131334515D01*
X273705403Y-131244525D01*
X273705402Y-131244525D01*
X273705405Y-131244524D01*
X273864646Y-131128828D01*
X274003828Y-130989646D01*
X274119524Y-130830405D01*
X274208884Y-130655025D01*
X274212570Y-130643680D01*
X274252007Y-130586007D01*
X274316366Y-130558809D01*
X274385212Y-130570724D01*
G37*
%TD.AperFunction*%
%TA.AperFunction,NonConductor*%
G36*
X274385212Y-133110724D02*
G01*
X274436688Y-133157968D01*
X274454500Y-133222001D01*
X274454500Y-134747998D01*
X274434815Y-134815037D01*
X274382011Y-134860792D01*
X274312853Y-134870736D01*
X274249297Y-134841711D01*
X274212570Y-134786319D01*
X274208883Y-134774973D01*
X274150450Y-134660291D01*
X274119524Y-134599595D01*
X274003828Y-134440354D01*
X273864646Y-134301172D01*
X273785025Y-134243324D01*
X273705403Y-134185474D01*
X273528787Y-134095485D01*
X273477990Y-134047511D01*
X273461195Y-133979690D01*
X273483732Y-133913555D01*
X273528787Y-133874515D01*
X273705403Y-133784525D01*
X273705402Y-133784525D01*
X273705405Y-133784524D01*
X273864646Y-133668828D01*
X274003828Y-133529646D01*
X274119524Y-133370405D01*
X274208884Y-133195025D01*
X274212570Y-133183680D01*
X274252007Y-133126007D01*
X274316366Y-133098809D01*
X274385212Y-133110724D01*
G37*
%TD.AperFunction*%
%TA.AperFunction,NonConductor*%
G36*
X274385212Y-135650724D02*
G01*
X274436688Y-135697968D01*
X274454500Y-135762001D01*
X274454500Y-137287998D01*
X274434815Y-137355037D01*
X274382011Y-137400792D01*
X274312853Y-137410736D01*
X274249297Y-137381711D01*
X274212570Y-137326319D01*
X274208883Y-137314973D01*
X274162565Y-137224069D01*
X274119524Y-137139595D01*
X274003828Y-136980354D01*
X273864646Y-136841172D01*
X273785025Y-136783324D01*
X273705403Y-136725474D01*
X273528787Y-136635485D01*
X273477990Y-136587511D01*
X273461195Y-136519690D01*
X273483732Y-136453555D01*
X273528787Y-136414515D01*
X273705403Y-136324525D01*
X273705402Y-136324525D01*
X273705405Y-136324524D01*
X273864646Y-136208828D01*
X274003828Y-136069646D01*
X274119524Y-135910405D01*
X274208884Y-135735025D01*
X274212570Y-135723680D01*
X274252007Y-135666007D01*
X274316366Y-135638809D01*
X274385212Y-135650724D01*
G37*
%TD.AperFunction*%
%TA.AperFunction,NonConductor*%
G36*
X274385212Y-138190724D02*
G01*
X274436688Y-138237968D01*
X274454500Y-138302001D01*
X274454500Y-139827998D01*
X274434815Y-139895037D01*
X274382011Y-139940792D01*
X274312853Y-139950736D01*
X274249297Y-139921711D01*
X274212570Y-139866319D01*
X274208883Y-139854973D01*
X274195139Y-139827998D01*
X274119524Y-139679595D01*
X274003828Y-139520354D01*
X273864646Y-139381172D01*
X273785025Y-139323324D01*
X273705403Y-139265474D01*
X273528787Y-139175485D01*
X273477990Y-139127511D01*
X273461195Y-139059690D01*
X273483732Y-138993555D01*
X273528787Y-138954515D01*
X273705403Y-138864525D01*
X273705402Y-138864525D01*
X273705405Y-138864524D01*
X273864646Y-138748828D01*
X274003828Y-138609646D01*
X274119524Y-138450405D01*
X274208884Y-138275025D01*
X274212570Y-138263680D01*
X274252007Y-138206007D01*
X274316366Y-138178809D01*
X274385212Y-138190724D01*
G37*
%TD.AperFunction*%
%TA.AperFunction,NonConductor*%
G36*
X168981444Y-146703999D02*
G01*
X169020486Y-146749056D01*
X169024951Y-146757820D01*
X169149890Y-146929786D01*
X169185923Y-146965819D01*
X169219408Y-147027142D01*
X169214424Y-147096834D01*
X169172552Y-147152767D01*
X169107088Y-147177184D01*
X169098242Y-147177500D01*
X168721758Y-147177500D01*
X168654719Y-147157815D01*
X168608964Y-147105011D01*
X168599020Y-147035853D01*
X168628045Y-146972297D01*
X168634077Y-146965819D01*
X168670104Y-146929792D01*
X168670106Y-146929788D01*
X168670109Y-146929786D01*
X168795048Y-146757820D01*
X168795047Y-146757820D01*
X168795051Y-146757816D01*
X168799514Y-146749054D01*
X168847488Y-146698259D01*
X168915308Y-146681463D01*
X168981444Y-146703999D01*
G37*
%TD.AperFunction*%
%TA.AperFunction,NonConductor*%
G36*
X271705398Y-135067664D02*
G01*
X271718834Y-135068625D01*
X271736560Y-135081895D01*
X271756703Y-135091094D01*
X271763985Y-135102425D01*
X271774767Y-135110497D01*
X271782504Y-135131242D01*
X271794477Y-135149872D01*
X271797628Y-135171790D01*
X271799184Y-135175961D01*
X271799500Y-135184807D01*
X271799500Y-135353422D01*
X271830290Y-135547826D01*
X271891117Y-135735029D01*
X271953639Y-135857734D01*
X271980476Y-135910405D01*
X272096172Y-136069646D01*
X272235354Y-136208828D01*
X272394595Y-136324524D01*
X272508486Y-136382554D01*
X272571213Y-136414515D01*
X272622009Y-136462489D01*
X272638804Y-136530310D01*
X272616267Y-136596445D01*
X272571213Y-136635485D01*
X272394594Y-136725476D01*
X272303741Y-136791485D01*
X272235354Y-136841172D01*
X272235352Y-136841174D01*
X272235351Y-136841174D01*
X272096174Y-136980351D01*
X272096174Y-136980352D01*
X272096172Y-136980354D01*
X272074996Y-137009500D01*
X271980476Y-137139594D01*
X271891117Y-137314970D01*
X271830290Y-137502173D01*
X271799500Y-137696577D01*
X271799500Y-137893422D01*
X271830290Y-138087826D01*
X271891117Y-138275029D01*
X271950667Y-138391902D01*
X271980476Y-138450405D01*
X272096172Y-138609646D01*
X272235354Y-138748828D01*
X272394595Y-138864524D01*
X272517992Y-138927397D01*
X272571213Y-138954515D01*
X272622009Y-139002489D01*
X272638804Y-139070310D01*
X272616267Y-139136445D01*
X272571213Y-139175485D01*
X272394594Y-139265476D01*
X272303741Y-139331485D01*
X272235354Y-139381172D01*
X272235352Y-139381174D01*
X272235351Y-139381174D01*
X272096174Y-139520351D01*
X272096174Y-139520352D01*
X272096172Y-139520354D01*
X272064824Y-139563501D01*
X271980476Y-139679594D01*
X271891117Y-139854970D01*
X271830290Y-140042173D01*
X271799500Y-140236577D01*
X271799500Y-140433422D01*
X271830290Y-140627826D01*
X271891117Y-140815029D01*
X271953639Y-140937734D01*
X271980476Y-140990405D01*
X272096172Y-141149646D01*
X272235354Y-141288828D01*
X272394595Y-141404524D01*
X272498545Y-141457489D01*
X272571213Y-141494515D01*
X272622009Y-141542489D01*
X272638804Y-141610310D01*
X272616267Y-141676445D01*
X272571213Y-141715485D01*
X272394594Y-141805476D01*
X272339113Y-141845786D01*
X272235354Y-141921172D01*
X272235352Y-141921174D01*
X272235351Y-141921174D01*
X272096174Y-142060351D01*
X272096174Y-142060352D01*
X272096172Y-142060354D01*
X272067523Y-142099786D01*
X271980476Y-142219594D01*
X271891117Y-142394970D01*
X271830290Y-142582173D01*
X271799500Y-142776577D01*
X271799500Y-142973422D01*
X271830290Y-143167826D01*
X271891117Y-143355029D01*
X271953639Y-143477734D01*
X271980476Y-143530405D01*
X272096172Y-143689646D01*
X272235354Y-143828828D01*
X272280141Y-143861368D01*
X272348385Y-143910950D01*
X272391051Y-143966280D01*
X272399500Y-144011268D01*
X272399500Y-144967192D01*
X272379815Y-145034231D01*
X272363181Y-145054873D01*
X270031873Y-147386181D01*
X269970550Y-147419666D01*
X269944192Y-147422500D01*
X267560808Y-147422500D01*
X267493769Y-147402815D01*
X267448014Y-147350011D01*
X267438070Y-147280853D01*
X267467095Y-147217297D01*
X267473127Y-147210819D01*
X267713273Y-146970673D01*
X267713277Y-146970669D01*
X267784465Y-146864127D01*
X267833501Y-146745744D01*
X267842501Y-146700499D01*
X267858500Y-146620069D01*
X267858500Y-138877807D01*
X267878185Y-138810768D01*
X267894814Y-138790131D01*
X271587819Y-135097125D01*
X271607255Y-135086513D01*
X271623989Y-135072013D01*
X271637320Y-135070096D01*
X271649142Y-135063641D01*
X271671228Y-135065220D01*
X271693147Y-135062069D01*
X271705398Y-135067664D01*
G37*
%TD.AperFunction*%
%TA.AperFunction,NonConductor*%
G36*
X194381444Y-146703999D02*
G01*
X194420486Y-146749056D01*
X194424951Y-146757820D01*
X194549890Y-146929786D01*
X194549896Y-146929792D01*
X194700208Y-147080104D01*
X194862730Y-147198182D01*
X194905395Y-147253511D01*
X194911374Y-147323125D01*
X194878769Y-147384920D01*
X194817930Y-147419277D01*
X194789844Y-147422500D01*
X193830156Y-147422500D01*
X193763117Y-147402815D01*
X193717362Y-147350011D01*
X193707418Y-147280853D01*
X193736443Y-147217297D01*
X193757267Y-147198183D01*
X193919792Y-147080104D01*
X194070104Y-146929792D01*
X194070106Y-146929788D01*
X194070109Y-146929786D01*
X194195048Y-146757820D01*
X194195047Y-146757820D01*
X194195051Y-146757816D01*
X194199514Y-146749054D01*
X194247488Y-146698259D01*
X194315308Y-146681463D01*
X194381444Y-146703999D01*
G37*
%TD.AperFunction*%
%TA.AperFunction,NonConductor*%
G36*
X191841444Y-146703999D02*
G01*
X191880486Y-146749056D01*
X191884951Y-146757820D01*
X192009890Y-146929786D01*
X192009896Y-146929792D01*
X192160208Y-147080104D01*
X192322730Y-147198182D01*
X192365395Y-147253511D01*
X192371374Y-147323125D01*
X192338769Y-147384920D01*
X192277930Y-147419277D01*
X192249844Y-147422500D01*
X191290156Y-147422500D01*
X191223117Y-147402815D01*
X191177362Y-147350011D01*
X191167418Y-147280853D01*
X191196443Y-147217297D01*
X191217267Y-147198183D01*
X191379792Y-147080104D01*
X191530104Y-146929792D01*
X191530106Y-146929788D01*
X191530109Y-146929786D01*
X191655048Y-146757820D01*
X191655047Y-146757820D01*
X191655051Y-146757816D01*
X191659514Y-146749054D01*
X191707488Y-146698259D01*
X191775308Y-146681463D01*
X191841444Y-146703999D01*
G37*
%TD.AperFunction*%
%TA.AperFunction,NonConductor*%
G36*
X189301444Y-146703999D02*
G01*
X189340486Y-146749056D01*
X189344951Y-146757820D01*
X189469890Y-146929786D01*
X189469896Y-146929792D01*
X189620208Y-147080104D01*
X189782730Y-147198182D01*
X189825395Y-147253511D01*
X189831374Y-147323125D01*
X189798769Y-147384920D01*
X189737930Y-147419277D01*
X189709844Y-147422500D01*
X188750156Y-147422500D01*
X188683117Y-147402815D01*
X188637362Y-147350011D01*
X188627418Y-147280853D01*
X188656443Y-147217297D01*
X188677267Y-147198183D01*
X188839792Y-147080104D01*
X188990104Y-146929792D01*
X188990106Y-146929788D01*
X188990109Y-146929786D01*
X189115048Y-146757820D01*
X189115047Y-146757820D01*
X189115051Y-146757816D01*
X189119514Y-146749054D01*
X189167488Y-146698259D01*
X189235308Y-146681463D01*
X189301444Y-146703999D01*
G37*
%TD.AperFunction*%
%TA.AperFunction,NonConductor*%
G36*
X186761444Y-146703999D02*
G01*
X186800486Y-146749056D01*
X186804951Y-146757820D01*
X186929890Y-146929786D01*
X186929896Y-146929792D01*
X187080208Y-147080104D01*
X187242730Y-147198182D01*
X187285395Y-147253511D01*
X187291374Y-147323125D01*
X187258769Y-147384920D01*
X187197930Y-147419277D01*
X187169844Y-147422500D01*
X186210156Y-147422500D01*
X186143117Y-147402815D01*
X186097362Y-147350011D01*
X186087418Y-147280853D01*
X186116443Y-147217297D01*
X186137267Y-147198183D01*
X186299792Y-147080104D01*
X186450104Y-146929792D01*
X186450106Y-146929788D01*
X186450109Y-146929786D01*
X186575048Y-146757820D01*
X186575047Y-146757820D01*
X186575051Y-146757816D01*
X186579514Y-146749054D01*
X186627488Y-146698259D01*
X186695308Y-146681463D01*
X186761444Y-146703999D01*
G37*
%TD.AperFunction*%
%TA.AperFunction,NonConductor*%
G36*
X184221444Y-146703999D02*
G01*
X184260486Y-146749056D01*
X184264951Y-146757820D01*
X184389890Y-146929786D01*
X184389896Y-146929792D01*
X184540208Y-147080104D01*
X184702730Y-147198182D01*
X184745395Y-147253511D01*
X184751374Y-147323125D01*
X184718769Y-147384920D01*
X184657930Y-147419277D01*
X184629844Y-147422500D01*
X183670156Y-147422500D01*
X183603117Y-147402815D01*
X183557362Y-147350011D01*
X183547418Y-147280853D01*
X183576443Y-147217297D01*
X183597267Y-147198183D01*
X183759792Y-147080104D01*
X183910104Y-146929792D01*
X183910106Y-146929788D01*
X183910109Y-146929786D01*
X184035048Y-146757820D01*
X184035047Y-146757820D01*
X184035051Y-146757816D01*
X184039514Y-146749054D01*
X184087488Y-146698259D01*
X184155308Y-146681463D01*
X184221444Y-146703999D01*
G37*
%TD.AperFunction*%
%TA.AperFunction,NonConductor*%
G36*
X273572834Y-145787626D02*
G01*
X273628767Y-145829498D01*
X273653184Y-145894962D01*
X273653500Y-145903808D01*
X273653500Y-147777192D01*
X273644855Y-147806632D01*
X273638332Y-147836619D01*
X273634577Y-147841634D01*
X273633815Y-147844231D01*
X273617181Y-147864873D01*
X273594873Y-147887181D01*
X273533550Y-147920666D01*
X273507192Y-147923500D01*
X271633808Y-147923500D01*
X271566769Y-147903815D01*
X271521014Y-147851011D01*
X271511070Y-147781853D01*
X271540095Y-147718297D01*
X271546127Y-147711819D01*
X273441819Y-145816127D01*
X273503142Y-145782642D01*
X273572834Y-145787626D01*
G37*
%TD.AperFunction*%
%TA.AperFunction,NonConductor*%
G36*
X180661315Y-147368128D02*
G01*
X180723852Y-147371250D01*
X180770711Y-147400657D01*
X181081873Y-147711819D01*
X181115358Y-147773142D01*
X181110374Y-147842834D01*
X181068502Y-147898767D01*
X181003038Y-147923184D01*
X180994192Y-147923500D01*
X180644808Y-147923500D01*
X180577769Y-147903815D01*
X180557127Y-147887181D01*
X180282127Y-147612181D01*
X180248642Y-147550858D01*
X180253626Y-147481166D01*
X180295498Y-147425233D01*
X180360962Y-147400816D01*
X180369808Y-147400500D01*
X180446286Y-147400500D01*
X180446287Y-147400500D01*
X180616991Y-147373463D01*
X180661055Y-147366484D01*
X180661315Y-147368128D01*
G37*
%TD.AperFunction*%
%TA.AperFunction,NonConductor*%
G36*
X176601444Y-146703999D02*
G01*
X176640486Y-146749056D01*
X176644951Y-146757820D01*
X176769890Y-146929786D01*
X176920213Y-147080109D01*
X177092179Y-147205048D01*
X177092181Y-147205049D01*
X177092184Y-147205051D01*
X177281588Y-147301557D01*
X177483757Y-147367246D01*
X177693713Y-147400500D01*
X177693714Y-147400500D01*
X177906286Y-147400500D01*
X177906287Y-147400500D01*
X178076991Y-147373463D01*
X178121055Y-147366484D01*
X178121315Y-147368128D01*
X178183852Y-147371250D01*
X178230711Y-147400657D01*
X179342873Y-148512819D01*
X179376358Y-148574142D01*
X179371374Y-148643834D01*
X179329502Y-148699767D01*
X179264038Y-148724184D01*
X179255192Y-148724500D01*
X169758338Y-148724500D01*
X169691299Y-148704815D01*
X169645544Y-148652011D01*
X169635600Y-148582853D01*
X169664625Y-148519297D01*
X169723403Y-148481523D01*
X169734146Y-148478883D01*
X169825132Y-148460783D01*
X169861744Y-148453501D01*
X169980127Y-148404465D01*
X170015055Y-148381127D01*
X170086669Y-148333277D01*
X170685276Y-147734670D01*
X170756465Y-147628127D01*
X170805501Y-147509744D01*
X170805862Y-147507931D01*
X170819498Y-147439382D01*
X170830500Y-147384071D01*
X170830500Y-147309617D01*
X170850185Y-147242578D01*
X170884592Y-147208902D01*
X170883874Y-147207914D01*
X170887811Y-147205053D01*
X170887816Y-147205051D01*
X171059792Y-147080104D01*
X171210104Y-146929792D01*
X171210106Y-146929788D01*
X171210109Y-146929786D01*
X171335048Y-146757820D01*
X171335047Y-146757820D01*
X171335051Y-146757816D01*
X171339514Y-146749054D01*
X171387488Y-146698259D01*
X171455308Y-146681463D01*
X171521444Y-146703999D01*
X171560486Y-146749056D01*
X171564951Y-146757820D01*
X171689890Y-146929786D01*
X171840213Y-147080109D01*
X172012179Y-147205048D01*
X172012181Y-147205049D01*
X172012184Y-147205051D01*
X172201588Y-147301557D01*
X172403757Y-147367246D01*
X172613713Y-147400500D01*
X172613714Y-147400500D01*
X172826286Y-147400500D01*
X172826287Y-147400500D01*
X173036243Y-147367246D01*
X173238412Y-147301557D01*
X173427816Y-147205051D01*
X173492831Y-147157815D01*
X173599786Y-147080109D01*
X173599788Y-147080106D01*
X173599792Y-147080104D01*
X173750104Y-146929792D01*
X173750106Y-146929788D01*
X173750109Y-146929786D01*
X173875048Y-146757820D01*
X173875047Y-146757820D01*
X173875051Y-146757816D01*
X173879514Y-146749054D01*
X173927488Y-146698259D01*
X173995308Y-146681463D01*
X174061444Y-146703999D01*
X174100486Y-146749056D01*
X174104951Y-146757820D01*
X174229890Y-146929786D01*
X174380213Y-147080109D01*
X174552179Y-147205048D01*
X174552181Y-147205049D01*
X174552184Y-147205051D01*
X174741588Y-147301557D01*
X174943757Y-147367246D01*
X175153713Y-147400500D01*
X175153714Y-147400500D01*
X175366286Y-147400500D01*
X175366287Y-147400500D01*
X175576243Y-147367246D01*
X175778412Y-147301557D01*
X175967816Y-147205051D01*
X176032831Y-147157815D01*
X176139786Y-147080109D01*
X176139788Y-147080106D01*
X176139792Y-147080104D01*
X176290104Y-146929792D01*
X176290106Y-146929788D01*
X176290109Y-146929786D01*
X176415048Y-146757820D01*
X176415047Y-146757820D01*
X176415051Y-146757816D01*
X176419514Y-146749054D01*
X176467488Y-146698259D01*
X176535308Y-146681463D01*
X176601444Y-146703999D01*
G37*
%TD.AperFunction*%
%TA.AperFunction,NonConductor*%
G36*
X80096420Y-109976705D02*
G01*
X80110318Y-109992745D01*
X80211752Y-110132358D01*
X80211756Y-110132363D01*
X80367636Y-110288243D01*
X80367641Y-110288247D01*
X80507254Y-110389682D01*
X80549920Y-110445012D01*
X80555899Y-110514625D01*
X80523293Y-110576420D01*
X80507254Y-110590318D01*
X80367641Y-110691752D01*
X80367636Y-110691756D01*
X80211756Y-110847636D01*
X80211752Y-110847641D01*
X80110318Y-110987254D01*
X80054988Y-111029920D01*
X79985375Y-111035899D01*
X79923580Y-111003293D01*
X79909682Y-110987254D01*
X79808247Y-110847641D01*
X79808243Y-110847636D01*
X79652363Y-110691756D01*
X79652358Y-110691752D01*
X79512745Y-110590318D01*
X79470079Y-110534989D01*
X79464100Y-110465375D01*
X79496705Y-110403580D01*
X79512745Y-110389682D01*
X79652358Y-110288247D01*
X79652356Y-110288247D01*
X79652365Y-110288242D01*
X79808242Y-110132365D01*
X79818804Y-110117826D01*
X79909682Y-109992745D01*
X79965011Y-109950079D01*
X80034625Y-109944100D01*
X80096420Y-109976705D01*
G37*
%TD.AperFunction*%
%TA.AperFunction,NonConductor*%
G36*
X80027384Y-112484721D02*
G01*
X80034625Y-112484100D01*
X80059503Y-112497226D01*
X80085721Y-112507434D01*
X80092952Y-112514875D01*
X80096420Y-112516705D01*
X80110318Y-112532745D01*
X80211752Y-112672358D01*
X80211756Y-112672363D01*
X80367636Y-112828243D01*
X80367641Y-112828247D01*
X80507254Y-112929682D01*
X80549920Y-112985012D01*
X80555899Y-113054625D01*
X80523293Y-113116420D01*
X80507254Y-113130318D01*
X80367641Y-113231752D01*
X80367636Y-113231756D01*
X80211756Y-113387636D01*
X80211752Y-113387641D01*
X80082185Y-113565976D01*
X80063330Y-113602981D01*
X80015355Y-113653777D01*
X79947534Y-113670571D01*
X79881399Y-113648033D01*
X79852528Y-113619571D01*
X79731582Y-113453104D01*
X79586895Y-113308417D01*
X79420428Y-113187471D01*
X79377763Y-113132141D01*
X79371784Y-113062527D01*
X79404390Y-113000732D01*
X79437015Y-112976670D01*
X79474022Y-112957815D01*
X79652365Y-112828242D01*
X79808242Y-112672365D01*
X79849678Y-112615333D01*
X79909682Y-112532745D01*
X79931960Y-112515564D01*
X79952134Y-112495960D01*
X79959255Y-112494516D01*
X79965011Y-112490079D01*
X79993039Y-112487671D01*
X80020612Y-112482085D01*
X80027384Y-112484721D01*
G37*
%TD.AperFunction*%
%TA.AperFunction,NonConductor*%
G36*
X80039266Y-114964390D02*
G01*
X80063330Y-114997018D01*
X80082184Y-115034021D01*
X80082187Y-115034025D01*
X80211752Y-115212358D01*
X80211756Y-115212363D01*
X80261928Y-115262535D01*
X80295413Y-115323858D01*
X80290429Y-115393550D01*
X80248557Y-115449483D01*
X80217581Y-115466398D01*
X80137669Y-115496203D01*
X80137664Y-115496206D01*
X80022455Y-115582452D01*
X80022452Y-115582455D01*
X79936206Y-115697664D01*
X79936203Y-115697669D01*
X79906398Y-115777581D01*
X79864526Y-115833514D01*
X79799062Y-115857931D01*
X79730789Y-115843079D01*
X79702535Y-115821928D01*
X79652363Y-115771756D01*
X79652358Y-115771752D01*
X79474025Y-115642187D01*
X79474024Y-115642186D01*
X79474022Y-115642185D01*
X79437018Y-115623330D01*
X79386223Y-115575356D01*
X79369428Y-115507535D01*
X79391966Y-115441400D01*
X79420429Y-115412528D01*
X79586889Y-115291587D01*
X79586895Y-115291582D01*
X79731582Y-115146895D01*
X79731587Y-115146889D01*
X79852528Y-114980429D01*
X79907858Y-114937763D01*
X79977471Y-114931784D01*
X80039266Y-114964390D01*
G37*
%TD.AperFunction*%
%TA.AperFunction,NonConductor*%
G36*
X96325780Y-105064185D02*
G01*
X96371535Y-105116989D01*
X96381479Y-105186147D01*
X96352454Y-105249703D01*
X96293676Y-105287477D01*
X96278139Y-105290973D01*
X96203759Y-105302753D01*
X96001585Y-105368444D01*
X95812179Y-105464951D01*
X95640215Y-105589889D01*
X95526673Y-105703431D01*
X95465350Y-105736915D01*
X95395658Y-105731931D01*
X95339725Y-105690059D01*
X95322810Y-105659082D01*
X95273797Y-105527671D01*
X95273793Y-105527664D01*
X95187547Y-105412455D01*
X95187544Y-105412452D01*
X95072335Y-105326206D01*
X95072328Y-105326202D01*
X94961005Y-105284682D01*
X94905071Y-105242811D01*
X94880654Y-105177347D01*
X94895505Y-105109074D01*
X94944910Y-105059668D01*
X95004338Y-105044500D01*
X96258741Y-105044500D01*
X96325780Y-105064185D01*
G37*
%TD.AperFunction*%
%TA.AperFunction,NonConductor*%
G36*
X98865780Y-105064185D02*
G01*
X98911535Y-105116989D01*
X98921479Y-105186147D01*
X98892454Y-105249703D01*
X98833676Y-105287477D01*
X98818139Y-105290973D01*
X98743759Y-105302753D01*
X98541585Y-105368444D01*
X98352179Y-105464951D01*
X98180213Y-105589890D01*
X98029890Y-105740213D01*
X97904949Y-105912182D01*
X97900484Y-105920946D01*
X97852509Y-105971742D01*
X97784688Y-105988536D01*
X97718553Y-105965998D01*
X97679516Y-105920946D01*
X97675050Y-105912182D01*
X97550109Y-105740213D01*
X97399786Y-105589890D01*
X97227820Y-105464951D01*
X97038414Y-105368444D01*
X97038413Y-105368443D01*
X97038412Y-105368443D01*
X96836243Y-105302754D01*
X96836241Y-105302753D01*
X96836240Y-105302753D01*
X96761861Y-105290973D01*
X96698726Y-105261044D01*
X96661795Y-105201732D01*
X96662793Y-105131870D01*
X96701403Y-105073637D01*
X96765366Y-105045523D01*
X96781259Y-105044500D01*
X98798741Y-105044500D01*
X98865780Y-105064185D01*
G37*
%TD.AperFunction*%
M02*
